<?xml version="1.0" encoding="utf-8" standalone="no"?>
<!DOCTYPE svg PUBLIC "-//W3C//DTD SVG 1.1//EN"
  "http://www.w3.org/Graphics/SVG/1.1/DTD/svg11.dtd">
<svg xmlns:xlink="http://www.w3.org/1999/xlink" width="847.53pt" height="291.9675pt" viewBox="0 0 847.53 291.9675" xmlns="http://www.w3.org/2000/svg" version="1.1">
 <metadata>
  <rdf:RDF xmlns:dc="http://purl.org/dc/elements/1.1/" xmlns:cc="http://creativecommons.org/ns#" xmlns:rdf="http://www.w3.org/1999/02/22-rdf-syntax-ns#">
   <cc:Work>
    <dc:type rdf:resource="http://purl.org/dc/dcmitype/StillImage"/>
    <dc:date>2023-05-31T10:10:26.464553</dc:date>
    <dc:format>image/svg+xml</dc:format>
    <dc:creator>
     <cc:Agent>
      <dc:title>Matplotlib v3.6.2, https://matplotlib.org/</dc:title>
     </cc:Agent>
    </dc:creator>
   </cc:Work>
  </rdf:RDF>
 </metadata>
 <defs>
  <style type="text/css">*{stroke-linejoin: round; stroke-linecap: butt}</style>
 </defs>
 <g id="figure_1">
  <g id="patch_1">
   <path d="M 0 291.9675 
L 847.53 291.9675 
L 847.53 0 
L 0 0 
z
" style="fill: #ffffff"/>
  </g>
  <g id="axes_1">
   <g id="patch_2">
    <path d="M 59.13 242.7975 
L 840.33 242.7975 
L 840.33 25.3575 
L 59.13 25.3575 
z
" style="fill: #ffffff"/>
   </g>
   <g id="patch_3">
    <path d="M 94.639091 242.7975 
L 112.848881 242.7975 
L 112.848881 38.171536 
L 94.639091 38.171536 
z
" clip-path="url(#pe6ff8e1e10)" style="fill: #1f77b4"/>
   </g>
   <g id="patch_4">
    <path d="M 167.478252 242.7975 
L 185.688042 242.7975 
L 185.688042 42.289853 
L 167.478252 42.289853 
z
" clip-path="url(#pe6ff8e1e10)" style="fill: #1f77b4"/>
   </g>
   <g id="patch_5">
    <path d="M 240.317413 242.7975 
L 258.527203 242.7975 
L 258.527203 35.711786 
L 240.317413 35.711786 
z
" clip-path="url(#pe6ff8e1e10)" style="fill: #1f77b4"/>
   </g>
   <g id="patch_6">
    <path d="M 313.156573 242.7975 
L 331.366364 242.7975 
L 331.366364 57.258879 
L 313.156573 57.258879 
z
" clip-path="url(#pe6ff8e1e10)" style="fill: #1f77b4"/>
   </g>
   <g id="patch_7">
    <path d="M 385.995734 242.7975 
L 404.205524 242.7975 
L 404.205524 50.465007 
L 385.995734 50.465007 
z
" clip-path="url(#pe6ff8e1e10)" style="fill: #1f77b4"/>
   </g>
   <g id="patch_8">
    <path d="M 458.834895 242.7975 
L 477.044685 242.7975 
L 477.044685 110.410332 
L 458.834895 110.410332 
z
" clip-path="url(#pe6ff8e1e10)" style="fill: #1f77b4"/>
   </g>
   <g id="patch_9">
    <path d="M 531.674056 242.7975 
L 549.883846 242.7975 
L 549.883846 53.144969 
L 531.674056 53.144969 
z
" clip-path="url(#pe6ff8e1e10)" style="fill: #1f77b4"/>
   </g>
   <g id="patch_10">
    <path d="M 604.513217 242.7975 
L 622.723007 242.7975 
L 622.723007 57.84429 
L 604.513217 57.84429 
z
" clip-path="url(#pe6ff8e1e10)" style="fill: #1f77b4"/>
   </g>
   <g id="patch_11">
    <path d="M 677.352378 242.7975 
L 695.562168 242.7975 
L 695.562168 52.845409 
L 677.352378 52.845409 
z
" clip-path="url(#pe6ff8e1e10)" style="fill: #1f77b4"/>
   </g>
   <g id="patch_12">
    <path d="M 750.191538 242.7975 
L 768.401329 242.7975 
L 768.401329 60.153843 
L 750.191538 60.153843 
z
" clip-path="url(#pe6ff8e1e10)" style="fill: #1f77b4"/>
   </g>
   <g id="patch_13">
    <path d="M 112.848881 242.7975 
L 131.058671 242.7975 
L 131.058671 89.503188 
L 112.848881 89.503188 
z
" clip-path="url(#pe6ff8e1e10)" style="fill: #ff7f0e"/>
   </g>
   <g id="patch_14">
    <path d="M 185.688042 242.7975 
L 203.897832 242.7975 
L 203.897832 39.208959 
L 185.688042 39.208959 
z
" clip-path="url(#pe6ff8e1e10)" style="fill: #ff7f0e"/>
   </g>
   <g id="patch_15">
    <path d="M 258.527203 242.7975 
L 276.736993 242.7975 
L 276.736993 35.96783 
L 258.527203 35.96783 
z
" clip-path="url(#pe6ff8e1e10)" style="fill: #ff7f0e"/>
   </g>
   <g id="patch_16">
    <path d="M 331.366364 242.7975 
L 349.576154 242.7975 
L 349.576154 64.463643 
L 331.366364 64.463643 
z
" clip-path="url(#pe6ff8e1e10)" style="fill: #ff7f0e"/>
   </g>
   <g id="patch_17">
    <path d="M 404.205524 242.7975 
L 422.415315 242.7975 
L 422.415315 72.722663 
L 404.205524 72.722663 
z
" clip-path="url(#pe6ff8e1e10)" style="fill: #ff7f0e"/>
   </g>
   <g id="patch_18">
    <path d="M 477.044685 242.7975 
L 495.254476 242.7975 
L 495.254476 157.22098 
L 477.044685 157.22098 
z
" clip-path="url(#pe6ff8e1e10)" style="fill: #ff7f0e"/>
   </g>
   <g id="patch_19">
    <path d="M 549.883846 242.7975 
L 568.093636 242.7975 
L 568.093636 73.333238 
L 549.883846 73.333238 
z
" clip-path="url(#pe6ff8e1e10)" style="fill: #ff7f0e"/>
   </g>
   <g id="patch_20">
    <path d="M 622.723007 242.7975 
L 640.932797 242.7975 
L 640.932797 85.915884 
L 622.723007 85.915884 
z
" clip-path="url(#pe6ff8e1e10)" style="fill: #ff7f0e"/>
   </g>
   <g id="patch_21">
    <path d="M 695.562168 242.7975 
L 713.771958 242.7975 
L 713.771958 64.114535 
L 695.562168 64.114535 
z
" clip-path="url(#pe6ff8e1e10)" style="fill: #ff7f0e"/>
   </g>
   <g id="patch_22">
    <path d="M 768.401329 242.7975 
L 786.611119 242.7975 
L 786.611119 94.872328 
L 768.401329 94.872328 
z
" clip-path="url(#pe6ff8e1e10)" style="fill: #ff7f0e"/>
   </g>
   <g id="patch_23">
    <path d="M 131.058671 242.7975 
L 149.268462 242.7975 
L 149.268462 45.888127 
L 131.058671 45.888127 
z
" clip-path="url(#pe6ff8e1e10)" style="fill: #2ca02c"/>
   </g>
   <g id="patch_24">
    <path d="M 203.897832 242.7975 
L 222.107622 242.7975 
L 222.107622 56.089971 
L 203.897832 56.089971 
z
" clip-path="url(#pe6ff8e1e10)" style="fill: #2ca02c"/>
   </g>
   <g id="patch_25">
    <path d="M 276.736993 242.7975 
L 294.946783 242.7975 
L 294.946783 36.893384 
L 276.736993 36.893384 
z
" clip-path="url(#pe6ff8e1e10)" style="fill: #2ca02c"/>
   </g>
   <g id="patch_26">
    <path d="M 349.576154 242.7975 
L 367.785944 242.7975 
L 367.785944 66.382813 
L 349.576154 66.382813 
z
" clip-path="url(#pe6ff8e1e10)" style="fill: #2ca02c"/>
   </g>
   <g id="patch_27">
    <path d="M 422.415315 242.7975 
L 440.625105 242.7975 
L 440.625105 65.061859 
L 422.415315 65.061859 
z
" clip-path="url(#pe6ff8e1e10)" style="fill: #2ca02c"/>
   </g>
   <g id="patch_28">
    <path d="M 495.254476 242.7975 
L 513.464266 242.7975 
L 513.464266 115.094331 
L 495.254476 115.094331 
z
" clip-path="url(#pe6ff8e1e10)" style="fill: #2ca02c"/>
   </g>
   <g id="patch_29">
    <path d="M 568.093636 242.7975 
L 586.303427 242.7975 
L 586.303427 82.598347 
L 568.093636 82.598347 
z
" clip-path="url(#pe6ff8e1e10)" style="fill: #2ca02c"/>
   </g>
   <g id="patch_30">
    <path d="M 640.932797 242.7975 
L 659.142587 242.7975 
L 659.142587 153.80325 
L 640.932797 153.80325 
z
" clip-path="url(#pe6ff8e1e10)" style="fill: #2ca02c"/>
   </g>
   <g id="patch_31">
    <path d="M 713.771958 242.7975 
L 731.981748 242.7975 
L 731.981748 81.92784 
L 713.771958 81.92784 
z
" clip-path="url(#pe6ff8e1e10)" style="fill: #2ca02c"/>
   </g>
   <g id="patch_32">
    <path d="M 786.611119 242.7975 
L 804.820909 242.7975 
L 804.820909 89.151765 
L 786.611119 89.151765 
z
" clip-path="url(#pe6ff8e1e10)" style="fill: #2ca02c"/>
   </g>
   <g id="matplotlib.axis_1">
    <g id="xtick_1">
     <g id="line2d_1">
      <path d="M 121.953776 242.7975 
L 121.953776 25.3575 
" clip-path="url(#pe6ff8e1e10)" style="fill: none; stroke: #b0b0b0; stroke-width: 0.8; stroke-linecap: square"/>
     </g>
     <g id="line2d_2">
      <defs>
       <path id="m7da8ca9938" d="M 0 0 
L 0 3.5 
" style="stroke: #000000; stroke-width: 0.8"/>
      </defs>
      <g>
       <use xlink:href="#m7da8ca9938" x="121.953776" y="242.7975" style="stroke: #000000; stroke-width: 0.8"/>
      </g>
     </g>
     <g id="text_1">
      <!-- trace1 -->
      <g transform="translate(96.215026 261.955) scale(0.16 -0.16)">
       <defs>
        <path id="DejaVuSans-74" d="M 1172 4494 
L 1172 3500 
L 2356 3500 
L 2356 3053 
L 1172 3053 
L 1172 1153 
Q 1172 725 1289 603 
Q 1406 481 1766 481 
L 2356 481 
L 2356 0 
L 1766 0 
Q 1100 0 847 248 
Q 594 497 594 1153 
L 594 3053 
L 172 3053 
L 172 3500 
L 594 3500 
L 594 4494 
L 1172 4494 
z
" transform="scale(0.015625)"/>
        <path id="DejaVuSans-72" d="M 2631 2963 
Q 2534 3019 2420 3045 
Q 2306 3072 2169 3072 
Q 1681 3072 1420 2755 
Q 1159 2438 1159 1844 
L 1159 0 
L 581 0 
L 581 3500 
L 1159 3500 
L 1159 2956 
Q 1341 3275 1631 3429 
Q 1922 3584 2338 3584 
Q 2397 3584 2469 3576 
Q 2541 3569 2628 3553 
L 2631 2963 
z
" transform="scale(0.015625)"/>
        <path id="DejaVuSans-61" d="M 2194 1759 
Q 1497 1759 1228 1600 
Q 959 1441 959 1056 
Q 959 750 1161 570 
Q 1363 391 1709 391 
Q 2188 391 2477 730 
Q 2766 1069 2766 1631 
L 2766 1759 
L 2194 1759 
z
M 3341 1997 
L 3341 0 
L 2766 0 
L 2766 531 
Q 2569 213 2275 61 
Q 1981 -91 1556 -91 
Q 1019 -91 701 211 
Q 384 513 384 1019 
Q 384 1609 779 1909 
Q 1175 2209 1959 2209 
L 2766 2209 
L 2766 2266 
Q 2766 2663 2505 2880 
Q 2244 3097 1772 3097 
Q 1472 3097 1187 3025 
Q 903 2953 641 2809 
L 641 3341 
Q 956 3463 1253 3523 
Q 1550 3584 1831 3584 
Q 2591 3584 2966 3190 
Q 3341 2797 3341 1997 
z
" transform="scale(0.015625)"/>
        <path id="DejaVuSans-63" d="M 3122 3366 
L 3122 2828 
Q 2878 2963 2633 3030 
Q 2388 3097 2138 3097 
Q 1578 3097 1268 2742 
Q 959 2388 959 1747 
Q 959 1106 1268 751 
Q 1578 397 2138 397 
Q 2388 397 2633 464 
Q 2878 531 3122 666 
L 3122 134 
Q 2881 22 2623 -34 
Q 2366 -91 2075 -91 
Q 1284 -91 818 406 
Q 353 903 353 1747 
Q 353 2603 823 3093 
Q 1294 3584 2113 3584 
Q 2378 3584 2631 3529 
Q 2884 3475 3122 3366 
z
" transform="scale(0.015625)"/>
        <path id="DejaVuSans-65" d="M 3597 1894 
L 3597 1613 
L 953 1613 
Q 991 1019 1311 708 
Q 1631 397 2203 397 
Q 2534 397 2845 478 
Q 3156 559 3463 722 
L 3463 178 
Q 3153 47 2828 -22 
Q 2503 -91 2169 -91 
Q 1331 -91 842 396 
Q 353 884 353 1716 
Q 353 2575 817 3079 
Q 1281 3584 2069 3584 
Q 2775 3584 3186 3129 
Q 3597 2675 3597 1894 
z
M 3022 2063 
Q 3016 2534 2758 2815 
Q 2500 3097 2075 3097 
Q 1594 3097 1305 2825 
Q 1016 2553 972 2059 
L 3022 2063 
z
" transform="scale(0.015625)"/>
        <path id="DejaVuSans-31" d="M 794 531 
L 1825 531 
L 1825 4091 
L 703 3866 
L 703 4441 
L 1819 4666 
L 2450 4666 
L 2450 531 
L 3481 531 
L 3481 0 
L 794 0 
L 794 531 
z
" transform="scale(0.015625)"/>
       </defs>
       <use xlink:href="#DejaVuSans-74"/>
       <use xlink:href="#DejaVuSans-72" x="39.208984"/>
       <use xlink:href="#DejaVuSans-61" x="80.322266"/>
       <use xlink:href="#DejaVuSans-63" x="141.601562"/>
       <use xlink:href="#DejaVuSans-65" x="196.582031"/>
       <use xlink:href="#DejaVuSans-31" x="258.105469"/>
      </g>
     </g>
    </g>
    <g id="xtick_2">
     <g id="line2d_3">
      <path d="M 194.792937 242.7975 
L 194.792937 25.3575 
" clip-path="url(#pe6ff8e1e10)" style="fill: none; stroke: #b0b0b0; stroke-width: 0.8; stroke-linecap: square"/>
     </g>
     <g id="line2d_4">
      <g>
       <use xlink:href="#m7da8ca9938" x="194.792937" y="242.7975" style="stroke: #000000; stroke-width: 0.8"/>
      </g>
     </g>
     <g id="text_2">
      <!-- trace2 -->
      <g transform="translate(169.054187 261.955) scale(0.16 -0.16)">
       <defs>
        <path id="DejaVuSans-32" d="M 1228 531 
L 3431 531 
L 3431 0 
L 469 0 
L 469 531 
Q 828 903 1448 1529 
Q 2069 2156 2228 2338 
Q 2531 2678 2651 2914 
Q 2772 3150 2772 3378 
Q 2772 3750 2511 3984 
Q 2250 4219 1831 4219 
Q 1534 4219 1204 4116 
Q 875 4013 500 3803 
L 500 4441 
Q 881 4594 1212 4672 
Q 1544 4750 1819 4750 
Q 2544 4750 2975 4387 
Q 3406 4025 3406 3419 
Q 3406 3131 3298 2873 
Q 3191 2616 2906 2266 
Q 2828 2175 2409 1742 
Q 1991 1309 1228 531 
z
" transform="scale(0.015625)"/>
       </defs>
       <use xlink:href="#DejaVuSans-74"/>
       <use xlink:href="#DejaVuSans-72" x="39.208984"/>
       <use xlink:href="#DejaVuSans-61" x="80.322266"/>
       <use xlink:href="#DejaVuSans-63" x="141.601562"/>
       <use xlink:href="#DejaVuSans-65" x="196.582031"/>
       <use xlink:href="#DejaVuSans-32" x="258.105469"/>
      </g>
     </g>
    </g>
    <g id="xtick_3">
     <g id="line2d_5">
      <path d="M 267.632098 242.7975 
L 267.632098 25.3575 
" clip-path="url(#pe6ff8e1e10)" style="fill: none; stroke: #b0b0b0; stroke-width: 0.8; stroke-linecap: square"/>
     </g>
     <g id="line2d_6">
      <g>
       <use xlink:href="#m7da8ca9938" x="267.632098" y="242.7975" style="stroke: #000000; stroke-width: 0.8"/>
      </g>
     </g>
     <g id="text_3">
      <!-- trace3 -->
      <g transform="translate(241.893348 261.955) scale(0.16 -0.16)">
       <defs>
        <path id="DejaVuSans-33" d="M 2597 2516 
Q 3050 2419 3304 2112 
Q 3559 1806 3559 1356 
Q 3559 666 3084 287 
Q 2609 -91 1734 -91 
Q 1441 -91 1130 -33 
Q 819 25 488 141 
L 488 750 
Q 750 597 1062 519 
Q 1375 441 1716 441 
Q 2309 441 2620 675 
Q 2931 909 2931 1356 
Q 2931 1769 2642 2001 
Q 2353 2234 1838 2234 
L 1294 2234 
L 1294 2753 
L 1863 2753 
Q 2328 2753 2575 2939 
Q 2822 3125 2822 3475 
Q 2822 3834 2567 4026 
Q 2313 4219 1838 4219 
Q 1578 4219 1281 4162 
Q 984 4106 628 3988 
L 628 4550 
Q 988 4650 1302 4700 
Q 1616 4750 1894 4750 
Q 2613 4750 3031 4423 
Q 3450 4097 3450 3541 
Q 3450 3153 3228 2886 
Q 3006 2619 2597 2516 
z
" transform="scale(0.015625)"/>
       </defs>
       <use xlink:href="#DejaVuSans-74"/>
       <use xlink:href="#DejaVuSans-72" x="39.208984"/>
       <use xlink:href="#DejaVuSans-61" x="80.322266"/>
       <use xlink:href="#DejaVuSans-63" x="141.601562"/>
       <use xlink:href="#DejaVuSans-65" x="196.582031"/>
       <use xlink:href="#DejaVuSans-33" x="258.105469"/>
      </g>
     </g>
    </g>
    <g id="xtick_4">
     <g id="line2d_7">
      <path d="M 340.471259 242.7975 
L 340.471259 25.3575 
" clip-path="url(#pe6ff8e1e10)" style="fill: none; stroke: #b0b0b0; stroke-width: 0.8; stroke-linecap: square"/>
     </g>
     <g id="line2d_8">
      <g>
       <use xlink:href="#m7da8ca9938" x="340.471259" y="242.7975" style="stroke: #000000; stroke-width: 0.8"/>
      </g>
     </g>
     <g id="text_4">
      <!-- trace4 -->
      <g transform="translate(314.732509 261.955) scale(0.16 -0.16)">
       <defs>
        <path id="DejaVuSans-34" d="M 2419 4116 
L 825 1625 
L 2419 1625 
L 2419 4116 
z
M 2253 4666 
L 3047 4666 
L 3047 1625 
L 3713 1625 
L 3713 1100 
L 3047 1100 
L 3047 0 
L 2419 0 
L 2419 1100 
L 313 1100 
L 313 1709 
L 2253 4666 
z
" transform="scale(0.015625)"/>
       </defs>
       <use xlink:href="#DejaVuSans-74"/>
       <use xlink:href="#DejaVuSans-72" x="39.208984"/>
       <use xlink:href="#DejaVuSans-61" x="80.322266"/>
       <use xlink:href="#DejaVuSans-63" x="141.601562"/>
       <use xlink:href="#DejaVuSans-65" x="196.582031"/>
       <use xlink:href="#DejaVuSans-34" x="258.105469"/>
      </g>
     </g>
    </g>
    <g id="xtick_5">
     <g id="line2d_9">
      <path d="M 413.31042 242.7975 
L 413.31042 25.3575 
" clip-path="url(#pe6ff8e1e10)" style="fill: none; stroke: #b0b0b0; stroke-width: 0.8; stroke-linecap: square"/>
     </g>
     <g id="line2d_10">
      <g>
       <use xlink:href="#m7da8ca9938" x="413.31042" y="242.7975" style="stroke: #000000; stroke-width: 0.8"/>
      </g>
     </g>
     <g id="text_5">
      <!-- trace5 -->
      <g transform="translate(387.57167 261.955) scale(0.16 -0.16)">
       <defs>
        <path id="DejaVuSans-35" d="M 691 4666 
L 3169 4666 
L 3169 4134 
L 1269 4134 
L 1269 2991 
Q 1406 3038 1543 3061 
Q 1681 3084 1819 3084 
Q 2600 3084 3056 2656 
Q 3513 2228 3513 1497 
Q 3513 744 3044 326 
Q 2575 -91 1722 -91 
Q 1428 -91 1123 -41 
Q 819 9 494 109 
L 494 744 
Q 775 591 1075 516 
Q 1375 441 1709 441 
Q 2250 441 2565 725 
Q 2881 1009 2881 1497 
Q 2881 1984 2565 2268 
Q 2250 2553 1709 2553 
Q 1456 2553 1204 2497 
Q 953 2441 691 2322 
L 691 4666 
z
" transform="scale(0.015625)"/>
       </defs>
       <use xlink:href="#DejaVuSans-74"/>
       <use xlink:href="#DejaVuSans-72" x="39.208984"/>
       <use xlink:href="#DejaVuSans-61" x="80.322266"/>
       <use xlink:href="#DejaVuSans-63" x="141.601562"/>
       <use xlink:href="#DejaVuSans-65" x="196.582031"/>
       <use xlink:href="#DejaVuSans-35" x="258.105469"/>
      </g>
     </g>
    </g>
    <g id="xtick_6">
     <g id="line2d_11">
      <path d="M 486.14958 242.7975 
L 486.14958 25.3575 
" clip-path="url(#pe6ff8e1e10)" style="fill: none; stroke: #b0b0b0; stroke-width: 0.8; stroke-linecap: square"/>
     </g>
     <g id="line2d_12">
      <g>
       <use xlink:href="#m7da8ca9938" x="486.14958" y="242.7975" style="stroke: #000000; stroke-width: 0.8"/>
      </g>
     </g>
     <g id="text_6">
      <!-- trace6 -->
      <g transform="translate(460.41083 261.955) scale(0.16 -0.16)">
       <defs>
        <path id="DejaVuSans-36" d="M 2113 2584 
Q 1688 2584 1439 2293 
Q 1191 2003 1191 1497 
Q 1191 994 1439 701 
Q 1688 409 2113 409 
Q 2538 409 2786 701 
Q 3034 994 3034 1497 
Q 3034 2003 2786 2293 
Q 2538 2584 2113 2584 
z
M 3366 4563 
L 3366 3988 
Q 3128 4100 2886 4159 
Q 2644 4219 2406 4219 
Q 1781 4219 1451 3797 
Q 1122 3375 1075 2522 
Q 1259 2794 1537 2939 
Q 1816 3084 2150 3084 
Q 2853 3084 3261 2657 
Q 3669 2231 3669 1497 
Q 3669 778 3244 343 
Q 2819 -91 2113 -91 
Q 1303 -91 875 529 
Q 447 1150 447 2328 
Q 447 3434 972 4092 
Q 1497 4750 2381 4750 
Q 2619 4750 2861 4703 
Q 3103 4656 3366 4563 
z
" transform="scale(0.015625)"/>
       </defs>
       <use xlink:href="#DejaVuSans-74"/>
       <use xlink:href="#DejaVuSans-72" x="39.208984"/>
       <use xlink:href="#DejaVuSans-61" x="80.322266"/>
       <use xlink:href="#DejaVuSans-63" x="141.601562"/>
       <use xlink:href="#DejaVuSans-65" x="196.582031"/>
       <use xlink:href="#DejaVuSans-36" x="258.105469"/>
      </g>
     </g>
    </g>
    <g id="xtick_7">
     <g id="line2d_13">
      <path d="M 558.988741 242.7975 
L 558.988741 25.3575 
" clip-path="url(#pe6ff8e1e10)" style="fill: none; stroke: #b0b0b0; stroke-width: 0.8; stroke-linecap: square"/>
     </g>
     <g id="line2d_14">
      <g>
       <use xlink:href="#m7da8ca9938" x="558.988741" y="242.7975" style="stroke: #000000; stroke-width: 0.8"/>
      </g>
     </g>
     <g id="text_7">
      <!-- trace7 -->
      <g transform="translate(533.249991 261.955) scale(0.16 -0.16)">
       <defs>
        <path id="DejaVuSans-37" d="M 525 4666 
L 3525 4666 
L 3525 4397 
L 1831 0 
L 1172 0 
L 2766 4134 
L 525 4134 
L 525 4666 
z
" transform="scale(0.015625)"/>
       </defs>
       <use xlink:href="#DejaVuSans-74"/>
       <use xlink:href="#DejaVuSans-72" x="39.208984"/>
       <use xlink:href="#DejaVuSans-61" x="80.322266"/>
       <use xlink:href="#DejaVuSans-63" x="141.601562"/>
       <use xlink:href="#DejaVuSans-65" x="196.582031"/>
       <use xlink:href="#DejaVuSans-37" x="258.105469"/>
      </g>
     </g>
    </g>
    <g id="xtick_8">
     <g id="line2d_15">
      <path d="M 631.827902 242.7975 
L 631.827902 25.3575 
" clip-path="url(#pe6ff8e1e10)" style="fill: none; stroke: #b0b0b0; stroke-width: 0.8; stroke-linecap: square"/>
     </g>
     <g id="line2d_16">
      <g>
       <use xlink:href="#m7da8ca9938" x="631.827902" y="242.7975" style="stroke: #000000; stroke-width: 0.8"/>
      </g>
     </g>
     <g id="text_8">
      <!-- trace8 -->
      <g transform="translate(606.089152 261.955) scale(0.16 -0.16)">
       <defs>
        <path id="DejaVuSans-38" d="M 2034 2216 
Q 1584 2216 1326 1975 
Q 1069 1734 1069 1313 
Q 1069 891 1326 650 
Q 1584 409 2034 409 
Q 2484 409 2743 651 
Q 3003 894 3003 1313 
Q 3003 1734 2745 1975 
Q 2488 2216 2034 2216 
z
M 1403 2484 
Q 997 2584 770 2862 
Q 544 3141 544 3541 
Q 544 4100 942 4425 
Q 1341 4750 2034 4750 
Q 2731 4750 3128 4425 
Q 3525 4100 3525 3541 
Q 3525 3141 3298 2862 
Q 3072 2584 2669 2484 
Q 3125 2378 3379 2068 
Q 3634 1759 3634 1313 
Q 3634 634 3220 271 
Q 2806 -91 2034 -91 
Q 1263 -91 848 271 
Q 434 634 434 1313 
Q 434 1759 690 2068 
Q 947 2378 1403 2484 
z
M 1172 3481 
Q 1172 3119 1398 2916 
Q 1625 2713 2034 2713 
Q 2441 2713 2670 2916 
Q 2900 3119 2900 3481 
Q 2900 3844 2670 4047 
Q 2441 4250 2034 4250 
Q 1625 4250 1398 4047 
Q 1172 3844 1172 3481 
z
" transform="scale(0.015625)"/>
       </defs>
       <use xlink:href="#DejaVuSans-74"/>
       <use xlink:href="#DejaVuSans-72" x="39.208984"/>
       <use xlink:href="#DejaVuSans-61" x="80.322266"/>
       <use xlink:href="#DejaVuSans-63" x="141.601562"/>
       <use xlink:href="#DejaVuSans-65" x="196.582031"/>
       <use xlink:href="#DejaVuSans-38" x="258.105469"/>
      </g>
     </g>
    </g>
    <g id="xtick_9">
     <g id="line2d_17">
      <path d="M 704.667063 242.7975 
L 704.667063 25.3575 
" clip-path="url(#pe6ff8e1e10)" style="fill: none; stroke: #b0b0b0; stroke-width: 0.8; stroke-linecap: square"/>
     </g>
     <g id="line2d_18">
      <g>
       <use xlink:href="#m7da8ca9938" x="704.667063" y="242.7975" style="stroke: #000000; stroke-width: 0.8"/>
      </g>
     </g>
     <g id="text_9">
      <!-- trace9 -->
      <g transform="translate(678.928313 261.955) scale(0.16 -0.16)">
       <defs>
        <path id="DejaVuSans-39" d="M 703 97 
L 703 672 
Q 941 559 1184 500 
Q 1428 441 1663 441 
Q 2288 441 2617 861 
Q 2947 1281 2994 2138 
Q 2813 1869 2534 1725 
Q 2256 1581 1919 1581 
Q 1219 1581 811 2004 
Q 403 2428 403 3163 
Q 403 3881 828 4315 
Q 1253 4750 1959 4750 
Q 2769 4750 3195 4129 
Q 3622 3509 3622 2328 
Q 3622 1225 3098 567 
Q 2575 -91 1691 -91 
Q 1453 -91 1209 -44 
Q 966 3 703 97 
z
M 1959 2075 
Q 2384 2075 2632 2365 
Q 2881 2656 2881 3163 
Q 2881 3666 2632 3958 
Q 2384 4250 1959 4250 
Q 1534 4250 1286 3958 
Q 1038 3666 1038 3163 
Q 1038 2656 1286 2365 
Q 1534 2075 1959 2075 
z
" transform="scale(0.015625)"/>
       </defs>
       <use xlink:href="#DejaVuSans-74"/>
       <use xlink:href="#DejaVuSans-72" x="39.208984"/>
       <use xlink:href="#DejaVuSans-61" x="80.322266"/>
       <use xlink:href="#DejaVuSans-63" x="141.601562"/>
       <use xlink:href="#DejaVuSans-65" x="196.582031"/>
       <use xlink:href="#DejaVuSans-39" x="258.105469"/>
      </g>
     </g>
    </g>
    <g id="xtick_10">
     <g id="line2d_19">
      <path d="M 777.506224 242.7975 
L 777.506224 25.3575 
" clip-path="url(#pe6ff8e1e10)" style="fill: none; stroke: #b0b0b0; stroke-width: 0.8; stroke-linecap: square"/>
     </g>
     <g id="line2d_20">
      <g>
       <use xlink:href="#m7da8ca9938" x="777.506224" y="242.7975" style="stroke: #000000; stroke-width: 0.8"/>
      </g>
     </g>
     <g id="text_10">
      <!-- trace10 -->
      <g transform="translate(746.677474 261.955) scale(0.16 -0.16)">
       <defs>
        <path id="DejaVuSans-30" d="M 2034 4250 
Q 1547 4250 1301 3770 
Q 1056 3291 1056 2328 
Q 1056 1369 1301 889 
Q 1547 409 2034 409 
Q 2525 409 2770 889 
Q 3016 1369 3016 2328 
Q 3016 3291 2770 3770 
Q 2525 4250 2034 4250 
z
M 2034 4750 
Q 2819 4750 3233 4129 
Q 3647 3509 3647 2328 
Q 3647 1150 3233 529 
Q 2819 -91 2034 -91 
Q 1250 -91 836 529 
Q 422 1150 422 2328 
Q 422 3509 836 4129 
Q 1250 4750 2034 4750 
z
" transform="scale(0.015625)"/>
       </defs>
       <use xlink:href="#DejaVuSans-74"/>
       <use xlink:href="#DejaVuSans-72" x="39.208984"/>
       <use xlink:href="#DejaVuSans-61" x="80.322266"/>
       <use xlink:href="#DejaVuSans-63" x="141.601562"/>
       <use xlink:href="#DejaVuSans-65" x="196.582031"/>
       <use xlink:href="#DejaVuSans-31" x="258.105469"/>
       <use xlink:href="#DejaVuSans-30" x="321.728516"/>
      </g>
     </g>
    </g>
    <g id="text_11">
     <!-- Harvesting Scenario -->
     <g transform="translate(368.86875 281.44) scale(0.16 -0.16)">
      <defs>
       <path id="DejaVuSans-48" d="M 628 4666 
L 1259 4666 
L 1259 2753 
L 3553 2753 
L 3553 4666 
L 4184 4666 
L 4184 0 
L 3553 0 
L 3553 2222 
L 1259 2222 
L 1259 0 
L 628 0 
L 628 4666 
z
" transform="scale(0.015625)"/>
       <path id="DejaVuSans-76" d="M 191 3500 
L 800 3500 
L 1894 563 
L 2988 3500 
L 3597 3500 
L 2284 0 
L 1503 0 
L 191 3500 
z
" transform="scale(0.015625)"/>
       <path id="DejaVuSans-73" d="M 2834 3397 
L 2834 2853 
Q 2591 2978 2328 3040 
Q 2066 3103 1784 3103 
Q 1356 3103 1142 2972 
Q 928 2841 928 2578 
Q 928 2378 1081 2264 
Q 1234 2150 1697 2047 
L 1894 2003 
Q 2506 1872 2764 1633 
Q 3022 1394 3022 966 
Q 3022 478 2636 193 
Q 2250 -91 1575 -91 
Q 1294 -91 989 -36 
Q 684 19 347 128 
L 347 722 
Q 666 556 975 473 
Q 1284 391 1588 391 
Q 1994 391 2212 530 
Q 2431 669 2431 922 
Q 2431 1156 2273 1281 
Q 2116 1406 1581 1522 
L 1381 1569 
Q 847 1681 609 1914 
Q 372 2147 372 2553 
Q 372 3047 722 3315 
Q 1072 3584 1716 3584 
Q 2034 3584 2315 3537 
Q 2597 3491 2834 3397 
z
" transform="scale(0.015625)"/>
       <path id="DejaVuSans-69" d="M 603 3500 
L 1178 3500 
L 1178 0 
L 603 0 
L 603 3500 
z
M 603 4863 
L 1178 4863 
L 1178 4134 
L 603 4134 
L 603 4863 
z
" transform="scale(0.015625)"/>
       <path id="DejaVuSans-6e" d="M 3513 2113 
L 3513 0 
L 2938 0 
L 2938 2094 
Q 2938 2591 2744 2837 
Q 2550 3084 2163 3084 
Q 1697 3084 1428 2787 
Q 1159 2491 1159 1978 
L 1159 0 
L 581 0 
L 581 3500 
L 1159 3500 
L 1159 2956 
Q 1366 3272 1645 3428 
Q 1925 3584 2291 3584 
Q 2894 3584 3203 3211 
Q 3513 2838 3513 2113 
z
" transform="scale(0.015625)"/>
       <path id="DejaVuSans-67" d="M 2906 1791 
Q 2906 2416 2648 2759 
Q 2391 3103 1925 3103 
Q 1463 3103 1205 2759 
Q 947 2416 947 1791 
Q 947 1169 1205 825 
Q 1463 481 1925 481 
Q 2391 481 2648 825 
Q 2906 1169 2906 1791 
z
M 3481 434 
Q 3481 -459 3084 -895 
Q 2688 -1331 1869 -1331 
Q 1566 -1331 1297 -1286 
Q 1028 -1241 775 -1147 
L 775 -588 
Q 1028 -725 1275 -790 
Q 1522 -856 1778 -856 
Q 2344 -856 2625 -561 
Q 2906 -266 2906 331 
L 2906 616 
Q 2728 306 2450 153 
Q 2172 0 1784 0 
Q 1141 0 747 490 
Q 353 981 353 1791 
Q 353 2603 747 3093 
Q 1141 3584 1784 3584 
Q 2172 3584 2450 3431 
Q 2728 3278 2906 2969 
L 2906 3500 
L 3481 3500 
L 3481 434 
z
" transform="scale(0.015625)"/>
       <path id="DejaVuSans-20" transform="scale(0.015625)"/>
       <path id="DejaVuSans-53" d="M 3425 4513 
L 3425 3897 
Q 3066 4069 2747 4153 
Q 2428 4238 2131 4238 
Q 1616 4238 1336 4038 
Q 1056 3838 1056 3469 
Q 1056 3159 1242 3001 
Q 1428 2844 1947 2747 
L 2328 2669 
Q 3034 2534 3370 2195 
Q 3706 1856 3706 1288 
Q 3706 609 3251 259 
Q 2797 -91 1919 -91 
Q 1588 -91 1214 -16 
Q 841 59 441 206 
L 441 856 
Q 825 641 1194 531 
Q 1563 422 1919 422 
Q 2459 422 2753 634 
Q 3047 847 3047 1241 
Q 3047 1584 2836 1778 
Q 2625 1972 2144 2069 
L 1759 2144 
Q 1053 2284 737 2584 
Q 422 2884 422 3419 
Q 422 4038 858 4394 
Q 1294 4750 2059 4750 
Q 2388 4750 2728 4690 
Q 3069 4631 3425 4513 
z
" transform="scale(0.015625)"/>
       <path id="DejaVuSans-6f" d="M 1959 3097 
Q 1497 3097 1228 2736 
Q 959 2375 959 1747 
Q 959 1119 1226 758 
Q 1494 397 1959 397 
Q 2419 397 2687 759 
Q 2956 1122 2956 1747 
Q 2956 2369 2687 2733 
Q 2419 3097 1959 3097 
z
M 1959 3584 
Q 2709 3584 3137 3096 
Q 3566 2609 3566 1747 
Q 3566 888 3137 398 
Q 2709 -91 1959 -91 
Q 1206 -91 779 398 
Q 353 888 353 1747 
Q 353 2609 779 3096 
Q 1206 3584 1959 3584 
z
" transform="scale(0.015625)"/>
      </defs>
      <use xlink:href="#DejaVuSans-48"/>
      <use xlink:href="#DejaVuSans-61" x="75.195312"/>
      <use xlink:href="#DejaVuSans-72" x="136.474609"/>
      <use xlink:href="#DejaVuSans-76" x="177.587891"/>
      <use xlink:href="#DejaVuSans-65" x="236.767578"/>
      <use xlink:href="#DejaVuSans-73" x="298.291016"/>
      <use xlink:href="#DejaVuSans-74" x="350.390625"/>
      <use xlink:href="#DejaVuSans-69" x="389.599609"/>
      <use xlink:href="#DejaVuSans-6e" x="417.382812"/>
      <use xlink:href="#DejaVuSans-67" x="480.761719"/>
      <use xlink:href="#DejaVuSans-20" x="544.238281"/>
      <use xlink:href="#DejaVuSans-53" x="576.025391"/>
      <use xlink:href="#DejaVuSans-63" x="639.501953"/>
      <use xlink:href="#DejaVuSans-65" x="694.482422"/>
      <use xlink:href="#DejaVuSans-6e" x="756.005859"/>
      <use xlink:href="#DejaVuSans-61" x="819.384766"/>
      <use xlink:href="#DejaVuSans-72" x="880.664062"/>
      <use xlink:href="#DejaVuSans-69" x="921.777344"/>
      <use xlink:href="#DejaVuSans-6f" x="949.560547"/>
     </g>
    </g>
   </g>
   <g id="matplotlib.axis_2">
    <g id="ytick_1">
     <g id="line2d_21">
      <path d="M 59.13 242.7975 
L 840.33 242.7975 
" clip-path="url(#pe6ff8e1e10)" style="fill: none; stroke: #b0b0b0; stroke-width: 0.8; stroke-linecap: square"/>
     </g>
     <g id="line2d_22">
      <defs>
       <path id="m618c4863e8" d="M 0 0 
L -3.5 0 
" style="stroke: #000000; stroke-width: 0.8"/>
      </defs>
      <g>
       <use xlink:href="#m618c4863e8" x="59.13" y="242.7975" style="stroke: #000000; stroke-width: 0.8"/>
      </g>
     </g>
     <g id="text_12">
      <!-- 0.0 -->
      <g transform="translate(26.685 248.87625) scale(0.16 -0.16)">
       <defs>
        <path id="DejaVuSans-2e" d="M 684 794 
L 1344 794 
L 1344 0 
L 684 0 
L 684 794 
z
" transform="scale(0.015625)"/>
       </defs>
       <use xlink:href="#DejaVuSans-30"/>
       <use xlink:href="#DejaVuSans-2e" x="63.623047"/>
       <use xlink:href="#DejaVuSans-30" x="95.410156"/>
      </g>
     </g>
    </g>
    <g id="ytick_2">
     <g id="line2d_23">
      <path d="M 59.13 201.281363 
L 840.33 201.281363 
" clip-path="url(#pe6ff8e1e10)" style="fill: none; stroke: #b0b0b0; stroke-width: 0.8; stroke-linecap: square"/>
     </g>
     <g id="line2d_24">
      <g>
       <use xlink:href="#m618c4863e8" x="59.13" y="201.281363" style="stroke: #000000; stroke-width: 0.8"/>
      </g>
     </g>
     <g id="text_13">
      <!-- 0.2 -->
      <g transform="translate(26.685 207.360113) scale(0.16 -0.16)">
       <use xlink:href="#DejaVuSans-30"/>
       <use xlink:href="#DejaVuSans-2e" x="63.623047"/>
       <use xlink:href="#DejaVuSans-32" x="95.410156"/>
      </g>
     </g>
    </g>
    <g id="ytick_3">
     <g id="line2d_25">
      <path d="M 59.13 159.765226 
L 840.33 159.765226 
" clip-path="url(#pe6ff8e1e10)" style="fill: none; stroke: #b0b0b0; stroke-width: 0.8; stroke-linecap: square"/>
     </g>
     <g id="line2d_26">
      <g>
       <use xlink:href="#m618c4863e8" x="59.13" y="159.765226" style="stroke: #000000; stroke-width: 0.8"/>
      </g>
     </g>
     <g id="text_14">
      <!-- 0.4 -->
      <g transform="translate(26.685 165.843976) scale(0.16 -0.16)">
       <use xlink:href="#DejaVuSans-30"/>
       <use xlink:href="#DejaVuSans-2e" x="63.623047"/>
       <use xlink:href="#DejaVuSans-34" x="95.410156"/>
      </g>
     </g>
    </g>
    <g id="ytick_4">
     <g id="line2d_27">
      <path d="M 59.13 118.249089 
L 840.33 118.249089 
" clip-path="url(#pe6ff8e1e10)" style="fill: none; stroke: #b0b0b0; stroke-width: 0.8; stroke-linecap: square"/>
     </g>
     <g id="line2d_28">
      <g>
       <use xlink:href="#m618c4863e8" x="59.13" y="118.249089" style="stroke: #000000; stroke-width: 0.8"/>
      </g>
     </g>
     <g id="text_15">
      <!-- 0.6 -->
      <g transform="translate(26.685 124.327839) scale(0.16 -0.16)">
       <use xlink:href="#DejaVuSans-30"/>
       <use xlink:href="#DejaVuSans-2e" x="63.623047"/>
       <use xlink:href="#DejaVuSans-36" x="95.410156"/>
      </g>
     </g>
    </g>
    <g id="ytick_5">
     <g id="line2d_29">
      <path d="M 59.13 76.732952 
L 840.33 76.732952 
" clip-path="url(#pe6ff8e1e10)" style="fill: none; stroke: #b0b0b0; stroke-width: 0.8; stroke-linecap: square"/>
     </g>
     <g id="line2d_30">
      <g>
       <use xlink:href="#m618c4863e8" x="59.13" y="76.732952" style="stroke: #000000; stroke-width: 0.8"/>
      </g>
     </g>
     <g id="text_16">
      <!-- 0.8 -->
      <g transform="translate(26.685 82.811702) scale(0.16 -0.16)">
       <use xlink:href="#DejaVuSans-30"/>
       <use xlink:href="#DejaVuSans-2e" x="63.623047"/>
       <use xlink:href="#DejaVuSans-38" x="95.410156"/>
      </g>
     </g>
    </g>
    <g id="ytick_6">
     <g id="line2d_31">
      <path d="M 59.13 35.216815 
L 840.33 35.216815 
" clip-path="url(#pe6ff8e1e10)" style="fill: none; stroke: #b0b0b0; stroke-width: 0.8; stroke-linecap: square"/>
     </g>
     <g id="line2d_32">
      <g>
       <use xlink:href="#m618c4863e8" x="59.13" y="35.216815" style="stroke: #000000; stroke-width: 0.8"/>
      </g>
     </g>
     <g id="text_17">
      <!-- 1.0 -->
      <g transform="translate(26.685 41.295565) scale(0.16 -0.16)">
       <use xlink:href="#DejaVuSans-31"/>
       <use xlink:href="#DejaVuSans-2e" x="63.623047"/>
       <use xlink:href="#DejaVuSans-30" x="95.410156"/>
      </g>
     </g>
    </g>
    <g id="text_18">
     <!-- Correlation coefficient -->
     <g transform="translate(19.3575 222.55125) rotate(-90) scale(0.16 -0.16)">
      <defs>
       <path id="DejaVuSans-43" d="M 4122 4306 
L 4122 3641 
Q 3803 3938 3442 4084 
Q 3081 4231 2675 4231 
Q 1875 4231 1450 3742 
Q 1025 3253 1025 2328 
Q 1025 1406 1450 917 
Q 1875 428 2675 428 
Q 3081 428 3442 575 
Q 3803 722 4122 1019 
L 4122 359 
Q 3791 134 3420 21 
Q 3050 -91 2638 -91 
Q 1578 -91 968 557 
Q 359 1206 359 2328 
Q 359 3453 968 4101 
Q 1578 4750 2638 4750 
Q 3056 4750 3426 4639 
Q 3797 4528 4122 4306 
z
" transform="scale(0.015625)"/>
       <path id="DejaVuSans-6c" d="M 603 4863 
L 1178 4863 
L 1178 0 
L 603 0 
L 603 4863 
z
" transform="scale(0.015625)"/>
       <path id="DejaVuSans-66" d="M 2375 4863 
L 2375 4384 
L 1825 4384 
Q 1516 4384 1395 4259 
Q 1275 4134 1275 3809 
L 1275 3500 
L 2222 3500 
L 2222 3053 
L 1275 3053 
L 1275 0 
L 697 0 
L 697 3053 
L 147 3053 
L 147 3500 
L 697 3500 
L 697 3744 
Q 697 4328 969 4595 
Q 1241 4863 1831 4863 
L 2375 4863 
z
" transform="scale(0.015625)"/>
      </defs>
      <use xlink:href="#DejaVuSans-43"/>
      <use xlink:href="#DejaVuSans-6f" x="69.824219"/>
      <use xlink:href="#DejaVuSans-72" x="131.005859"/>
      <use xlink:href="#DejaVuSans-72" x="170.369141"/>
      <use xlink:href="#DejaVuSans-65" x="209.232422"/>
      <use xlink:href="#DejaVuSans-6c" x="270.755859"/>
      <use xlink:href="#DejaVuSans-61" x="298.539062"/>
      <use xlink:href="#DejaVuSans-74" x="359.818359"/>
      <use xlink:href="#DejaVuSans-69" x="399.027344"/>
      <use xlink:href="#DejaVuSans-6f" x="426.810547"/>
      <use xlink:href="#DejaVuSans-6e" x="487.992188"/>
      <use xlink:href="#DejaVuSans-20" x="551.371094"/>
      <use xlink:href="#DejaVuSans-63" x="583.158203"/>
      <use xlink:href="#DejaVuSans-6f" x="638.138672"/>
      <use xlink:href="#DejaVuSans-65" x="699.320312"/>
      <use xlink:href="#DejaVuSans-66" x="760.84375"/>
      <use xlink:href="#DejaVuSans-66" x="796.048828"/>
      <use xlink:href="#DejaVuSans-69" x="831.253906"/>
      <use xlink:href="#DejaVuSans-63" x="859.037109"/>
      <use xlink:href="#DejaVuSans-69" x="914.017578"/>
      <use xlink:href="#DejaVuSans-65" x="941.800781"/>
      <use xlink:href="#DejaVuSans-6e" x="1003.324219"/>
      <use xlink:href="#DejaVuSans-74" x="1066.703125"/>
     </g>
    </g>
   </g>
   <g id="patch_33">
    <path d="M 59.13 242.7975 
L 59.13 25.3575 
" style="fill: none; stroke: #000000; stroke-width: 0.8; stroke-linejoin: miter; stroke-linecap: square"/>
   </g>
   <g id="patch_34">
    <path d="M 840.33 242.7975 
L 840.33 25.3575 
" style="fill: none; stroke: #000000; stroke-width: 0.8; stroke-linejoin: miter; stroke-linecap: square"/>
   </g>
   <g id="patch_35">
    <path d="M 59.13 242.7975 
L 840.33 242.7975 
" style="fill: none; stroke: #000000; stroke-width: 0.8; stroke-linejoin: miter; stroke-linecap: square"/>
   </g>
   <g id="patch_36">
    <path d="M 59.13 25.3575 
L 840.33 25.3575 
" style="fill: none; stroke: #000000; stroke-width: 0.8; stroke-linejoin: miter; stroke-linecap: square"/>
   </g>
   <g id="text_19">
    <!-- Correlation Voltage Trace Oscillations and Power Consumption -->
    <g transform="translate(200.99375 19.3575) scale(0.16 -0.16)">
     <defs>
      <path id="DejaVuSans-56" d="M 1831 0 
L 50 4666 
L 709 4666 
L 2188 738 
L 3669 4666 
L 4325 4666 
L 2547 0 
L 1831 0 
z
" transform="scale(0.015625)"/>
      <path id="DejaVuSans-54" d="M -19 4666 
L 3928 4666 
L 3928 4134 
L 2272 4134 
L 2272 0 
L 1638 0 
L 1638 4134 
L -19 4134 
L -19 4666 
z
" transform="scale(0.015625)"/>
      <path id="DejaVuSans-4f" d="M 2522 4238 
Q 1834 4238 1429 3725 
Q 1025 3213 1025 2328 
Q 1025 1447 1429 934 
Q 1834 422 2522 422 
Q 3209 422 3611 934 
Q 4013 1447 4013 2328 
Q 4013 3213 3611 3725 
Q 3209 4238 2522 4238 
z
M 2522 4750 
Q 3503 4750 4090 4092 
Q 4678 3434 4678 2328 
Q 4678 1225 4090 567 
Q 3503 -91 2522 -91 
Q 1538 -91 948 565 
Q 359 1222 359 2328 
Q 359 3434 948 4092 
Q 1538 4750 2522 4750 
z
" transform="scale(0.015625)"/>
      <path id="DejaVuSans-64" d="M 2906 2969 
L 2906 4863 
L 3481 4863 
L 3481 0 
L 2906 0 
L 2906 525 
Q 2725 213 2448 61 
Q 2172 -91 1784 -91 
Q 1150 -91 751 415 
Q 353 922 353 1747 
Q 353 2572 751 3078 
Q 1150 3584 1784 3584 
Q 2172 3584 2448 3432 
Q 2725 3281 2906 2969 
z
M 947 1747 
Q 947 1113 1208 752 
Q 1469 391 1925 391 
Q 2381 391 2643 752 
Q 2906 1113 2906 1747 
Q 2906 2381 2643 2742 
Q 2381 3103 1925 3103 
Q 1469 3103 1208 2742 
Q 947 2381 947 1747 
z
" transform="scale(0.015625)"/>
      <path id="DejaVuSans-50" d="M 1259 4147 
L 1259 2394 
L 2053 2394 
Q 2494 2394 2734 2622 
Q 2975 2850 2975 3272 
Q 2975 3691 2734 3919 
Q 2494 4147 2053 4147 
L 1259 4147 
z
M 628 4666 
L 2053 4666 
Q 2838 4666 3239 4311 
Q 3641 3956 3641 3272 
Q 3641 2581 3239 2228 
Q 2838 1875 2053 1875 
L 1259 1875 
L 1259 0 
L 628 0 
L 628 4666 
z
" transform="scale(0.015625)"/>
      <path id="DejaVuSans-77" d="M 269 3500 
L 844 3500 
L 1563 769 
L 2278 3500 
L 2956 3500 
L 3675 769 
L 4391 3500 
L 4966 3500 
L 4050 0 
L 3372 0 
L 2619 2869 
L 1863 0 
L 1184 0 
L 269 3500 
z
" transform="scale(0.015625)"/>
      <path id="DejaVuSans-75" d="M 544 1381 
L 544 3500 
L 1119 3500 
L 1119 1403 
Q 1119 906 1312 657 
Q 1506 409 1894 409 
Q 2359 409 2629 706 
Q 2900 1003 2900 1516 
L 2900 3500 
L 3475 3500 
L 3475 0 
L 2900 0 
L 2900 538 
Q 2691 219 2414 64 
Q 2138 -91 1772 -91 
Q 1169 -91 856 284 
Q 544 659 544 1381 
z
M 1991 3584 
L 1991 3584 
z
" transform="scale(0.015625)"/>
      <path id="DejaVuSans-6d" d="M 3328 2828 
Q 3544 3216 3844 3400 
Q 4144 3584 4550 3584 
Q 5097 3584 5394 3201 
Q 5691 2819 5691 2113 
L 5691 0 
L 5113 0 
L 5113 2094 
Q 5113 2597 4934 2840 
Q 4756 3084 4391 3084 
Q 3944 3084 3684 2787 
Q 3425 2491 3425 1978 
L 3425 0 
L 2847 0 
L 2847 2094 
Q 2847 2600 2669 2842 
Q 2491 3084 2119 3084 
Q 1678 3084 1418 2786 
Q 1159 2488 1159 1978 
L 1159 0 
L 581 0 
L 581 3500 
L 1159 3500 
L 1159 2956 
Q 1356 3278 1631 3431 
Q 1906 3584 2284 3584 
Q 2666 3584 2933 3390 
Q 3200 3197 3328 2828 
z
" transform="scale(0.015625)"/>
      <path id="DejaVuSans-70" d="M 1159 525 
L 1159 -1331 
L 581 -1331 
L 581 3500 
L 1159 3500 
L 1159 2969 
Q 1341 3281 1617 3432 
Q 1894 3584 2278 3584 
Q 2916 3584 3314 3078 
Q 3713 2572 3713 1747 
Q 3713 922 3314 415 
Q 2916 -91 2278 -91 
Q 1894 -91 1617 61 
Q 1341 213 1159 525 
z
M 3116 1747 
Q 3116 2381 2855 2742 
Q 2594 3103 2138 3103 
Q 1681 3103 1420 2742 
Q 1159 2381 1159 1747 
Q 1159 1113 1420 752 
Q 1681 391 2138 391 
Q 2594 391 2855 752 
Q 3116 1113 3116 1747 
z
" transform="scale(0.015625)"/>
     </defs>
     <use xlink:href="#DejaVuSans-43"/>
     <use xlink:href="#DejaVuSans-6f" x="69.824219"/>
     <use xlink:href="#DejaVuSans-72" x="131.005859"/>
     <use xlink:href="#DejaVuSans-72" x="170.369141"/>
     <use xlink:href="#DejaVuSans-65" x="209.232422"/>
     <use xlink:href="#DejaVuSans-6c" x="270.755859"/>
     <use xlink:href="#DejaVuSans-61" x="298.539062"/>
     <use xlink:href="#DejaVuSans-74" x="359.818359"/>
     <use xlink:href="#DejaVuSans-69" x="399.027344"/>
     <use xlink:href="#DejaVuSans-6f" x="426.810547"/>
     <use xlink:href="#DejaVuSans-6e" x="487.992188"/>
     <use xlink:href="#DejaVuSans-20" x="551.371094"/>
     <use xlink:href="#DejaVuSans-56" x="583.158203"/>
     <use xlink:href="#DejaVuSans-6f" x="643.816406"/>
     <use xlink:href="#DejaVuSans-6c" x="704.998047"/>
     <use xlink:href="#DejaVuSans-74" x="732.78125"/>
     <use xlink:href="#DejaVuSans-61" x="771.990234"/>
     <use xlink:href="#DejaVuSans-67" x="833.269531"/>
     <use xlink:href="#DejaVuSans-65" x="896.746094"/>
     <use xlink:href="#DejaVuSans-20" x="958.269531"/>
     <use xlink:href="#DejaVuSans-54" x="990.056641"/>
     <use xlink:href="#DejaVuSans-72" x="1036.390625"/>
     <use xlink:href="#DejaVuSans-61" x="1077.503906"/>
     <use xlink:href="#DejaVuSans-63" x="1138.783203"/>
     <use xlink:href="#DejaVuSans-65" x="1193.763672"/>
     <use xlink:href="#DejaVuSans-20" x="1255.287109"/>
     <use xlink:href="#DejaVuSans-4f" x="1287.074219"/>
     <use xlink:href="#DejaVuSans-73" x="1365.785156"/>
     <use xlink:href="#DejaVuSans-63" x="1417.884766"/>
     <use xlink:href="#DejaVuSans-69" x="1472.865234"/>
     <use xlink:href="#DejaVuSans-6c" x="1500.648438"/>
     <use xlink:href="#DejaVuSans-6c" x="1528.431641"/>
     <use xlink:href="#DejaVuSans-61" x="1556.214844"/>
     <use xlink:href="#DejaVuSans-74" x="1617.494141"/>
     <use xlink:href="#DejaVuSans-69" x="1656.703125"/>
     <use xlink:href="#DejaVuSans-6f" x="1684.486328"/>
     <use xlink:href="#DejaVuSans-6e" x="1745.667969"/>
     <use xlink:href="#DejaVuSans-73" x="1809.046875"/>
     <use xlink:href="#DejaVuSans-20" x="1861.146484"/>
     <use xlink:href="#DejaVuSans-61" x="1892.933594"/>
     <use xlink:href="#DejaVuSans-6e" x="1954.212891"/>
     <use xlink:href="#DejaVuSans-64" x="2017.591797"/>
     <use xlink:href="#DejaVuSans-20" x="2081.068359"/>
     <use xlink:href="#DejaVuSans-50" x="2112.855469"/>
     <use xlink:href="#DejaVuSans-6f" x="2169.533203"/>
     <use xlink:href="#DejaVuSans-77" x="2230.714844"/>
     <use xlink:href="#DejaVuSans-65" x="2312.501953"/>
     <use xlink:href="#DejaVuSans-72" x="2374.025391"/>
     <use xlink:href="#DejaVuSans-20" x="2415.138672"/>
     <use xlink:href="#DejaVuSans-43" x="2446.925781"/>
     <use xlink:href="#DejaVuSans-6f" x="2516.75"/>
     <use xlink:href="#DejaVuSans-6e" x="2577.931641"/>
     <use xlink:href="#DejaVuSans-73" x="2641.310547"/>
     <use xlink:href="#DejaVuSans-75" x="2693.410156"/>
     <use xlink:href="#DejaVuSans-6d" x="2756.789062"/>
     <use xlink:href="#DejaVuSans-70" x="2854.201172"/>
     <use xlink:href="#DejaVuSans-74" x="2917.677734"/>
     <use xlink:href="#DejaVuSans-69" x="2956.886719"/>
     <use xlink:href="#DejaVuSans-6f" x="2984.669922"/>
     <use xlink:href="#DejaVuSans-6e" x="3045.851562"/>
    </g>
   </g>
   <g id="legend_1">
    <g id="patch_37">
     <path d="M 661.245625 77.391875 
L 833.33 77.391875 
Q 835.33 77.391875 835.33 75.391875 
L 835.33 32.3575 
Q 835.33 30.3575 833.33 30.3575 
L 661.245625 30.3575 
Q 659.245625 30.3575 659.245625 32.3575 
L 659.245625 75.391875 
Q 659.245625 77.391875 661.245625 77.391875 
z
" style="fill: #ffffff; opacity: 0.8; stroke: #cccccc; stroke-linejoin: miter"/>
    </g>
    <g id="patch_38">
     <path d="M 663.245625 41.955938 
L 683.245625 41.955938 
L 683.245625 34.955938 
L 663.245625 34.955938 
z
" style="fill: #1f77b4"/>
    </g>
    <g id="text_20">
     <!-- NVM LATENCY FACTOR=2 -->
     <g transform="translate(691.245625 41.955938) scale(0.1 -0.1)">
      <defs>
       <path id="DejaVuSans-4e" d="M 628 4666 
L 1478 4666 
L 3547 763 
L 3547 4666 
L 4159 4666 
L 4159 0 
L 3309 0 
L 1241 3903 
L 1241 0 
L 628 0 
L 628 4666 
z
" transform="scale(0.015625)"/>
       <path id="DejaVuSans-4d" d="M 628 4666 
L 1569 4666 
L 2759 1491 
L 3956 4666 
L 4897 4666 
L 4897 0 
L 4281 0 
L 4281 4097 
L 3078 897 
L 2444 897 
L 1241 4097 
L 1241 0 
L 628 0 
L 628 4666 
z
" transform="scale(0.015625)"/>
       <path id="DejaVuSans-4c" d="M 628 4666 
L 1259 4666 
L 1259 531 
L 3531 531 
L 3531 0 
L 628 0 
L 628 4666 
z
" transform="scale(0.015625)"/>
       <path id="DejaVuSans-41" d="M 2188 4044 
L 1331 1722 
L 3047 1722 
L 2188 4044 
z
M 1831 4666 
L 2547 4666 
L 4325 0 
L 3669 0 
L 3244 1197 
L 1141 1197 
L 716 0 
L 50 0 
L 1831 4666 
z
" transform="scale(0.015625)"/>
       <path id="DejaVuSans-45" d="M 628 4666 
L 3578 4666 
L 3578 4134 
L 1259 4134 
L 1259 2753 
L 3481 2753 
L 3481 2222 
L 1259 2222 
L 1259 531 
L 3634 531 
L 3634 0 
L 628 0 
L 628 4666 
z
" transform="scale(0.015625)"/>
       <path id="DejaVuSans-59" d="M -13 4666 
L 666 4666 
L 1959 2747 
L 3244 4666 
L 3922 4666 
L 2272 2222 
L 2272 0 
L 1638 0 
L 1638 2222 
L -13 4666 
z
" transform="scale(0.015625)"/>
       <path id="DejaVuSans-46" d="M 628 4666 
L 3309 4666 
L 3309 4134 
L 1259 4134 
L 1259 2759 
L 3109 2759 
L 3109 2228 
L 1259 2228 
L 1259 0 
L 628 0 
L 628 4666 
z
" transform="scale(0.015625)"/>
       <path id="DejaVuSans-52" d="M 2841 2188 
Q 3044 2119 3236 1894 
Q 3428 1669 3622 1275 
L 4263 0 
L 3584 0 
L 2988 1197 
Q 2756 1666 2539 1819 
Q 2322 1972 1947 1972 
L 1259 1972 
L 1259 0 
L 628 0 
L 628 4666 
L 2053 4666 
Q 2853 4666 3247 4331 
Q 3641 3997 3641 3322 
Q 3641 2881 3436 2590 
Q 3231 2300 2841 2188 
z
M 1259 4147 
L 1259 2491 
L 2053 2491 
Q 2509 2491 2742 2702 
Q 2975 2913 2975 3322 
Q 2975 3731 2742 3939 
Q 2509 4147 2053 4147 
L 1259 4147 
z
" transform="scale(0.015625)"/>
       <path id="DejaVuSans-3d" d="M 678 2906 
L 4684 2906 
L 4684 2381 
L 678 2381 
L 678 2906 
z
M 678 1631 
L 4684 1631 
L 4684 1100 
L 678 1100 
L 678 1631 
z
" transform="scale(0.015625)"/>
      </defs>
      <use xlink:href="#DejaVuSans-4e"/>
      <use xlink:href="#DejaVuSans-56" x="74.804688"/>
      <use xlink:href="#DejaVuSans-4d" x="143.212891"/>
      <use xlink:href="#DejaVuSans-20" x="229.492188"/>
      <use xlink:href="#DejaVuSans-4c" x="261.279297"/>
      <use xlink:href="#DejaVuSans-41" x="319.242188"/>
      <use xlink:href="#DejaVuSans-54" x="379.900391"/>
      <use xlink:href="#DejaVuSans-45" x="440.984375"/>
      <use xlink:href="#DejaVuSans-4e" x="504.167969"/>
      <use xlink:href="#DejaVuSans-43" x="578.972656"/>
      <use xlink:href="#DejaVuSans-59" x="647.046875"/>
      <use xlink:href="#DejaVuSans-20" x="708.130859"/>
      <use xlink:href="#DejaVuSans-46" x="739.917969"/>
      <use xlink:href="#DejaVuSans-41" x="788.3125"/>
      <use xlink:href="#DejaVuSans-43" x="854.970703"/>
      <use xlink:href="#DejaVuSans-54" x="924.794922"/>
      <use xlink:href="#DejaVuSans-4f" x="985.878906"/>
      <use xlink:href="#DejaVuSans-52" x="1064.589844"/>
      <use xlink:href="#DejaVuSans-3d" x="1134.072266"/>
      <use xlink:href="#DejaVuSans-32" x="1217.861328"/>
     </g>
    </g>
    <g id="patch_39">
     <path d="M 663.245625 56.634063 
L 683.245625 56.634063 
L 683.245625 49.634063 
L 663.245625 49.634063 
z
" style="fill: #ff7f0e"/>
    </g>
    <g id="text_21">
     <!-- NVM LATENCY FACTOR=5 -->
     <g transform="translate(691.245625 56.634063) scale(0.1 -0.1)">
      <use xlink:href="#DejaVuSans-4e"/>
      <use xlink:href="#DejaVuSans-56" x="74.804688"/>
      <use xlink:href="#DejaVuSans-4d" x="143.212891"/>
      <use xlink:href="#DejaVuSans-20" x="229.492188"/>
      <use xlink:href="#DejaVuSans-4c" x="261.279297"/>
      <use xlink:href="#DejaVuSans-41" x="319.242188"/>
      <use xlink:href="#DejaVuSans-54" x="379.900391"/>
      <use xlink:href="#DejaVuSans-45" x="440.984375"/>
      <use xlink:href="#DejaVuSans-4e" x="504.167969"/>
      <use xlink:href="#DejaVuSans-43" x="578.972656"/>
      <use xlink:href="#DejaVuSans-59" x="647.046875"/>
      <use xlink:href="#DejaVuSans-20" x="708.130859"/>
      <use xlink:href="#DejaVuSans-46" x="739.917969"/>
      <use xlink:href="#DejaVuSans-41" x="788.3125"/>
      <use xlink:href="#DejaVuSans-43" x="854.970703"/>
      <use xlink:href="#DejaVuSans-54" x="924.794922"/>
      <use xlink:href="#DejaVuSans-4f" x="985.878906"/>
      <use xlink:href="#DejaVuSans-52" x="1064.589844"/>
      <use xlink:href="#DejaVuSans-3d" x="1134.072266"/>
      <use xlink:href="#DejaVuSans-35" x="1217.861328"/>
     </g>
    </g>
    <g id="patch_40">
     <path d="M 663.245625 71.312188 
L 683.245625 71.312188 
L 683.245625 64.312188 
L 663.245625 64.312188 
z
" style="fill: #2ca02c"/>
    </g>
    <g id="text_22">
     <!-- NVM LATENCY FACTOR=L11 -->
     <g transform="translate(691.245625 71.312188) scale(0.1 -0.1)">
      <use xlink:href="#DejaVuSans-4e"/>
      <use xlink:href="#DejaVuSans-56" x="74.804688"/>
      <use xlink:href="#DejaVuSans-4d" x="143.212891"/>
      <use xlink:href="#DejaVuSans-20" x="229.492188"/>
      <use xlink:href="#DejaVuSans-4c" x="261.279297"/>
      <use xlink:href="#DejaVuSans-41" x="319.242188"/>
      <use xlink:href="#DejaVuSans-54" x="379.900391"/>
      <use xlink:href="#DejaVuSans-45" x="440.984375"/>
      <use xlink:href="#DejaVuSans-4e" x="504.167969"/>
      <use xlink:href="#DejaVuSans-43" x="578.972656"/>
      <use xlink:href="#DejaVuSans-59" x="647.046875"/>
      <use xlink:href="#DejaVuSans-20" x="708.130859"/>
      <use xlink:href="#DejaVuSans-46" x="739.917969"/>
      <use xlink:href="#DejaVuSans-41" x="788.3125"/>
      <use xlink:href="#DejaVuSans-43" x="854.970703"/>
      <use xlink:href="#DejaVuSans-54" x="924.794922"/>
      <use xlink:href="#DejaVuSans-4f" x="985.878906"/>
      <use xlink:href="#DejaVuSans-52" x="1064.589844"/>
      <use xlink:href="#DejaVuSans-3d" x="1134.072266"/>
      <use xlink:href="#DejaVuSans-4c" x="1217.861328"/>
      <use xlink:href="#DejaVuSans-31" x="1273.574219"/>
      <use xlink:href="#DejaVuSans-31" x="1337.197266"/>
     </g>
    </g>
   </g>
  </g>
 </g>
 <defs>
  <clipPath id="pe6ff8e1e10">
   <rect x="59.13" y="25.3575" width="781.2" height="217.44"/>
  </clipPath>
 </defs>
</svg>
