<?xml version="1.0" encoding="utf-8" standalone="no"?>
<!DOCTYPE svg PUBLIC "-//W3C//DTD SVG 1.1//EN"
  "http://www.w3.org/Graphics/SVG/1.1/DTD/svg11.dtd">
<svg xmlns:xlink="http://www.w3.org/1999/xlink" width="720pt" height="432pt" viewBox="0 0 720 432" xmlns="http://www.w3.org/2000/svg" version="1.1">
 <metadata>
  <rdf:RDF xmlns:dc="http://purl.org/dc/elements/1.1/" xmlns:cc="http://creativecommons.org/ns#" xmlns:rdf="http://www.w3.org/1999/02/22-rdf-syntax-ns#">
   <cc:Work>
    <dc:type rdf:resource="http://purl.org/dc/dcmitype/StillImage"/>
    <dc:date>2023-06-05T08:32:28.757798</dc:date>
    <dc:format>image/svg+xml</dc:format>
    <dc:creator>
     <cc:Agent>
      <dc:title>Matplotlib v3.6.2, https://matplotlib.org/</dc:title>
     </cc:Agent>
    </dc:creator>
   </cc:Work>
  </rdf:RDF>
 </metadata>
 <defs>
  <style type="text/css">*{stroke-linejoin: round; stroke-linecap: butt}</style>
 </defs>
 <g id="figure_1">
  <g id="patch_1">
   <path d="M 0 432 
L 720 432 
L 720 0 
L 0 0 
z
" style="fill: #ffffff"/>
  </g>
  <g id="axes_1">
   <g id="patch_2">
    <path d="M 90 378 
L 648 378 
L 648 51.84 
L 90 51.84 
z
" style="fill: #ffffff"/>
   </g>
   <g id="matplotlib.axis_1">
    <g id="xtick_1">
     <g id="line2d_1">
      <defs>
       <path id="m5e1f668590" d="M 0 0 
L 0 3.5 
" style="stroke: #000000; stroke-width: 0.8"/>
      </defs>
      <g>
       <use xlink:href="#m5e1f668590" x="126.66147" y="378" style="stroke: #000000; stroke-width: 0.8"/>
      </g>
     </g>
     <g id="text_1">
      <!-- 2500 -->
      <g transform="translate(108.84647 395.637812) scale(0.14 -0.14)">
       <defs>
        <path id="DejaVuSans-32" d="M 1228 531 
L 3431 531 
L 3431 0 
L 469 0 
L 469 531 
Q 828 903 1448 1529 
Q 2069 2156 2228 2338 
Q 2531 2678 2651 2914 
Q 2772 3150 2772 3378 
Q 2772 3750 2511 3984 
Q 2250 4219 1831 4219 
Q 1534 4219 1204 4116 
Q 875 4013 500 3803 
L 500 4441 
Q 881 4594 1212 4672 
Q 1544 4750 1819 4750 
Q 2544 4750 2975 4387 
Q 3406 4025 3406 3419 
Q 3406 3131 3298 2873 
Q 3191 2616 2906 2266 
Q 2828 2175 2409 1742 
Q 1991 1309 1228 531 
z
" transform="scale(0.015625)"/>
        <path id="DejaVuSans-35" d="M 691 4666 
L 3169 4666 
L 3169 4134 
L 1269 4134 
L 1269 2991 
Q 1406 3038 1543 3061 
Q 1681 3084 1819 3084 
Q 2600 3084 3056 2656 
Q 3513 2228 3513 1497 
Q 3513 744 3044 326 
Q 2575 -91 1722 -91 
Q 1428 -91 1123 -41 
Q 819 9 494 109 
L 494 744 
Q 775 591 1075 516 
Q 1375 441 1709 441 
Q 2250 441 2565 725 
Q 2881 1009 2881 1497 
Q 2881 1984 2565 2268 
Q 2250 2553 1709 2553 
Q 1456 2553 1204 2497 
Q 953 2441 691 2322 
L 691 4666 
z
" transform="scale(0.015625)"/>
        <path id="DejaVuSans-30" d="M 2034 4250 
Q 1547 4250 1301 3770 
Q 1056 3291 1056 2328 
Q 1056 1369 1301 889 
Q 1547 409 2034 409 
Q 2525 409 2770 889 
Q 3016 1369 3016 2328 
Q 3016 3291 2770 3770 
Q 2525 4250 2034 4250 
z
M 2034 4750 
Q 2819 4750 3233 4129 
Q 3647 3509 3647 2328 
Q 3647 1150 3233 529 
Q 2819 -91 2034 -91 
Q 1250 -91 836 529 
Q 422 1150 422 2328 
Q 422 3509 836 4129 
Q 1250 4750 2034 4750 
z
" transform="scale(0.015625)"/>
       </defs>
       <use xlink:href="#DejaVuSans-32"/>
       <use xlink:href="#DejaVuSans-35" x="63.623047"/>
       <use xlink:href="#DejaVuSans-30" x="127.246094"/>
       <use xlink:href="#DejaVuSans-30" x="190.869141"/>
      </g>
     </g>
    </g>
    <g id="xtick_2">
     <g id="line2d_2">
      <g>
       <use xlink:href="#m5e1f668590" x="239.639806" y="378" style="stroke: #000000; stroke-width: 0.8"/>
      </g>
     </g>
     <g id="text_2">
      <!-- 3000 -->
      <g transform="translate(221.824806 395.637812) scale(0.14 -0.14)">
       <defs>
        <path id="DejaVuSans-33" d="M 2597 2516 
Q 3050 2419 3304 2112 
Q 3559 1806 3559 1356 
Q 3559 666 3084 287 
Q 2609 -91 1734 -91 
Q 1441 -91 1130 -33 
Q 819 25 488 141 
L 488 750 
Q 750 597 1062 519 
Q 1375 441 1716 441 
Q 2309 441 2620 675 
Q 2931 909 2931 1356 
Q 2931 1769 2642 2001 
Q 2353 2234 1838 2234 
L 1294 2234 
L 1294 2753 
L 1863 2753 
Q 2328 2753 2575 2939 
Q 2822 3125 2822 3475 
Q 2822 3834 2567 4026 
Q 2313 4219 1838 4219 
Q 1578 4219 1281 4162 
Q 984 4106 628 3988 
L 628 4550 
Q 988 4650 1302 4700 
Q 1616 4750 1894 4750 
Q 2613 4750 3031 4423 
Q 3450 4097 3450 3541 
Q 3450 3153 3228 2886 
Q 3006 2619 2597 2516 
z
" transform="scale(0.015625)"/>
       </defs>
       <use xlink:href="#DejaVuSans-33"/>
       <use xlink:href="#DejaVuSans-30" x="63.623047"/>
       <use xlink:href="#DejaVuSans-30" x="127.246094"/>
       <use xlink:href="#DejaVuSans-30" x="190.869141"/>
      </g>
     </g>
    </g>
    <g id="xtick_3">
     <g id="line2d_3">
      <g>
       <use xlink:href="#m5e1f668590" x="352.618141" y="378" style="stroke: #000000; stroke-width: 0.8"/>
      </g>
     </g>
     <g id="text_3">
      <!-- 3500 -->
      <g transform="translate(334.803141 395.637812) scale(0.14 -0.14)">
       <use xlink:href="#DejaVuSans-33"/>
       <use xlink:href="#DejaVuSans-35" x="63.623047"/>
       <use xlink:href="#DejaVuSans-30" x="127.246094"/>
       <use xlink:href="#DejaVuSans-30" x="190.869141"/>
      </g>
     </g>
    </g>
    <g id="xtick_4">
     <g id="line2d_4">
      <g>
       <use xlink:href="#m5e1f668590" x="465.596477" y="378" style="stroke: #000000; stroke-width: 0.8"/>
      </g>
     </g>
     <g id="text_4">
      <!-- 4000 -->
      <g transform="translate(447.781477 395.637812) scale(0.14 -0.14)">
       <defs>
        <path id="DejaVuSans-34" d="M 2419 4116 
L 825 1625 
L 2419 1625 
L 2419 4116 
z
M 2253 4666 
L 3047 4666 
L 3047 1625 
L 3713 1625 
L 3713 1100 
L 3047 1100 
L 3047 0 
L 2419 0 
L 2419 1100 
L 313 1100 
L 313 1709 
L 2253 4666 
z
" transform="scale(0.015625)"/>
       </defs>
       <use xlink:href="#DejaVuSans-34"/>
       <use xlink:href="#DejaVuSans-30" x="63.623047"/>
       <use xlink:href="#DejaVuSans-30" x="127.246094"/>
       <use xlink:href="#DejaVuSans-30" x="190.869141"/>
      </g>
     </g>
    </g>
    <g id="xtick_5">
     <g id="line2d_5">
      <g>
       <use xlink:href="#m5e1f668590" x="578.574813" y="378" style="stroke: #000000; stroke-width: 0.8"/>
      </g>
     </g>
     <g id="text_5">
      <!-- 4500 -->
      <g transform="translate(560.759813 395.637812) scale(0.14 -0.14)">
       <use xlink:href="#DejaVuSans-34"/>
       <use xlink:href="#DejaVuSans-35" x="63.623047"/>
       <use xlink:href="#DejaVuSans-30" x="127.246094"/>
       <use xlink:href="#DejaVuSans-30" x="190.869141"/>
      </g>
     </g>
    </g>
    <g id="text_6">
     <!-- Hazard Threshold [mV] -->
     <g transform="translate(276.73875 414.706875) scale(0.16 -0.16)">
      <defs>
       <path id="DejaVuSans-48" d="M 628 4666 
L 1259 4666 
L 1259 2753 
L 3553 2753 
L 3553 4666 
L 4184 4666 
L 4184 0 
L 3553 0 
L 3553 2222 
L 1259 2222 
L 1259 0 
L 628 0 
L 628 4666 
z
" transform="scale(0.015625)"/>
       <path id="DejaVuSans-61" d="M 2194 1759 
Q 1497 1759 1228 1600 
Q 959 1441 959 1056 
Q 959 750 1161 570 
Q 1363 391 1709 391 
Q 2188 391 2477 730 
Q 2766 1069 2766 1631 
L 2766 1759 
L 2194 1759 
z
M 3341 1997 
L 3341 0 
L 2766 0 
L 2766 531 
Q 2569 213 2275 61 
Q 1981 -91 1556 -91 
Q 1019 -91 701 211 
Q 384 513 384 1019 
Q 384 1609 779 1909 
Q 1175 2209 1959 2209 
L 2766 2209 
L 2766 2266 
Q 2766 2663 2505 2880 
Q 2244 3097 1772 3097 
Q 1472 3097 1187 3025 
Q 903 2953 641 2809 
L 641 3341 
Q 956 3463 1253 3523 
Q 1550 3584 1831 3584 
Q 2591 3584 2966 3190 
Q 3341 2797 3341 1997 
z
" transform="scale(0.015625)"/>
       <path id="DejaVuSans-7a" d="M 353 3500 
L 3084 3500 
L 3084 2975 
L 922 459 
L 3084 459 
L 3084 0 
L 275 0 
L 275 525 
L 2438 3041 
L 353 3041 
L 353 3500 
z
" transform="scale(0.015625)"/>
       <path id="DejaVuSans-72" d="M 2631 2963 
Q 2534 3019 2420 3045 
Q 2306 3072 2169 3072 
Q 1681 3072 1420 2755 
Q 1159 2438 1159 1844 
L 1159 0 
L 581 0 
L 581 3500 
L 1159 3500 
L 1159 2956 
Q 1341 3275 1631 3429 
Q 1922 3584 2338 3584 
Q 2397 3584 2469 3576 
Q 2541 3569 2628 3553 
L 2631 2963 
z
" transform="scale(0.015625)"/>
       <path id="DejaVuSans-64" d="M 2906 2969 
L 2906 4863 
L 3481 4863 
L 3481 0 
L 2906 0 
L 2906 525 
Q 2725 213 2448 61 
Q 2172 -91 1784 -91 
Q 1150 -91 751 415 
Q 353 922 353 1747 
Q 353 2572 751 3078 
Q 1150 3584 1784 3584 
Q 2172 3584 2448 3432 
Q 2725 3281 2906 2969 
z
M 947 1747 
Q 947 1113 1208 752 
Q 1469 391 1925 391 
Q 2381 391 2643 752 
Q 2906 1113 2906 1747 
Q 2906 2381 2643 2742 
Q 2381 3103 1925 3103 
Q 1469 3103 1208 2742 
Q 947 2381 947 1747 
z
" transform="scale(0.015625)"/>
       <path id="DejaVuSans-20" transform="scale(0.015625)"/>
       <path id="DejaVuSans-54" d="M -19 4666 
L 3928 4666 
L 3928 4134 
L 2272 4134 
L 2272 0 
L 1638 0 
L 1638 4134 
L -19 4134 
L -19 4666 
z
" transform="scale(0.015625)"/>
       <path id="DejaVuSans-68" d="M 3513 2113 
L 3513 0 
L 2938 0 
L 2938 2094 
Q 2938 2591 2744 2837 
Q 2550 3084 2163 3084 
Q 1697 3084 1428 2787 
Q 1159 2491 1159 1978 
L 1159 0 
L 581 0 
L 581 4863 
L 1159 4863 
L 1159 2956 
Q 1366 3272 1645 3428 
Q 1925 3584 2291 3584 
Q 2894 3584 3203 3211 
Q 3513 2838 3513 2113 
z
" transform="scale(0.015625)"/>
       <path id="DejaVuSans-65" d="M 3597 1894 
L 3597 1613 
L 953 1613 
Q 991 1019 1311 708 
Q 1631 397 2203 397 
Q 2534 397 2845 478 
Q 3156 559 3463 722 
L 3463 178 
Q 3153 47 2828 -22 
Q 2503 -91 2169 -91 
Q 1331 -91 842 396 
Q 353 884 353 1716 
Q 353 2575 817 3079 
Q 1281 3584 2069 3584 
Q 2775 3584 3186 3129 
Q 3597 2675 3597 1894 
z
M 3022 2063 
Q 3016 2534 2758 2815 
Q 2500 3097 2075 3097 
Q 1594 3097 1305 2825 
Q 1016 2553 972 2059 
L 3022 2063 
z
" transform="scale(0.015625)"/>
       <path id="DejaVuSans-73" d="M 2834 3397 
L 2834 2853 
Q 2591 2978 2328 3040 
Q 2066 3103 1784 3103 
Q 1356 3103 1142 2972 
Q 928 2841 928 2578 
Q 928 2378 1081 2264 
Q 1234 2150 1697 2047 
L 1894 2003 
Q 2506 1872 2764 1633 
Q 3022 1394 3022 966 
Q 3022 478 2636 193 
Q 2250 -91 1575 -91 
Q 1294 -91 989 -36 
Q 684 19 347 128 
L 347 722 
Q 666 556 975 473 
Q 1284 391 1588 391 
Q 1994 391 2212 530 
Q 2431 669 2431 922 
Q 2431 1156 2273 1281 
Q 2116 1406 1581 1522 
L 1381 1569 
Q 847 1681 609 1914 
Q 372 2147 372 2553 
Q 372 3047 722 3315 
Q 1072 3584 1716 3584 
Q 2034 3584 2315 3537 
Q 2597 3491 2834 3397 
z
" transform="scale(0.015625)"/>
       <path id="DejaVuSans-6f" d="M 1959 3097 
Q 1497 3097 1228 2736 
Q 959 2375 959 1747 
Q 959 1119 1226 758 
Q 1494 397 1959 397 
Q 2419 397 2687 759 
Q 2956 1122 2956 1747 
Q 2956 2369 2687 2733 
Q 2419 3097 1959 3097 
z
M 1959 3584 
Q 2709 3584 3137 3096 
Q 3566 2609 3566 1747 
Q 3566 888 3137 398 
Q 2709 -91 1959 -91 
Q 1206 -91 779 398 
Q 353 888 353 1747 
Q 353 2609 779 3096 
Q 1206 3584 1959 3584 
z
" transform="scale(0.015625)"/>
       <path id="DejaVuSans-6c" d="M 603 4863 
L 1178 4863 
L 1178 0 
L 603 0 
L 603 4863 
z
" transform="scale(0.015625)"/>
       <path id="DejaVuSans-5b" d="M 550 4863 
L 1875 4863 
L 1875 4416 
L 1125 4416 
L 1125 -397 
L 1875 -397 
L 1875 -844 
L 550 -844 
L 550 4863 
z
" transform="scale(0.015625)"/>
       <path id="DejaVuSans-6d" d="M 3328 2828 
Q 3544 3216 3844 3400 
Q 4144 3584 4550 3584 
Q 5097 3584 5394 3201 
Q 5691 2819 5691 2113 
L 5691 0 
L 5113 0 
L 5113 2094 
Q 5113 2597 4934 2840 
Q 4756 3084 4391 3084 
Q 3944 3084 3684 2787 
Q 3425 2491 3425 1978 
L 3425 0 
L 2847 0 
L 2847 2094 
Q 2847 2600 2669 2842 
Q 2491 3084 2119 3084 
Q 1678 3084 1418 2786 
Q 1159 2488 1159 1978 
L 1159 0 
L 581 0 
L 581 3500 
L 1159 3500 
L 1159 2956 
Q 1356 3278 1631 3431 
Q 1906 3584 2284 3584 
Q 2666 3584 2933 3390 
Q 3200 3197 3328 2828 
z
" transform="scale(0.015625)"/>
       <path id="DejaVuSans-56" d="M 1831 0 
L 50 4666 
L 709 4666 
L 2188 738 
L 3669 4666 
L 4325 4666 
L 2547 0 
L 1831 0 
z
" transform="scale(0.015625)"/>
       <path id="DejaVuSans-5d" d="M 1947 4863 
L 1947 -844 
L 622 -844 
L 622 -397 
L 1369 -397 
L 1369 4416 
L 622 4416 
L 622 4863 
L 1947 4863 
z
" transform="scale(0.015625)"/>
      </defs>
      <use xlink:href="#DejaVuSans-48"/>
      <use xlink:href="#DejaVuSans-61" x="75.195312"/>
      <use xlink:href="#DejaVuSans-7a" x="136.474609"/>
      <use xlink:href="#DejaVuSans-61" x="188.964844"/>
      <use xlink:href="#DejaVuSans-72" x="250.244141"/>
      <use xlink:href="#DejaVuSans-64" x="289.607422"/>
      <use xlink:href="#DejaVuSans-20" x="353.083984"/>
      <use xlink:href="#DejaVuSans-54" x="384.871094"/>
      <use xlink:href="#DejaVuSans-68" x="445.955078"/>
      <use xlink:href="#DejaVuSans-72" x="509.333984"/>
      <use xlink:href="#DejaVuSans-65" x="548.197266"/>
      <use xlink:href="#DejaVuSans-73" x="609.720703"/>
      <use xlink:href="#DejaVuSans-68" x="661.820312"/>
      <use xlink:href="#DejaVuSans-6f" x="725.199219"/>
      <use xlink:href="#DejaVuSans-6c" x="786.380859"/>
      <use xlink:href="#DejaVuSans-64" x="814.164062"/>
      <use xlink:href="#DejaVuSans-20" x="877.640625"/>
      <use xlink:href="#DejaVuSans-5b" x="909.427734"/>
      <use xlink:href="#DejaVuSans-6d" x="948.441406"/>
      <use xlink:href="#DejaVuSans-56" x="1045.853516"/>
      <use xlink:href="#DejaVuSans-5d" x="1114.261719"/>
     </g>
    </g>
   </g>
   <g id="matplotlib.axis_2">
    <g id="ytick_1">
     <g id="line2d_6">
      <defs>
       <path id="m0ad4b01fd2" d="M 0 0 
L -3.5 0 
" style="stroke: #000000; stroke-width: 0.8"/>
      </defs>
      <g>
       <use xlink:href="#m0ad4b01fd2" x="90" y="341.45703" style="stroke: #000000; stroke-width: 0.8"/>
      </g>
     </g>
     <g id="text_7">
      <!-- 10 -->
      <g transform="translate(65.185 346.775937) scale(0.14 -0.14)">
       <defs>
        <path id="DejaVuSans-31" d="M 794 531 
L 1825 531 
L 1825 4091 
L 703 3866 
L 703 4441 
L 1819 4666 
L 2450 4666 
L 2450 531 
L 3481 531 
L 3481 0 
L 794 0 
L 794 531 
z
" transform="scale(0.015625)"/>
       </defs>
       <use xlink:href="#DejaVuSans-31"/>
       <use xlink:href="#DejaVuSans-30" x="63.623047"/>
      </g>
     </g>
    </g>
    <g id="ytick_2">
     <g id="line2d_7">
      <g>
       <use xlink:href="#m0ad4b01fd2" x="90" y="286.332166" style="stroke: #000000; stroke-width: 0.8"/>
      </g>
     </g>
     <g id="text_8">
      <!-- 20 -->
      <g transform="translate(65.185 291.651073) scale(0.14 -0.14)">
       <use xlink:href="#DejaVuSans-32"/>
       <use xlink:href="#DejaVuSans-30" x="63.623047"/>
      </g>
     </g>
    </g>
    <g id="ytick_3">
     <g id="line2d_8">
      <g>
       <use xlink:href="#m0ad4b01fd2" x="90" y="231.207303" style="stroke: #000000; stroke-width: 0.8"/>
      </g>
     </g>
     <g id="text_9">
      <!-- 30 -->
      <g transform="translate(65.185 236.526209) scale(0.14 -0.14)">
       <use xlink:href="#DejaVuSans-33"/>
       <use xlink:href="#DejaVuSans-30" x="63.623047"/>
      </g>
     </g>
    </g>
    <g id="ytick_4">
     <g id="line2d_9">
      <g>
       <use xlink:href="#m0ad4b01fd2" x="90" y="176.082439" style="stroke: #000000; stroke-width: 0.8"/>
      </g>
     </g>
     <g id="text_10">
      <!-- 40 -->
      <g transform="translate(65.185 181.401345) scale(0.14 -0.14)">
       <use xlink:href="#DejaVuSans-34"/>
       <use xlink:href="#DejaVuSans-30" x="63.623047"/>
      </g>
     </g>
    </g>
    <g id="ytick_5">
     <g id="line2d_10">
      <g>
       <use xlink:href="#m0ad4b01fd2" x="90" y="120.957575" style="stroke: #000000; stroke-width: 0.8"/>
      </g>
     </g>
     <g id="text_11">
      <!-- 50 -->
      <g transform="translate(65.185 126.276481) scale(0.14 -0.14)">
       <use xlink:href="#DejaVuSans-35"/>
       <use xlink:href="#DejaVuSans-30" x="63.623047"/>
      </g>
     </g>
    </g>
    <g id="ytick_6">
     <g id="line2d_11">
      <g>
       <use xlink:href="#m0ad4b01fd2" x="90" y="65.832711" style="stroke: #000000; stroke-width: 0.8"/>
      </g>
     </g>
     <g id="text_12">
      <!-- 60 -->
      <g transform="translate(65.185 71.151617) scale(0.14 -0.14)">
       <defs>
        <path id="DejaVuSans-36" d="M 2113 2584 
Q 1688 2584 1439 2293 
Q 1191 2003 1191 1497 
Q 1191 994 1439 701 
Q 1688 409 2113 409 
Q 2538 409 2786 701 
Q 3034 994 3034 1497 
Q 3034 2003 2786 2293 
Q 2538 2584 2113 2584 
z
M 3366 4563 
L 3366 3988 
Q 3128 4100 2886 4159 
Q 2644 4219 2406 4219 
Q 1781 4219 1451 3797 
Q 1122 3375 1075 2522 
Q 1259 2794 1537 2939 
Q 1816 3084 2150 3084 
Q 2853 3084 3261 2657 
Q 3669 2231 3669 1497 
Q 3669 778 3244 343 
Q 2819 -91 2113 -91 
Q 1303 -91 875 529 
Q 447 1150 447 2328 
Q 447 3434 972 4092 
Q 1497 4750 2381 4750 
Q 2619 4750 2861 4703 
Q 3103 4656 3366 4563 
z
" transform="scale(0.015625)"/>
       </defs>
       <use xlink:href="#DejaVuSans-36"/>
       <use xlink:href="#DejaVuSans-30" x="63.623047"/>
      </g>
     </g>
    </g>
    <g id="text_13">
     <!-- Total Power Consumption[mW] -->
     <g style="fill: #0000ff" transform="translate(57.8575 337.79875) rotate(-90) scale(0.16 -0.16)">
      <defs>
       <path id="DejaVuSans-74" d="M 1172 4494 
L 1172 3500 
L 2356 3500 
L 2356 3053 
L 1172 3053 
L 1172 1153 
Q 1172 725 1289 603 
Q 1406 481 1766 481 
L 2356 481 
L 2356 0 
L 1766 0 
Q 1100 0 847 248 
Q 594 497 594 1153 
L 594 3053 
L 172 3053 
L 172 3500 
L 594 3500 
L 594 4494 
L 1172 4494 
z
" transform="scale(0.015625)"/>
       <path id="DejaVuSans-50" d="M 1259 4147 
L 1259 2394 
L 2053 2394 
Q 2494 2394 2734 2622 
Q 2975 2850 2975 3272 
Q 2975 3691 2734 3919 
Q 2494 4147 2053 4147 
L 1259 4147 
z
M 628 4666 
L 2053 4666 
Q 2838 4666 3239 4311 
Q 3641 3956 3641 3272 
Q 3641 2581 3239 2228 
Q 2838 1875 2053 1875 
L 1259 1875 
L 1259 0 
L 628 0 
L 628 4666 
z
" transform="scale(0.015625)"/>
       <path id="DejaVuSans-77" d="M 269 3500 
L 844 3500 
L 1563 769 
L 2278 3500 
L 2956 3500 
L 3675 769 
L 4391 3500 
L 4966 3500 
L 4050 0 
L 3372 0 
L 2619 2869 
L 1863 0 
L 1184 0 
L 269 3500 
z
" transform="scale(0.015625)"/>
       <path id="DejaVuSans-43" d="M 4122 4306 
L 4122 3641 
Q 3803 3938 3442 4084 
Q 3081 4231 2675 4231 
Q 1875 4231 1450 3742 
Q 1025 3253 1025 2328 
Q 1025 1406 1450 917 
Q 1875 428 2675 428 
Q 3081 428 3442 575 
Q 3803 722 4122 1019 
L 4122 359 
Q 3791 134 3420 21 
Q 3050 -91 2638 -91 
Q 1578 -91 968 557 
Q 359 1206 359 2328 
Q 359 3453 968 4101 
Q 1578 4750 2638 4750 
Q 3056 4750 3426 4639 
Q 3797 4528 4122 4306 
z
" transform="scale(0.015625)"/>
       <path id="DejaVuSans-6e" d="M 3513 2113 
L 3513 0 
L 2938 0 
L 2938 2094 
Q 2938 2591 2744 2837 
Q 2550 3084 2163 3084 
Q 1697 3084 1428 2787 
Q 1159 2491 1159 1978 
L 1159 0 
L 581 0 
L 581 3500 
L 1159 3500 
L 1159 2956 
Q 1366 3272 1645 3428 
Q 1925 3584 2291 3584 
Q 2894 3584 3203 3211 
Q 3513 2838 3513 2113 
z
" transform="scale(0.015625)"/>
       <path id="DejaVuSans-75" d="M 544 1381 
L 544 3500 
L 1119 3500 
L 1119 1403 
Q 1119 906 1312 657 
Q 1506 409 1894 409 
Q 2359 409 2629 706 
Q 2900 1003 2900 1516 
L 2900 3500 
L 3475 3500 
L 3475 0 
L 2900 0 
L 2900 538 
Q 2691 219 2414 64 
Q 2138 -91 1772 -91 
Q 1169 -91 856 284 
Q 544 659 544 1381 
z
M 1991 3584 
L 1991 3584 
z
" transform="scale(0.015625)"/>
       <path id="DejaVuSans-70" d="M 1159 525 
L 1159 -1331 
L 581 -1331 
L 581 3500 
L 1159 3500 
L 1159 2969 
Q 1341 3281 1617 3432 
Q 1894 3584 2278 3584 
Q 2916 3584 3314 3078 
Q 3713 2572 3713 1747 
Q 3713 922 3314 415 
Q 2916 -91 2278 -91 
Q 1894 -91 1617 61 
Q 1341 213 1159 525 
z
M 3116 1747 
Q 3116 2381 2855 2742 
Q 2594 3103 2138 3103 
Q 1681 3103 1420 2742 
Q 1159 2381 1159 1747 
Q 1159 1113 1420 752 
Q 1681 391 2138 391 
Q 2594 391 2855 752 
Q 3116 1113 3116 1747 
z
" transform="scale(0.015625)"/>
       <path id="DejaVuSans-69" d="M 603 3500 
L 1178 3500 
L 1178 0 
L 603 0 
L 603 3500 
z
M 603 4863 
L 1178 4863 
L 1178 4134 
L 603 4134 
L 603 4863 
z
" transform="scale(0.015625)"/>
       <path id="DejaVuSans-57" d="M 213 4666 
L 850 4666 
L 1831 722 
L 2809 4666 
L 3519 4666 
L 4500 722 
L 5478 4666 
L 6119 4666 
L 4947 0 
L 4153 0 
L 3169 4050 
L 2175 0 
L 1381 0 
L 213 4666 
z
" transform="scale(0.015625)"/>
      </defs>
      <use xlink:href="#DejaVuSans-54"/>
      <use xlink:href="#DejaVuSans-6f" x="44.083984"/>
      <use xlink:href="#DejaVuSans-74" x="105.265625"/>
      <use xlink:href="#DejaVuSans-61" x="144.474609"/>
      <use xlink:href="#DejaVuSans-6c" x="205.753906"/>
      <use xlink:href="#DejaVuSans-20" x="233.537109"/>
      <use xlink:href="#DejaVuSans-50" x="265.324219"/>
      <use xlink:href="#DejaVuSans-6f" x="322.001953"/>
      <use xlink:href="#DejaVuSans-77" x="383.183594"/>
      <use xlink:href="#DejaVuSans-65" x="464.970703"/>
      <use xlink:href="#DejaVuSans-72" x="526.494141"/>
      <use xlink:href="#DejaVuSans-20" x="567.607422"/>
      <use xlink:href="#DejaVuSans-43" x="599.394531"/>
      <use xlink:href="#DejaVuSans-6f" x="669.21875"/>
      <use xlink:href="#DejaVuSans-6e" x="730.400391"/>
      <use xlink:href="#DejaVuSans-73" x="793.779297"/>
      <use xlink:href="#DejaVuSans-75" x="845.878906"/>
      <use xlink:href="#DejaVuSans-6d" x="909.257812"/>
      <use xlink:href="#DejaVuSans-70" x="1006.669922"/>
      <use xlink:href="#DejaVuSans-74" x="1070.146484"/>
      <use xlink:href="#DejaVuSans-69" x="1109.355469"/>
      <use xlink:href="#DejaVuSans-6f" x="1137.138672"/>
      <use xlink:href="#DejaVuSans-6e" x="1198.320312"/>
      <use xlink:href="#DejaVuSans-5b" x="1261.699219"/>
      <use xlink:href="#DejaVuSans-6d" x="1300.712891"/>
      <use xlink:href="#DejaVuSans-57" x="1398.125"/>
      <use xlink:href="#DejaVuSans-5d" x="1497.001953"/>
     </g>
    </g>
   </g>
   <g id="line2d_12">
    <path d="M 115.363636 323.726873 
L 116.49342 322.846397 
L 117.623203 322.846904 
L 118.752986 331.218833 
L 119.88277 330.344089 
L 121.012553 329.907302 
L 122.142337 327.051266 
L 123.27212 322.209831 
L 124.401903 320.443515 
L 125.531687 318.238835 
L 126.66147 308.973293 
L 127.791253 308.972812 
L 128.921037 312.280002 
L 130.05082 321.102874 
L 132.310387 321.143419 
L 133.44017 329.964081 
L 135.699737 312.344465 
L 140.21887 312.348522 
L 141.348654 321.205644 
L 143.60822 321.209348 
L 144.738004 324.630033 
L 145.867787 315.827122 
L 146.99757 326.015939 
L 148.127354 334.835966 
L 150.38692 334.839164 
L 151.516704 326.024588 
L 157.165621 326.069851 
L 158.295404 308.451856 
L 161.684754 308.455307 
L 162.814537 326.094475 
L 165.074104 326.095996 
L 183.150638 317.423571 
L 184.280421 308.610516 
L 187.669771 308.612799 
L 188.799555 299.804055 
L 194.448471 299.866335 
L 195.578255 291.056577 
L 196.708038 299.877239 
L 201.227171 299.884973 
L 202.356955 306.935729 
L 203.486738 306.82355 
L 204.616522 301.908022 
L 205.746305 296.174843 
L 206.876088 293.33664 
L 208.005872 299.952418 
L 211.395222 299.956221 
L 212.525005 291.147378 
L 213.654788 308.787054 
L 214.784572 317.608377 
L 218.173922 317.648921 
L 219.303705 308.83967 
L 220.433489 308.840685 
L 221.563272 300.031434 
L 224.952622 300.034223 
L 226.082405 308.858617 
L 227.212189 300.045562 
L 228.341972 277.568134 
L 229.471755 283.5483 
L 230.601539 278.705851 
L 231.731322 278.707372 
L 232.861105 289.060787 
L 233.990889 284.219352 
L 235.120672 297.896101 
L 236.250456 297.897876 
L 238.510022 291.295648 
L 239.639806 282.487158 
L 240.769589 300.200921 
L 241.899372 291.382541 
L 243.029156 300.201935 
L 244.158939 298.439461 
L 245.288722 307.14877 
L 246.418506 310.121733 
L 247.548289 301.301149 
L 248.678072 300.195954 
L 250.937639 300.205083 
L 252.067423 291.498689 
L 256.586556 291.500971 
L 257.716339 300.322675 
L 258.846123 291.513424 
L 262.235473 291.554376 
L 263.365256 300.375038 
L 264.495039 291.565787 
L 266.754606 291.567562 
L 267.88439 300.388759 
L 270.143956 282.765439 
L 274.66309 282.805983 
L 275.792873 291.662851 
L 276.922656 291.663865 
L 278.05244 300.486076 
L 279.182223 300.486583 
L 280.312006 282.868743 
L 282.571573 282.870264 
L 283.701357 291.728935 
L 284.83114 273.419625 
L 285.960923 277.388201 
L 287.090707 286.207656 
L 289.350273 286.208075 
L 290.480057 275.860179 
L 292.739623 275.861193 
L 293.869407 270.901477 
L 296.128973 270.945626 
L 297.258757 271.942692 
L 298.38854 280.76272 
L 299.518324 280.763734 
L 300.648107 268.648766 
L 302.907674 268.649273 
L 304.037457 265.35403 
L 305.16724 274.173678 
L 308.55659 274.216151 
L 309.686374 283.036686 
L 310.816157 274.227435 
L 314.205507 274.272924 
L 323.243774 274.330232 
L 324.373557 258.892514 
L 325.503341 258.892514 
L 326.633124 269.913672 
L 327.762907 277.629676 
L 328.892691 274.330662 
L 330.022474 265.562771 
L 331.152258 265.563532 
L 332.282041 274.38356 
L 333.411824 274.38356 
L 334.541608 265.569745 
L 335.671391 265.576845 
L 336.801174 256.768101 
L 337.930958 256.770637 
L 339.060741 265.690832 
L 345.839441 265.733659 
L 346.969225 274.596766 
L 348.099008 281.652115 
L 349.228791 281.654298 
L 350.358575 290.47496 
L 351.488358 290.474298 
L 352.618141 285.324749 
L 353.747925 285.325256 
L 354.877708 286.326395 
L 356.007491 294.044179 
L 357.137275 294.044686 
L 358.267058 280.269887 
L 359.396841 296.142094 
L 360.526625 296.143108 
L 361.656408 290.193834 
L 362.786192 290.193834 
L 365.045758 281.966156 
L 367.305325 281.969607 
L 368.435108 273.160356 
L 369.564892 273.161877 
L 370.694675 285.290411 
L 371.824458 285.292087 
L 372.954242 290.149161 
L 374.084025 293.929558 
L 375.213808 292.825385 
L 376.343592 287.982428 
L 377.473375 295.039095 
L 378.603159 297.685088 
L 379.732942 293.928075 
L 380.862725 296.793769 
L 381.992509 296.795444 
L 383.122292 301.20507 
L 384.252075 301.20507 
L 385.381859 310.084892 
L 388.771209 310.125943 
L 391.030775 327.804261 
L 395.549909 327.84658 
L 397.809476 345.488946 
L 398.939259 345.489453 
L 400.069042 354.310622 
L 404.588176 354.352335 
L 405.717959 363.174038 
L 407.977526 363.174545 
L 410.237093 345.557311 
L 426.05406 345.670466 
L 427.183843 354.490621 
L 437.351893 354.494832 
L 438.481676 345.681778 
L 440.741243 345.682285 
L 441.871027 354.541082 
L 446.39016 354.544787 
L 447.519943 345.743143 
L 454.298643 345.746847 
L 455.428427 354.567509 
L 462.207127 354.568523 
L 463.33691 338.039079 
L 464.466694 347.742654 
L 466.72626 347.740978 
L 467.856044 332.52075 
L 475.764527 332.518964 
L 476.894311 336.267129 
L 478.024094 336.267129 
L 479.153877 340.235636 
L 481.413444 340.235915 
L 482.543227 336.934432 
L 483.673011 345.75408 
L 484.802794 345.754587 
L 485.932577 354.610694 
L 488.192144 354.612877 
L 489.321928 345.803626 
L 504.009111 345.811035 
L 506.268678 328.192533 
L 514.177161 328.196237 
L 516.436728 310.576115 
L 520.955862 310.57789 
L 522.085645 297.356114 
L 523.215428 297.356114 
L 524.345212 295.59241 
L 525.474995 298.236728 
L 526.604778 296.269746 
L 527.734562 287.459988 
L 528.864345 284.812203 
L 529.994128 292.351531 
L 531.123912 292.56546 
L 532.253695 296.314458 
L 533.383478 291.249442 
L 534.513262 286.837176 
L 535.643045 286.837176 
L 536.772829 275.38062 
L 540.162179 275.384324 
L 541.291962 266.574566 
L 542.421745 266.575073 
L 543.551529 257.761512 
L 544.681312 257.762526 
L 545.811095 248.952768 
L 549.200445 248.953782 
L 550.330229 240.147221 
L 551.460012 222.528212 
L 553.719579 222.530903 
L 554.849362 213.722159 
L 559.368496 213.724187 
L 560.498279 203.806861 
L 562.757846 203.809551 
L 563.887629 179.549116 
L 565.017412 179.549116 
L 566.147196 185.061882 
L 567.276979 196.095873 
L 569.536546 196.09638 
L 570.666329 187.28789 
L 575.185463 187.291595 
L 576.315246 203.20778 
L 577.445029 203.20778 
L 578.574813 182.935209 
L 579.704596 182.935209 
L 580.834379 174.125958 
L 581.964163 168.617336 
L 583.093946 167.735768 
L 584.223729 167.735768 
L 585.353513 162.674418 
L 586.483296 170.833405 
L 587.61308 170.833912 
L 588.742863 158.720212 
L 591.00243 158.721227 
L 592.132213 152.119252 
L 593.261996 152.120267 
L 594.39178 176.808229 
L 596.651346 176.807568 
L 597.78113 175.703395 
L 598.910913 170.863382 
L 602.300263 170.864903 
L 603.430047 174.611658 
L 604.55983 128.991792 
L 605.689613 108.076526 
L 606.819397 81.660338 
L 607.94918 82.762835 
L 609.078963 94.229529 
L 610.208747 95.329491 
L 611.33853 95.329491 
L 612.468313 78.799462 
L 613.598097 73.943287 
L 614.72788 76.151325 
L 615.857663 76.151832 
L 616.987447 78.801414 
L 618.11723 66.665455 
L 619.247014 77.255498 
L 620.376797 82.770696 
L 621.50658 104.16088 
L 622.636364 104.159458 
L 622.636364 104.159458 
" clip-path="url(#p43174bf8c3)" style="fill: none; stroke: #0000ff; stroke-width: 1.5; stroke-linecap: square"/>
   </g>
   <g id="patch_3">
    <path d="M 90 378 
L 90 51.84 
" style="fill: none; stroke: #000000; stroke-width: 0.8; stroke-linejoin: miter; stroke-linecap: square"/>
   </g>
   <g id="patch_4">
    <path d="M 648 378 
L 648 51.84 
" style="fill: none; stroke: #000000; stroke-width: 0.8; stroke-linejoin: miter; stroke-linecap: square"/>
   </g>
   <g id="patch_5">
    <path d="M 90 378 
L 648 378 
" style="fill: none; stroke: #000000; stroke-width: 0.8; stroke-linejoin: miter; stroke-linecap: square"/>
   </g>
   <g id="patch_6">
    <path d="M 90 51.84 
L 648 51.84 
" style="fill: none; stroke: #000000; stroke-width: 0.8; stroke-linejoin: miter; stroke-linecap: square"/>
   </g>
   <g id="text_14">
    <!-- Total Power Consumption - Voltage Trace1 -->
    <g transform="translate(180.262969 45.84) scale(0.18 -0.18)">
     <defs>
      <path id="DejaVuSans-2d" d="M 313 2009 
L 1997 2009 
L 1997 1497 
L 313 1497 
L 313 2009 
z
" transform="scale(0.015625)"/>
      <path id="DejaVuSans-67" d="M 2906 1791 
Q 2906 2416 2648 2759 
Q 2391 3103 1925 3103 
Q 1463 3103 1205 2759 
Q 947 2416 947 1791 
Q 947 1169 1205 825 
Q 1463 481 1925 481 
Q 2391 481 2648 825 
Q 2906 1169 2906 1791 
z
M 3481 434 
Q 3481 -459 3084 -895 
Q 2688 -1331 1869 -1331 
Q 1566 -1331 1297 -1286 
Q 1028 -1241 775 -1147 
L 775 -588 
Q 1028 -725 1275 -790 
Q 1522 -856 1778 -856 
Q 2344 -856 2625 -561 
Q 2906 -266 2906 331 
L 2906 616 
Q 2728 306 2450 153 
Q 2172 0 1784 0 
Q 1141 0 747 490 
Q 353 981 353 1791 
Q 353 2603 747 3093 
Q 1141 3584 1784 3584 
Q 2172 3584 2450 3431 
Q 2728 3278 2906 2969 
L 2906 3500 
L 3481 3500 
L 3481 434 
z
" transform="scale(0.015625)"/>
      <path id="DejaVuSans-63" d="M 3122 3366 
L 3122 2828 
Q 2878 2963 2633 3030 
Q 2388 3097 2138 3097 
Q 1578 3097 1268 2742 
Q 959 2388 959 1747 
Q 959 1106 1268 751 
Q 1578 397 2138 397 
Q 2388 397 2633 464 
Q 2878 531 3122 666 
L 3122 134 
Q 2881 22 2623 -34 
Q 2366 -91 2075 -91 
Q 1284 -91 818 406 
Q 353 903 353 1747 
Q 353 2603 823 3093 
Q 1294 3584 2113 3584 
Q 2378 3584 2631 3529 
Q 2884 3475 3122 3366 
z
" transform="scale(0.015625)"/>
     </defs>
     <use xlink:href="#DejaVuSans-54"/>
     <use xlink:href="#DejaVuSans-6f" x="44.083984"/>
     <use xlink:href="#DejaVuSans-74" x="105.265625"/>
     <use xlink:href="#DejaVuSans-61" x="144.474609"/>
     <use xlink:href="#DejaVuSans-6c" x="205.753906"/>
     <use xlink:href="#DejaVuSans-20" x="233.537109"/>
     <use xlink:href="#DejaVuSans-50" x="265.324219"/>
     <use xlink:href="#DejaVuSans-6f" x="322.001953"/>
     <use xlink:href="#DejaVuSans-77" x="383.183594"/>
     <use xlink:href="#DejaVuSans-65" x="464.970703"/>
     <use xlink:href="#DejaVuSans-72" x="526.494141"/>
     <use xlink:href="#DejaVuSans-20" x="567.607422"/>
     <use xlink:href="#DejaVuSans-43" x="599.394531"/>
     <use xlink:href="#DejaVuSans-6f" x="669.21875"/>
     <use xlink:href="#DejaVuSans-6e" x="730.400391"/>
     <use xlink:href="#DejaVuSans-73" x="793.779297"/>
     <use xlink:href="#DejaVuSans-75" x="845.878906"/>
     <use xlink:href="#DejaVuSans-6d" x="909.257812"/>
     <use xlink:href="#DejaVuSans-70" x="1006.669922"/>
     <use xlink:href="#DejaVuSans-74" x="1070.146484"/>
     <use xlink:href="#DejaVuSans-69" x="1109.355469"/>
     <use xlink:href="#DejaVuSans-6f" x="1137.138672"/>
     <use xlink:href="#DejaVuSans-6e" x="1198.320312"/>
     <use xlink:href="#DejaVuSans-20" x="1261.699219"/>
     <use xlink:href="#DejaVuSans-2d" x="1293.486328"/>
     <use xlink:href="#DejaVuSans-20" x="1329.570312"/>
     <use xlink:href="#DejaVuSans-56" x="1361.357422"/>
     <use xlink:href="#DejaVuSans-6f" x="1422.015625"/>
     <use xlink:href="#DejaVuSans-6c" x="1483.197266"/>
     <use xlink:href="#DejaVuSans-74" x="1510.980469"/>
     <use xlink:href="#DejaVuSans-61" x="1550.189453"/>
     <use xlink:href="#DejaVuSans-67" x="1611.46875"/>
     <use xlink:href="#DejaVuSans-65" x="1674.945312"/>
     <use xlink:href="#DejaVuSans-20" x="1736.46875"/>
     <use xlink:href="#DejaVuSans-54" x="1768.255859"/>
     <use xlink:href="#DejaVuSans-72" x="1814.589844"/>
     <use xlink:href="#DejaVuSans-61" x="1855.703125"/>
     <use xlink:href="#DejaVuSans-63" x="1916.982422"/>
     <use xlink:href="#DejaVuSans-65" x="1971.962891"/>
     <use xlink:href="#DejaVuSans-31" x="2033.486328"/>
    </g>
   </g>
  </g>
  <g id="axes_2">
   <g id="matplotlib.axis_3">
    <g id="ytick_7">
     <g id="line2d_13">
      <path d="M 90 353.908636 
L 648 353.908636 
" clip-path="url(#p43174bf8c3)" style="fill: none; stroke: #b0b0b0; stroke-width: 0.8; stroke-linecap: square"/>
     </g>
     <g id="line2d_14">
      <defs>
       <path id="m340ab8797c" d="M 0 0 
L 3.5 0 
" style="stroke: #000000; stroke-width: 0.8"/>
      </defs>
      <g>
       <use xlink:href="#m340ab8797c" x="648" y="353.908636" style="stroke: #000000; stroke-width: 0.8"/>
      </g>
     </g>
     <g id="text_15">
      <!-- 5 -->
      <g transform="translate(655 359.227543) scale(0.14 -0.14)">
       <use xlink:href="#DejaVuSans-35"/>
      </g>
     </g>
    </g>
    <g id="ytick_8">
     <g id="line2d_15">
      <path d="M 90 307.579091 
L 648 307.579091 
" clip-path="url(#p43174bf8c3)" style="fill: none; stroke: #b0b0b0; stroke-width: 0.8; stroke-linecap: square"/>
     </g>
     <g id="line2d_16">
      <g>
       <use xlink:href="#m340ab8797c" x="648" y="307.579091" style="stroke: #000000; stroke-width: 0.8"/>
      </g>
     </g>
     <g id="text_16">
      <!-- 10 -->
      <g transform="translate(655 312.897997) scale(0.14 -0.14)">
       <use xlink:href="#DejaVuSans-31"/>
       <use xlink:href="#DejaVuSans-30" x="63.623047"/>
      </g>
     </g>
    </g>
    <g id="ytick_9">
     <g id="line2d_17">
      <path d="M 90 261.249545 
L 648 261.249545 
" clip-path="url(#p43174bf8c3)" style="fill: none; stroke: #b0b0b0; stroke-width: 0.8; stroke-linecap: square"/>
     </g>
     <g id="line2d_18">
      <g>
       <use xlink:href="#m340ab8797c" x="648" y="261.249545" style="stroke: #000000; stroke-width: 0.8"/>
      </g>
     </g>
     <g id="text_17">
      <!-- 15 -->
      <g transform="translate(655 266.568452) scale(0.14 -0.14)">
       <use xlink:href="#DejaVuSans-31"/>
       <use xlink:href="#DejaVuSans-35" x="63.623047"/>
      </g>
     </g>
    </g>
    <g id="ytick_10">
     <g id="line2d_19">
      <path d="M 90 214.92 
L 648 214.92 
" clip-path="url(#p43174bf8c3)" style="fill: none; stroke: #b0b0b0; stroke-width: 0.8; stroke-linecap: square"/>
     </g>
     <g id="line2d_20">
      <g>
       <use xlink:href="#m340ab8797c" x="648" y="214.92" style="stroke: #000000; stroke-width: 0.8"/>
      </g>
     </g>
     <g id="text_18">
      <!-- 20 -->
      <g transform="translate(655 220.238906) scale(0.14 -0.14)">
       <use xlink:href="#DejaVuSans-32"/>
       <use xlink:href="#DejaVuSans-30" x="63.623047"/>
      </g>
     </g>
    </g>
    <g id="ytick_11">
     <g id="line2d_21">
      <path d="M 90 168.590455 
L 648 168.590455 
" clip-path="url(#p43174bf8c3)" style="fill: none; stroke: #b0b0b0; stroke-width: 0.8; stroke-linecap: square"/>
     </g>
     <g id="line2d_22">
      <g>
       <use xlink:href="#m340ab8797c" x="648" y="168.590455" style="stroke: #000000; stroke-width: 0.8"/>
      </g>
     </g>
     <g id="text_19">
      <!-- 25 -->
      <g transform="translate(655 173.909361) scale(0.14 -0.14)">
       <use xlink:href="#DejaVuSans-32"/>
       <use xlink:href="#DejaVuSans-35" x="63.623047"/>
      </g>
     </g>
    </g>
    <g id="ytick_12">
     <g id="line2d_23">
      <path d="M 90 122.260909 
L 648 122.260909 
" clip-path="url(#p43174bf8c3)" style="fill: none; stroke: #b0b0b0; stroke-width: 0.8; stroke-linecap: square"/>
     </g>
     <g id="line2d_24">
      <g>
       <use xlink:href="#m340ab8797c" x="648" y="122.260909" style="stroke: #000000; stroke-width: 0.8"/>
      </g>
     </g>
     <g id="text_20">
      <!-- 30 -->
      <g transform="translate(655 127.579815) scale(0.14 -0.14)">
       <use xlink:href="#DejaVuSans-33"/>
       <use xlink:href="#DejaVuSans-30" x="63.623047"/>
      </g>
     </g>
    </g>
    <g id="ytick_13">
     <g id="line2d_25">
      <path d="M 90 75.931364 
L 648 75.931364 
" clip-path="url(#p43174bf8c3)" style="fill: none; stroke: #b0b0b0; stroke-width: 0.8; stroke-linecap: square"/>
     </g>
     <g id="line2d_26">
      <g>
       <use xlink:href="#m340ab8797c" x="648" y="75.931364" style="stroke: #000000; stroke-width: 0.8"/>
      </g>
     </g>
     <g id="text_21">
      <!-- 35 -->
      <g transform="translate(655 81.25027) scale(0.14 -0.14)">
       <use xlink:href="#DejaVuSans-33"/>
       <use xlink:href="#DejaVuSans-35" x="63.623047"/>
      </g>
     </g>
    </g>
    <g id="text_22">
     <!-- Number of oscillations -->
     <g style="fill: #ff0000" transform="translate(688.9725 304.37625) rotate(-90) scale(0.16 -0.16)">
      <defs>
       <path id="DejaVuSans-4e" d="M 628 4666 
L 1478 4666 
L 3547 763 
L 3547 4666 
L 4159 4666 
L 4159 0 
L 3309 0 
L 1241 3903 
L 1241 0 
L 628 0 
L 628 4666 
z
" transform="scale(0.015625)"/>
       <path id="DejaVuSans-62" d="M 3116 1747 
Q 3116 2381 2855 2742 
Q 2594 3103 2138 3103 
Q 1681 3103 1420 2742 
Q 1159 2381 1159 1747 
Q 1159 1113 1420 752 
Q 1681 391 2138 391 
Q 2594 391 2855 752 
Q 3116 1113 3116 1747 
z
M 1159 2969 
Q 1341 3281 1617 3432 
Q 1894 3584 2278 3584 
Q 2916 3584 3314 3078 
Q 3713 2572 3713 1747 
Q 3713 922 3314 415 
Q 2916 -91 2278 -91 
Q 1894 -91 1617 61 
Q 1341 213 1159 525 
L 1159 0 
L 581 0 
L 581 4863 
L 1159 4863 
L 1159 2969 
z
" transform="scale(0.015625)"/>
       <path id="DejaVuSans-66" d="M 2375 4863 
L 2375 4384 
L 1825 4384 
Q 1516 4384 1395 4259 
Q 1275 4134 1275 3809 
L 1275 3500 
L 2222 3500 
L 2222 3053 
L 1275 3053 
L 1275 0 
L 697 0 
L 697 3053 
L 147 3053 
L 147 3500 
L 697 3500 
L 697 3744 
Q 697 4328 969 4595 
Q 1241 4863 1831 4863 
L 2375 4863 
z
" transform="scale(0.015625)"/>
      </defs>
      <use xlink:href="#DejaVuSans-4e"/>
      <use xlink:href="#DejaVuSans-75" x="74.804688"/>
      <use xlink:href="#DejaVuSans-6d" x="138.183594"/>
      <use xlink:href="#DejaVuSans-62" x="235.595703"/>
      <use xlink:href="#DejaVuSans-65" x="299.072266"/>
      <use xlink:href="#DejaVuSans-72" x="360.595703"/>
      <use xlink:href="#DejaVuSans-20" x="401.708984"/>
      <use xlink:href="#DejaVuSans-6f" x="433.496094"/>
      <use xlink:href="#DejaVuSans-66" x="494.677734"/>
      <use xlink:href="#DejaVuSans-20" x="529.882812"/>
      <use xlink:href="#DejaVuSans-6f" x="561.669922"/>
      <use xlink:href="#DejaVuSans-73" x="622.851562"/>
      <use xlink:href="#DejaVuSans-63" x="674.951172"/>
      <use xlink:href="#DejaVuSans-69" x="729.931641"/>
      <use xlink:href="#DejaVuSans-6c" x="757.714844"/>
      <use xlink:href="#DejaVuSans-6c" x="785.498047"/>
      <use xlink:href="#DejaVuSans-61" x="813.28125"/>
      <use xlink:href="#DejaVuSans-74" x="874.560547"/>
      <use xlink:href="#DejaVuSans-69" x="913.769531"/>
      <use xlink:href="#DejaVuSans-6f" x="941.552734"/>
      <use xlink:href="#DejaVuSans-6e" x="1002.734375"/>
      <use xlink:href="#DejaVuSans-73" x="1066.113281"/>
     </g>
    </g>
   </g>
   <g id="line2d_27">
    <path d="M 115.363636 335.376818 
L 116.49342 344.642727 
L 117.623203 335.376818 
L 118.752986 353.908636 
L 119.88277 316.845 
L 121.012553 326.110909 
L 122.142337 307.579091 
L 124.401903 326.110909 
L 125.531687 316.845 
L 127.791253 316.845 
L 130.05082 298.313182 
L 131.180603 307.579091 
L 132.310387 326.110909 
L 133.44017 316.845 
L 134.569953 316.845 
L 135.699737 298.313182 
L 136.82952 316.845 
L 139.089087 316.845 
L 140.21887 307.579091 
L 141.348654 344.642727 
L 142.478437 316.845 
L 143.60822 316.845 
L 144.738004 335.376818 
L 145.867787 307.579091 
L 146.99757 326.110909 
L 148.127354 326.110909 
L 149.257137 316.845 
L 150.38692 316.845 
L 151.516704 335.376818 
L 152.646487 307.579091 
L 153.776271 326.110909 
L 154.906054 316.845 
L 156.035837 344.642727 
L 157.165621 316.845 
L 158.295404 307.579091 
L 160.554971 307.579091 
L 161.684754 316.845 
L 165.074104 316.845 
L 183.150638 307.579091 
L 184.280421 316.845 
L 185.410204 289.047273 
L 186.539988 316.845 
L 187.669771 289.047273 
L 188.799555 307.579091 
L 189.929338 307.579091 
L 191.059121 279.781364 
L 192.188905 307.579091 
L 193.318688 298.313182 
L 194.448471 307.579091 
L 195.578255 298.313182 
L 196.708038 298.313182 
L 197.837821 289.047273 
L 198.967605 289.047273 
L 200.097388 307.579091 
L 201.227171 279.781364 
L 202.356955 279.781364 
L 203.486738 298.313182 
L 204.616522 289.047273 
L 205.746305 298.313182 
L 206.876088 326.110909 
L 208.005872 298.313182 
L 209.135655 289.047273 
L 210.265438 289.047273 
L 211.395222 298.313182 
L 212.525005 289.047273 
L 213.654788 289.047273 
L 214.784572 307.579091 
L 215.914355 316.845 
L 217.044138 307.579091 
L 219.303705 307.579091 
L 220.433489 298.313182 
L 221.563272 298.313182 
L 222.693055 289.047273 
L 223.822839 298.313182 
L 226.082405 298.313182 
L 228.341972 279.781364 
L 229.471755 279.781364 
L 230.601539 289.047273 
L 231.731322 289.047273 
L 232.861105 298.313182 
L 233.990889 298.313182 
L 235.120672 289.047273 
L 236.250456 307.579091 
L 237.380239 316.845 
L 238.510022 279.781364 
L 239.639806 289.047273 
L 240.769589 307.579091 
L 244.158939 307.579091 
L 245.288722 298.313182 
L 248.678072 326.110909 
L 249.807856 289.047273 
L 250.937639 289.047273 
L 252.067423 298.313182 
L 253.197206 289.047273 
L 254.326989 298.313182 
L 255.456773 289.047273 
L 256.586556 298.313182 
L 257.716339 316.845 
L 258.846123 279.781364 
L 259.975906 298.313182 
L 261.105689 298.313182 
L 262.235473 289.047273 
L 263.365256 307.579091 
L 264.495039 289.047273 
L 265.624823 307.579091 
L 267.88439 289.047273 
L 270.143956 289.047273 
L 271.27374 279.781364 
L 272.403523 279.781364 
L 273.533306 289.047273 
L 274.66309 279.781364 
L 275.792873 307.579091 
L 278.05244 289.047273 
L 279.182223 289.047273 
L 280.312006 270.515455 
L 282.571573 289.047273 
L 284.83114 289.047273 
L 285.960923 298.313182 
L 287.090707 279.781364 
L 288.22049 279.781364 
L 289.350273 298.313182 
L 291.60984 261.249545 
L 292.739623 270.515455 
L 294.99919 270.515455 
L 296.128973 289.047273 
L 297.258757 279.781364 
L 298.38854 261.249545 
L 299.518324 270.515455 
L 300.648107 270.515455 
L 301.77789 261.249545 
L 302.907674 261.249545 
L 304.037457 279.781364 
L 305.16724 251.983636 
L 306.297024 279.781364 
L 307.426807 279.781364 
L 308.55659 270.515455 
L 309.686374 289.047273 
L 310.816157 261.249545 
L 313.075724 261.249545 
L 314.205507 289.047273 
L 315.335291 261.249545 
L 316.465074 261.249545 
L 317.594857 270.515455 
L 318.724641 289.047273 
L 319.854424 279.781364 
L 320.984207 289.047273 
L 322.113991 270.515455 
L 323.243774 261.249545 
L 324.373557 289.047273 
L 325.503341 261.249545 
L 326.633124 279.781364 
L 327.762907 279.781364 
L 328.892691 261.249545 
L 330.022474 279.781364 
L 331.152258 261.249545 
L 332.282041 261.249545 
L 333.411824 270.515455 
L 334.541608 251.983636 
L 335.671391 270.515455 
L 336.801174 261.249545 
L 337.930958 233.451818 
L 339.060741 251.983636 
L 340.190524 242.717727 
L 341.320308 270.515455 
L 342.450091 270.515455 
L 343.579874 251.983636 
L 344.709658 261.249545 
L 345.839441 261.249545 
L 346.969225 289.047273 
L 348.099008 270.515455 
L 349.228791 289.047273 
L 350.358575 279.781364 
L 351.488358 298.313182 
L 352.618141 279.781364 
L 353.747925 289.047273 
L 354.877708 307.579091 
L 356.007491 307.579091 
L 357.137275 289.047273 
L 358.267058 289.047273 
L 359.396841 279.781364 
L 360.526625 279.781364 
L 361.656408 298.313182 
L 362.786192 279.781364 
L 365.045758 316.845 
L 366.175542 289.047273 
L 367.305325 298.313182 
L 368.435108 279.781364 
L 369.564892 289.047273 
L 371.824458 289.047273 
L 372.954242 279.781364 
L 375.213808 298.313182 
L 376.343592 289.047273 
L 377.473375 298.313182 
L 380.862725 298.313182 
L 381.992509 289.047273 
L 383.122292 298.313182 
L 384.252075 279.781364 
L 385.381859 307.579091 
L 386.511642 298.313182 
L 387.641425 298.313182 
L 388.771209 316.845 
L 389.900992 298.313182 
L 391.030775 316.845 
L 392.160559 307.579091 
L 393.290342 316.845 
L 394.420126 316.845 
L 395.549909 326.110909 
L 396.679692 326.110909 
L 397.809476 353.908636 
L 398.939259 335.376818 
L 400.069042 353.908636 
L 401.198826 344.642727 
L 402.328609 344.642727 
L 403.458392 353.908636 
L 404.588176 353.908636 
L 405.717959 363.174545 
L 406.847742 353.908636 
L 409.107309 353.908636 
L 410.237093 335.376818 
L 411.366876 344.642727 
L 412.496659 326.110909 
L 413.626443 344.642727 
L 414.756226 335.376818 
L 415.886009 335.376818 
L 417.015793 344.642727 
L 418.145576 335.376818 
L 420.405143 335.376818 
L 421.534926 353.908636 
L 422.664709 335.376818 
L 426.05406 335.376818 
L 427.183843 344.642727 
L 436.22211 344.642727 
L 437.351893 353.908636 
L 439.61146 335.376818 
L 441.871027 353.908636 
L 443.00081 353.908636 
L 444.130593 363.174545 
L 445.260377 353.908636 
L 446.39016 353.908636 
L 448.649727 335.376818 
L 449.77951 344.642727 
L 450.909293 335.376818 
L 452.039077 344.642727 
L 453.16886 335.376818 
L 454.298643 335.376818 
L 455.428427 344.642727 
L 462.207127 344.642727 
L 463.33691 335.376818 
L 464.466694 344.642727 
L 465.596477 335.376818 
L 470.11561 335.376818 
L 471.245394 344.642727 
L 472.375177 335.376818 
L 479.153877 335.376818 
L 480.283661 344.642727 
L 481.413444 344.642727 
L 482.543227 326.110909 
L 483.673011 335.376818 
L 484.802794 335.376818 
L 485.932577 353.908636 
L 487.062361 353.908636 
L 488.192144 363.174545 
L 489.321928 344.642727 
L 491.581494 344.642727 
L 492.711278 363.174545 
L 493.841061 335.376818 
L 494.970844 344.642727 
L 496.100628 335.376818 
L 497.230411 353.908636 
L 498.360194 335.376818 
L 500.619761 335.376818 
L 501.749544 344.642727 
L 504.009111 344.642727 
L 505.138895 335.376818 
L 506.268678 344.642727 
L 508.528245 326.110909 
L 509.658028 335.376818 
L 510.787811 326.110909 
L 511.917595 326.110909 
L 513.047378 335.376818 
L 514.177161 326.110909 
L 515.306945 335.376818 
L 516.436728 316.845 
L 517.566511 307.579091 
L 518.696295 307.579091 
L 519.826078 326.110909 
L 522.085645 307.579091 
L 523.215428 307.579091 
L 524.345212 298.313182 
L 525.474995 298.313182 
L 526.604778 307.579091 
L 527.734562 289.047273 
L 528.864345 279.781364 
L 529.994128 289.047273 
L 533.383478 289.047273 
L 534.513262 298.313182 
L 535.643045 298.313182 
L 536.772829 270.515455 
L 537.902612 270.515455 
L 539.032395 279.781364 
L 540.162179 270.515455 
L 543.551529 270.515455 
L 544.681312 251.983636 
L 545.811095 261.249545 
L 546.940879 242.717727 
L 548.070662 251.983636 
L 549.200445 242.717727 
L 550.330229 261.249545 
L 551.460012 214.92 
L 552.589796 214.92 
L 553.719579 233.451818 
L 554.849362 214.92 
L 557.108929 214.92 
L 558.238712 224.185909 
L 561.628062 196.388182 
L 562.757846 205.654091 
L 565.017412 205.654091 
L 566.147196 187.122273 
L 567.276979 205.654091 
L 568.406763 187.122273 
L 569.536546 196.388182 
L 570.666329 196.388182 
L 574.055679 168.590455 
L 575.185463 177.856364 
L 576.315246 205.654091 
L 577.445029 224.185909 
L 578.574813 187.122273 
L 579.704596 177.856364 
L 580.834379 187.122273 
L 581.964163 159.324545 
L 583.093946 177.856364 
L 584.223729 177.856364 
L 585.353513 159.324545 
L 586.483296 177.856364 
L 587.61308 168.590455 
L 588.742863 168.590455 
L 592.132213 140.792727 
L 593.261996 150.058636 
L 594.39178 168.590455 
L 595.521563 168.590455 
L 596.651346 159.324545 
L 597.78113 159.324545 
L 598.910913 187.122273 
L 600.040696 159.324545 
L 602.300263 177.856364 
L 603.430047 159.324545 
L 606.819397 75.931364 
L 607.94918 85.197273 
L 609.078963 85.197273 
L 610.208747 75.931364 
L 611.33853 103.729091 
L 612.468313 75.931364 
L 613.598097 94.463182 
L 616.987447 66.665455 
L 618.11723 66.665455 
L 619.247014 75.931364 
L 620.376797 103.729091 
L 621.50658 94.463182 
L 622.636364 112.995 
L 622.636364 112.995 
" clip-path="url(#p43174bf8c3)" style="fill: none; stroke: #ff0000; stroke-width: 1.5; stroke-linecap: square"/>
   </g>
   <g id="patch_7">
    <path d="M 90 378 
L 90 51.84 
" style="fill: none; stroke: #000000; stroke-width: 0.8; stroke-linejoin: miter; stroke-linecap: square"/>
   </g>
   <g id="patch_8">
    <path d="M 648 378 
L 648 51.84 
" style="fill: none; stroke: #000000; stroke-width: 0.8; stroke-linejoin: miter; stroke-linecap: square"/>
   </g>
   <g id="patch_9">
    <path d="M 90 378 
L 648 378 
" style="fill: none; stroke: #000000; stroke-width: 0.8; stroke-linejoin: miter; stroke-linecap: square"/>
   </g>
   <g id="patch_10">
    <path d="M 90 51.84 
L 648 51.84 
" style="fill: none; stroke: #000000; stroke-width: 0.8; stroke-linejoin: miter; stroke-linecap: square"/>
   </g>
  </g>
 </g>
 <defs>
  <clipPath id="p43174bf8c3">
   <rect x="90" y="51.84" width="558" height="326.16"/>
  </clipPath>
 </defs>
</svg>
