<?xml version="1.0" encoding="utf-8" standalone="no"?>
<!DOCTYPE svg PUBLIC "-//W3C//DTD SVG 1.1//EN"
  "http://www.w3.org/Graphics/SVG/1.1/DTD/svg11.dtd">
<svg xmlns:xlink="http://www.w3.org/1999/xlink" width="720pt" height="432pt" viewBox="0 0 720 432" xmlns="http://www.w3.org/2000/svg" version="1.1">
 <metadata>
  <rdf:RDF xmlns:dc="http://purl.org/dc/elements/1.1/" xmlns:cc="http://creativecommons.org/ns#" xmlns:rdf="http://www.w3.org/1999/02/22-rdf-syntax-ns#">
   <cc:Work>
    <dc:type rdf:resource="http://purl.org/dc/dcmitype/StillImage"/>
    <dc:date>2023-06-05T08:32:43.494591</dc:date>
    <dc:format>image/svg+xml</dc:format>
    <dc:creator>
     <cc:Agent>
      <dc:title>Matplotlib v3.6.2, https://matplotlib.org/</dc:title>
     </cc:Agent>
    </dc:creator>
   </cc:Work>
  </rdf:RDF>
 </metadata>
 <defs>
  <style type="text/css">*{stroke-linejoin: round; stroke-linecap: butt}</style>
 </defs>
 <g id="figure_1">
  <g id="patch_1">
   <path d="M 0 432 
L 720 432 
L 720 0 
L 0 0 
z
" style="fill: #ffffff"/>
  </g>
  <g id="axes_1">
   <g id="patch_2">
    <path d="M 90 378 
L 648 378 
L 648 51.84 
L 90 51.84 
z
" style="fill: #ffffff"/>
   </g>
   <g id="matplotlib.axis_1">
    <g id="xtick_1">
     <g id="line2d_1">
      <defs>
       <path id="mb3d1e2a48a" d="M 0 0 
L 0 3.5 
" style="stroke: #000000; stroke-width: 0.8"/>
      </defs>
      <g>
       <use xlink:href="#mb3d1e2a48a" x="151.087068" y="378" style="stroke: #000000; stroke-width: 0.8"/>
      </g>
     </g>
     <g id="text_1">
      <!-- 2600 -->
      <g transform="translate(133.272068 395.637812) scale(0.14 -0.14)">
       <defs>
        <path id="DejaVuSans-32" d="M 1228 531 
L 3431 531 
L 3431 0 
L 469 0 
L 469 531 
Q 828 903 1448 1529 
Q 2069 2156 2228 2338 
Q 2531 2678 2651 2914 
Q 2772 3150 2772 3378 
Q 2772 3750 2511 3984 
Q 2250 4219 1831 4219 
Q 1534 4219 1204 4116 
Q 875 4013 500 3803 
L 500 4441 
Q 881 4594 1212 4672 
Q 1544 4750 1819 4750 
Q 2544 4750 2975 4387 
Q 3406 4025 3406 3419 
Q 3406 3131 3298 2873 
Q 3191 2616 2906 2266 
Q 2828 2175 2409 1742 
Q 1991 1309 1228 531 
z
" transform="scale(0.015625)"/>
        <path id="DejaVuSans-36" d="M 2113 2584 
Q 1688 2584 1439 2293 
Q 1191 2003 1191 1497 
Q 1191 994 1439 701 
Q 1688 409 2113 409 
Q 2538 409 2786 701 
Q 3034 994 3034 1497 
Q 3034 2003 2786 2293 
Q 2538 2584 2113 2584 
z
M 3366 4563 
L 3366 3988 
Q 3128 4100 2886 4159 
Q 2644 4219 2406 4219 
Q 1781 4219 1451 3797 
Q 1122 3375 1075 2522 
Q 1259 2794 1537 2939 
Q 1816 3084 2150 3084 
Q 2853 3084 3261 2657 
Q 3669 2231 3669 1497 
Q 3669 778 3244 343 
Q 2819 -91 2113 -91 
Q 1303 -91 875 529 
Q 447 1150 447 2328 
Q 447 3434 972 4092 
Q 1497 4750 2381 4750 
Q 2619 4750 2861 4703 
Q 3103 4656 3366 4563 
z
" transform="scale(0.015625)"/>
        <path id="DejaVuSans-30" d="M 2034 4250 
Q 1547 4250 1301 3770 
Q 1056 3291 1056 2328 
Q 1056 1369 1301 889 
Q 1547 409 2034 409 
Q 2525 409 2770 889 
Q 3016 1369 3016 2328 
Q 3016 3291 2770 3770 
Q 2525 4250 2034 4250 
z
M 2034 4750 
Q 2819 4750 3233 4129 
Q 3647 3509 3647 2328 
Q 3647 1150 3233 529 
Q 2819 -91 2034 -91 
Q 1250 -91 836 529 
Q 422 1150 422 2328 
Q 422 3509 836 4129 
Q 1250 4750 2034 4750 
z
" transform="scale(0.015625)"/>
       </defs>
       <use xlink:href="#DejaVuSans-32"/>
       <use xlink:href="#DejaVuSans-36" x="63.623047"/>
       <use xlink:href="#DejaVuSans-30" x="127.246094"/>
       <use xlink:href="#DejaVuSans-30" x="190.869141"/>
      </g>
     </g>
    </g>
    <g id="xtick_2">
     <g id="line2d_2">
      <g>
       <use xlink:href="#mb3d1e2a48a" x="222.533931" y="378" style="stroke: #000000; stroke-width: 0.8"/>
      </g>
     </g>
     <g id="text_2">
      <!-- 2800 -->
      <g transform="translate(204.718931 395.637812) scale(0.14 -0.14)">
       <defs>
        <path id="DejaVuSans-38" d="M 2034 2216 
Q 1584 2216 1326 1975 
Q 1069 1734 1069 1313 
Q 1069 891 1326 650 
Q 1584 409 2034 409 
Q 2484 409 2743 651 
Q 3003 894 3003 1313 
Q 3003 1734 2745 1975 
Q 2488 2216 2034 2216 
z
M 1403 2484 
Q 997 2584 770 2862 
Q 544 3141 544 3541 
Q 544 4100 942 4425 
Q 1341 4750 2034 4750 
Q 2731 4750 3128 4425 
Q 3525 4100 3525 3541 
Q 3525 3141 3298 2862 
Q 3072 2584 2669 2484 
Q 3125 2378 3379 2068 
Q 3634 1759 3634 1313 
Q 3634 634 3220 271 
Q 2806 -91 2034 -91 
Q 1263 -91 848 271 
Q 434 634 434 1313 
Q 434 1759 690 2068 
Q 947 2378 1403 2484 
z
M 1172 3481 
Q 1172 3119 1398 2916 
Q 1625 2713 2034 2713 
Q 2441 2713 2670 2916 
Q 2900 3119 2900 3481 
Q 2900 3844 2670 4047 
Q 2441 4250 2034 4250 
Q 1625 4250 1398 4047 
Q 1172 3844 1172 3481 
z
" transform="scale(0.015625)"/>
       </defs>
       <use xlink:href="#DejaVuSans-32"/>
       <use xlink:href="#DejaVuSans-38" x="63.623047"/>
       <use xlink:href="#DejaVuSans-30" x="127.246094"/>
       <use xlink:href="#DejaVuSans-30" x="190.869141"/>
      </g>
     </g>
    </g>
    <g id="xtick_3">
     <g id="line2d_3">
      <g>
       <use xlink:href="#mb3d1e2a48a" x="293.980794" y="378" style="stroke: #000000; stroke-width: 0.8"/>
      </g>
     </g>
     <g id="text_3">
      <!-- 3000 -->
      <g transform="translate(276.165794 395.637812) scale(0.14 -0.14)">
       <defs>
        <path id="DejaVuSans-33" d="M 2597 2516 
Q 3050 2419 3304 2112 
Q 3559 1806 3559 1356 
Q 3559 666 3084 287 
Q 2609 -91 1734 -91 
Q 1441 -91 1130 -33 
Q 819 25 488 141 
L 488 750 
Q 750 597 1062 519 
Q 1375 441 1716 441 
Q 2309 441 2620 675 
Q 2931 909 2931 1356 
Q 2931 1769 2642 2001 
Q 2353 2234 1838 2234 
L 1294 2234 
L 1294 2753 
L 1863 2753 
Q 2328 2753 2575 2939 
Q 2822 3125 2822 3475 
Q 2822 3834 2567 4026 
Q 2313 4219 1838 4219 
Q 1578 4219 1281 4162 
Q 984 4106 628 3988 
L 628 4550 
Q 988 4650 1302 4700 
Q 1616 4750 1894 4750 
Q 2613 4750 3031 4423 
Q 3450 4097 3450 3541 
Q 3450 3153 3228 2886 
Q 3006 2619 2597 2516 
z
" transform="scale(0.015625)"/>
       </defs>
       <use xlink:href="#DejaVuSans-33"/>
       <use xlink:href="#DejaVuSans-30" x="63.623047"/>
       <use xlink:href="#DejaVuSans-30" x="127.246094"/>
       <use xlink:href="#DejaVuSans-30" x="190.869141"/>
      </g>
     </g>
    </g>
    <g id="xtick_4">
     <g id="line2d_4">
      <g>
       <use xlink:href="#mb3d1e2a48a" x="365.427657" y="378" style="stroke: #000000; stroke-width: 0.8"/>
      </g>
     </g>
     <g id="text_4">
      <!-- 3200 -->
      <g transform="translate(347.612657 395.637812) scale(0.14 -0.14)">
       <use xlink:href="#DejaVuSans-33"/>
       <use xlink:href="#DejaVuSans-32" x="63.623047"/>
       <use xlink:href="#DejaVuSans-30" x="127.246094"/>
       <use xlink:href="#DejaVuSans-30" x="190.869141"/>
      </g>
     </g>
    </g>
    <g id="xtick_5">
     <g id="line2d_5">
      <g>
       <use xlink:href="#mb3d1e2a48a" x="436.87452" y="378" style="stroke: #000000; stroke-width: 0.8"/>
      </g>
     </g>
     <g id="text_5">
      <!-- 3400 -->
      <g transform="translate(419.05952 395.637812) scale(0.14 -0.14)">
       <defs>
        <path id="DejaVuSans-34" d="M 2419 4116 
L 825 1625 
L 2419 1625 
L 2419 4116 
z
M 2253 4666 
L 3047 4666 
L 3047 1625 
L 3713 1625 
L 3713 1100 
L 3047 1100 
L 3047 0 
L 2419 0 
L 2419 1100 
L 313 1100 
L 313 1709 
L 2253 4666 
z
" transform="scale(0.015625)"/>
       </defs>
       <use xlink:href="#DejaVuSans-33"/>
       <use xlink:href="#DejaVuSans-34" x="63.623047"/>
       <use xlink:href="#DejaVuSans-30" x="127.246094"/>
       <use xlink:href="#DejaVuSans-30" x="190.869141"/>
      </g>
     </g>
    </g>
    <g id="xtick_6">
     <g id="line2d_6">
      <g>
       <use xlink:href="#mb3d1e2a48a" x="508.321383" y="378" style="stroke: #000000; stroke-width: 0.8"/>
      </g>
     </g>
     <g id="text_6">
      <!-- 3600 -->
      <g transform="translate(490.506383 395.637812) scale(0.14 -0.14)">
       <use xlink:href="#DejaVuSans-33"/>
       <use xlink:href="#DejaVuSans-36" x="63.623047"/>
       <use xlink:href="#DejaVuSans-30" x="127.246094"/>
       <use xlink:href="#DejaVuSans-30" x="190.869141"/>
      </g>
     </g>
    </g>
    <g id="xtick_7">
     <g id="line2d_7">
      <g>
       <use xlink:href="#mb3d1e2a48a" x="579.768246" y="378" style="stroke: #000000; stroke-width: 0.8"/>
      </g>
     </g>
     <g id="text_7">
      <!-- 3800 -->
      <g transform="translate(561.953246 395.637812) scale(0.14 -0.14)">
       <use xlink:href="#DejaVuSans-33"/>
       <use xlink:href="#DejaVuSans-38" x="63.623047"/>
       <use xlink:href="#DejaVuSans-30" x="127.246094"/>
       <use xlink:href="#DejaVuSans-30" x="190.869141"/>
      </g>
     </g>
    </g>
    <g id="text_8">
     <!-- Hazard Threshold [mV] -->
     <g transform="translate(276.73875 414.706875) scale(0.16 -0.16)">
      <defs>
       <path id="DejaVuSans-48" d="M 628 4666 
L 1259 4666 
L 1259 2753 
L 3553 2753 
L 3553 4666 
L 4184 4666 
L 4184 0 
L 3553 0 
L 3553 2222 
L 1259 2222 
L 1259 0 
L 628 0 
L 628 4666 
z
" transform="scale(0.015625)"/>
       <path id="DejaVuSans-61" d="M 2194 1759 
Q 1497 1759 1228 1600 
Q 959 1441 959 1056 
Q 959 750 1161 570 
Q 1363 391 1709 391 
Q 2188 391 2477 730 
Q 2766 1069 2766 1631 
L 2766 1759 
L 2194 1759 
z
M 3341 1997 
L 3341 0 
L 2766 0 
L 2766 531 
Q 2569 213 2275 61 
Q 1981 -91 1556 -91 
Q 1019 -91 701 211 
Q 384 513 384 1019 
Q 384 1609 779 1909 
Q 1175 2209 1959 2209 
L 2766 2209 
L 2766 2266 
Q 2766 2663 2505 2880 
Q 2244 3097 1772 3097 
Q 1472 3097 1187 3025 
Q 903 2953 641 2809 
L 641 3341 
Q 956 3463 1253 3523 
Q 1550 3584 1831 3584 
Q 2591 3584 2966 3190 
Q 3341 2797 3341 1997 
z
" transform="scale(0.015625)"/>
       <path id="DejaVuSans-7a" d="M 353 3500 
L 3084 3500 
L 3084 2975 
L 922 459 
L 3084 459 
L 3084 0 
L 275 0 
L 275 525 
L 2438 3041 
L 353 3041 
L 353 3500 
z
" transform="scale(0.015625)"/>
       <path id="DejaVuSans-72" d="M 2631 2963 
Q 2534 3019 2420 3045 
Q 2306 3072 2169 3072 
Q 1681 3072 1420 2755 
Q 1159 2438 1159 1844 
L 1159 0 
L 581 0 
L 581 3500 
L 1159 3500 
L 1159 2956 
Q 1341 3275 1631 3429 
Q 1922 3584 2338 3584 
Q 2397 3584 2469 3576 
Q 2541 3569 2628 3553 
L 2631 2963 
z
" transform="scale(0.015625)"/>
       <path id="DejaVuSans-64" d="M 2906 2969 
L 2906 4863 
L 3481 4863 
L 3481 0 
L 2906 0 
L 2906 525 
Q 2725 213 2448 61 
Q 2172 -91 1784 -91 
Q 1150 -91 751 415 
Q 353 922 353 1747 
Q 353 2572 751 3078 
Q 1150 3584 1784 3584 
Q 2172 3584 2448 3432 
Q 2725 3281 2906 2969 
z
M 947 1747 
Q 947 1113 1208 752 
Q 1469 391 1925 391 
Q 2381 391 2643 752 
Q 2906 1113 2906 1747 
Q 2906 2381 2643 2742 
Q 2381 3103 1925 3103 
Q 1469 3103 1208 2742 
Q 947 2381 947 1747 
z
" transform="scale(0.015625)"/>
       <path id="DejaVuSans-20" transform="scale(0.015625)"/>
       <path id="DejaVuSans-54" d="M -19 4666 
L 3928 4666 
L 3928 4134 
L 2272 4134 
L 2272 0 
L 1638 0 
L 1638 4134 
L -19 4134 
L -19 4666 
z
" transform="scale(0.015625)"/>
       <path id="DejaVuSans-68" d="M 3513 2113 
L 3513 0 
L 2938 0 
L 2938 2094 
Q 2938 2591 2744 2837 
Q 2550 3084 2163 3084 
Q 1697 3084 1428 2787 
Q 1159 2491 1159 1978 
L 1159 0 
L 581 0 
L 581 4863 
L 1159 4863 
L 1159 2956 
Q 1366 3272 1645 3428 
Q 1925 3584 2291 3584 
Q 2894 3584 3203 3211 
Q 3513 2838 3513 2113 
z
" transform="scale(0.015625)"/>
       <path id="DejaVuSans-65" d="M 3597 1894 
L 3597 1613 
L 953 1613 
Q 991 1019 1311 708 
Q 1631 397 2203 397 
Q 2534 397 2845 478 
Q 3156 559 3463 722 
L 3463 178 
Q 3153 47 2828 -22 
Q 2503 -91 2169 -91 
Q 1331 -91 842 396 
Q 353 884 353 1716 
Q 353 2575 817 3079 
Q 1281 3584 2069 3584 
Q 2775 3584 3186 3129 
Q 3597 2675 3597 1894 
z
M 3022 2063 
Q 3016 2534 2758 2815 
Q 2500 3097 2075 3097 
Q 1594 3097 1305 2825 
Q 1016 2553 972 2059 
L 3022 2063 
z
" transform="scale(0.015625)"/>
       <path id="DejaVuSans-73" d="M 2834 3397 
L 2834 2853 
Q 2591 2978 2328 3040 
Q 2066 3103 1784 3103 
Q 1356 3103 1142 2972 
Q 928 2841 928 2578 
Q 928 2378 1081 2264 
Q 1234 2150 1697 2047 
L 1894 2003 
Q 2506 1872 2764 1633 
Q 3022 1394 3022 966 
Q 3022 478 2636 193 
Q 2250 -91 1575 -91 
Q 1294 -91 989 -36 
Q 684 19 347 128 
L 347 722 
Q 666 556 975 473 
Q 1284 391 1588 391 
Q 1994 391 2212 530 
Q 2431 669 2431 922 
Q 2431 1156 2273 1281 
Q 2116 1406 1581 1522 
L 1381 1569 
Q 847 1681 609 1914 
Q 372 2147 372 2553 
Q 372 3047 722 3315 
Q 1072 3584 1716 3584 
Q 2034 3584 2315 3537 
Q 2597 3491 2834 3397 
z
" transform="scale(0.015625)"/>
       <path id="DejaVuSans-6f" d="M 1959 3097 
Q 1497 3097 1228 2736 
Q 959 2375 959 1747 
Q 959 1119 1226 758 
Q 1494 397 1959 397 
Q 2419 397 2687 759 
Q 2956 1122 2956 1747 
Q 2956 2369 2687 2733 
Q 2419 3097 1959 3097 
z
M 1959 3584 
Q 2709 3584 3137 3096 
Q 3566 2609 3566 1747 
Q 3566 888 3137 398 
Q 2709 -91 1959 -91 
Q 1206 -91 779 398 
Q 353 888 353 1747 
Q 353 2609 779 3096 
Q 1206 3584 1959 3584 
z
" transform="scale(0.015625)"/>
       <path id="DejaVuSans-6c" d="M 603 4863 
L 1178 4863 
L 1178 0 
L 603 0 
L 603 4863 
z
" transform="scale(0.015625)"/>
       <path id="DejaVuSans-5b" d="M 550 4863 
L 1875 4863 
L 1875 4416 
L 1125 4416 
L 1125 -397 
L 1875 -397 
L 1875 -844 
L 550 -844 
L 550 4863 
z
" transform="scale(0.015625)"/>
       <path id="DejaVuSans-6d" d="M 3328 2828 
Q 3544 3216 3844 3400 
Q 4144 3584 4550 3584 
Q 5097 3584 5394 3201 
Q 5691 2819 5691 2113 
L 5691 0 
L 5113 0 
L 5113 2094 
Q 5113 2597 4934 2840 
Q 4756 3084 4391 3084 
Q 3944 3084 3684 2787 
Q 3425 2491 3425 1978 
L 3425 0 
L 2847 0 
L 2847 2094 
Q 2847 2600 2669 2842 
Q 2491 3084 2119 3084 
Q 1678 3084 1418 2786 
Q 1159 2488 1159 1978 
L 1159 0 
L 581 0 
L 581 3500 
L 1159 3500 
L 1159 2956 
Q 1356 3278 1631 3431 
Q 1906 3584 2284 3584 
Q 2666 3584 2933 3390 
Q 3200 3197 3328 2828 
z
" transform="scale(0.015625)"/>
       <path id="DejaVuSans-56" d="M 1831 0 
L 50 4666 
L 709 4666 
L 2188 738 
L 3669 4666 
L 4325 4666 
L 2547 0 
L 1831 0 
z
" transform="scale(0.015625)"/>
       <path id="DejaVuSans-5d" d="M 1947 4863 
L 1947 -844 
L 622 -844 
L 622 -397 
L 1369 -397 
L 1369 4416 
L 622 4416 
L 622 4863 
L 1947 4863 
z
" transform="scale(0.015625)"/>
      </defs>
      <use xlink:href="#DejaVuSans-48"/>
      <use xlink:href="#DejaVuSans-61" x="75.195312"/>
      <use xlink:href="#DejaVuSans-7a" x="136.474609"/>
      <use xlink:href="#DejaVuSans-61" x="188.964844"/>
      <use xlink:href="#DejaVuSans-72" x="250.244141"/>
      <use xlink:href="#DejaVuSans-64" x="289.607422"/>
      <use xlink:href="#DejaVuSans-20" x="353.083984"/>
      <use xlink:href="#DejaVuSans-54" x="384.871094"/>
      <use xlink:href="#DejaVuSans-68" x="445.955078"/>
      <use xlink:href="#DejaVuSans-72" x="509.333984"/>
      <use xlink:href="#DejaVuSans-65" x="548.197266"/>
      <use xlink:href="#DejaVuSans-73" x="609.720703"/>
      <use xlink:href="#DejaVuSans-68" x="661.820312"/>
      <use xlink:href="#DejaVuSans-6f" x="725.199219"/>
      <use xlink:href="#DejaVuSans-6c" x="786.380859"/>
      <use xlink:href="#DejaVuSans-64" x="814.164062"/>
      <use xlink:href="#DejaVuSans-20" x="877.640625"/>
      <use xlink:href="#DejaVuSans-5b" x="909.427734"/>
      <use xlink:href="#DejaVuSans-6d" x="948.441406"/>
      <use xlink:href="#DejaVuSans-56" x="1045.853516"/>
      <use xlink:href="#DejaVuSans-5d" x="1114.261719"/>
     </g>
    </g>
   </g>
   <g id="matplotlib.axis_2">
    <g id="ytick_1">
     <g id="line2d_8">
      <defs>
       <path id="mec00f5d4ce" d="M 0 0 
L -3.5 0 
" style="stroke: #000000; stroke-width: 0.8"/>
      </defs>
      <g>
       <use xlink:href="#mec00f5d4ce" x="90" y="340.922188" style="stroke: #000000; stroke-width: 0.8"/>
      </g>
     </g>
     <g id="text_9">
      <!-- 40 -->
      <g transform="translate(65.185 346.241095) scale(0.14 -0.14)">
       <use xlink:href="#DejaVuSans-34"/>
       <use xlink:href="#DejaVuSans-30" x="63.623047"/>
      </g>
     </g>
    </g>
    <g id="ytick_2">
     <g id="line2d_9">
      <g>
       <use xlink:href="#mec00f5d4ce" x="90" y="290.461892" style="stroke: #000000; stroke-width: 0.8"/>
      </g>
     </g>
     <g id="text_10">
      <!-- 60 -->
      <g transform="translate(65.185 295.780799) scale(0.14 -0.14)">
       <use xlink:href="#DejaVuSans-36"/>
       <use xlink:href="#DejaVuSans-30" x="63.623047"/>
      </g>
     </g>
    </g>
    <g id="ytick_3">
     <g id="line2d_10">
      <g>
       <use xlink:href="#mec00f5d4ce" x="90" y="240.001597" style="stroke: #000000; stroke-width: 0.8"/>
      </g>
     </g>
     <g id="text_11">
      <!-- 80 -->
      <g transform="translate(65.185 245.320503) scale(0.14 -0.14)">
       <use xlink:href="#DejaVuSans-38"/>
       <use xlink:href="#DejaVuSans-30" x="63.623047"/>
      </g>
     </g>
    </g>
    <g id="ytick_4">
     <g id="line2d_11">
      <g>
       <use xlink:href="#mec00f5d4ce" x="90" y="189.541301" style="stroke: #000000; stroke-width: 0.8"/>
      </g>
     </g>
     <g id="text_12">
      <!-- 100 -->
      <g transform="translate(56.2775 194.860207) scale(0.14 -0.14)">
       <defs>
        <path id="DejaVuSans-31" d="M 794 531 
L 1825 531 
L 1825 4091 
L 703 3866 
L 703 4441 
L 1819 4666 
L 2450 4666 
L 2450 531 
L 3481 531 
L 3481 0 
L 794 0 
L 794 531 
z
" transform="scale(0.015625)"/>
       </defs>
       <use xlink:href="#DejaVuSans-31"/>
       <use xlink:href="#DejaVuSans-30" x="63.623047"/>
       <use xlink:href="#DejaVuSans-30" x="127.246094"/>
      </g>
     </g>
    </g>
    <g id="ytick_5">
     <g id="line2d_12">
      <g>
       <use xlink:href="#mec00f5d4ce" x="90" y="139.081005" style="stroke: #000000; stroke-width: 0.8"/>
      </g>
     </g>
     <g id="text_13">
      <!-- 120 -->
      <g transform="translate(56.2775 144.399911) scale(0.14 -0.14)">
       <use xlink:href="#DejaVuSans-31"/>
       <use xlink:href="#DejaVuSans-32" x="63.623047"/>
       <use xlink:href="#DejaVuSans-30" x="127.246094"/>
      </g>
     </g>
    </g>
    <g id="ytick_6">
     <g id="line2d_13">
      <g>
       <use xlink:href="#mec00f5d4ce" x="90" y="88.620709" style="stroke: #000000; stroke-width: 0.8"/>
      </g>
     </g>
     <g id="text_14">
      <!-- 140 -->
      <g transform="translate(56.2775 93.939615) scale(0.14 -0.14)">
       <use xlink:href="#DejaVuSans-31"/>
       <use xlink:href="#DejaVuSans-34" x="63.623047"/>
       <use xlink:href="#DejaVuSans-30" x="127.246094"/>
      </g>
     </g>
    </g>
    <g id="text_15">
     <!-- Total Power Consumption[mW] -->
     <g style="fill: #0000ff" transform="translate(48.95 337.79875) rotate(-90) scale(0.16 -0.16)">
      <defs>
       <path id="DejaVuSans-74" d="M 1172 4494 
L 1172 3500 
L 2356 3500 
L 2356 3053 
L 1172 3053 
L 1172 1153 
Q 1172 725 1289 603 
Q 1406 481 1766 481 
L 2356 481 
L 2356 0 
L 1766 0 
Q 1100 0 847 248 
Q 594 497 594 1153 
L 594 3053 
L 172 3053 
L 172 3500 
L 594 3500 
L 594 4494 
L 1172 4494 
z
" transform="scale(0.015625)"/>
       <path id="DejaVuSans-50" d="M 1259 4147 
L 1259 2394 
L 2053 2394 
Q 2494 2394 2734 2622 
Q 2975 2850 2975 3272 
Q 2975 3691 2734 3919 
Q 2494 4147 2053 4147 
L 1259 4147 
z
M 628 4666 
L 2053 4666 
Q 2838 4666 3239 4311 
Q 3641 3956 3641 3272 
Q 3641 2581 3239 2228 
Q 2838 1875 2053 1875 
L 1259 1875 
L 1259 0 
L 628 0 
L 628 4666 
z
" transform="scale(0.015625)"/>
       <path id="DejaVuSans-77" d="M 269 3500 
L 844 3500 
L 1563 769 
L 2278 3500 
L 2956 3500 
L 3675 769 
L 4391 3500 
L 4966 3500 
L 4050 0 
L 3372 0 
L 2619 2869 
L 1863 0 
L 1184 0 
L 269 3500 
z
" transform="scale(0.015625)"/>
       <path id="DejaVuSans-43" d="M 4122 4306 
L 4122 3641 
Q 3803 3938 3442 4084 
Q 3081 4231 2675 4231 
Q 1875 4231 1450 3742 
Q 1025 3253 1025 2328 
Q 1025 1406 1450 917 
Q 1875 428 2675 428 
Q 3081 428 3442 575 
Q 3803 722 4122 1019 
L 4122 359 
Q 3791 134 3420 21 
Q 3050 -91 2638 -91 
Q 1578 -91 968 557 
Q 359 1206 359 2328 
Q 359 3453 968 4101 
Q 1578 4750 2638 4750 
Q 3056 4750 3426 4639 
Q 3797 4528 4122 4306 
z
" transform="scale(0.015625)"/>
       <path id="DejaVuSans-6e" d="M 3513 2113 
L 3513 0 
L 2938 0 
L 2938 2094 
Q 2938 2591 2744 2837 
Q 2550 3084 2163 3084 
Q 1697 3084 1428 2787 
Q 1159 2491 1159 1978 
L 1159 0 
L 581 0 
L 581 3500 
L 1159 3500 
L 1159 2956 
Q 1366 3272 1645 3428 
Q 1925 3584 2291 3584 
Q 2894 3584 3203 3211 
Q 3513 2838 3513 2113 
z
" transform="scale(0.015625)"/>
       <path id="DejaVuSans-75" d="M 544 1381 
L 544 3500 
L 1119 3500 
L 1119 1403 
Q 1119 906 1312 657 
Q 1506 409 1894 409 
Q 2359 409 2629 706 
Q 2900 1003 2900 1516 
L 2900 3500 
L 3475 3500 
L 3475 0 
L 2900 0 
L 2900 538 
Q 2691 219 2414 64 
Q 2138 -91 1772 -91 
Q 1169 -91 856 284 
Q 544 659 544 1381 
z
M 1991 3584 
L 1991 3584 
z
" transform="scale(0.015625)"/>
       <path id="DejaVuSans-70" d="M 1159 525 
L 1159 -1331 
L 581 -1331 
L 581 3500 
L 1159 3500 
L 1159 2969 
Q 1341 3281 1617 3432 
Q 1894 3584 2278 3584 
Q 2916 3584 3314 3078 
Q 3713 2572 3713 1747 
Q 3713 922 3314 415 
Q 2916 -91 2278 -91 
Q 1894 -91 1617 61 
Q 1341 213 1159 525 
z
M 3116 1747 
Q 3116 2381 2855 2742 
Q 2594 3103 2138 3103 
Q 1681 3103 1420 2742 
Q 1159 2381 1159 1747 
Q 1159 1113 1420 752 
Q 1681 391 2138 391 
Q 2594 391 2855 752 
Q 3116 1113 3116 1747 
z
" transform="scale(0.015625)"/>
       <path id="DejaVuSans-69" d="M 603 3500 
L 1178 3500 
L 1178 0 
L 603 0 
L 603 3500 
z
M 603 4863 
L 1178 4863 
L 1178 4134 
L 603 4134 
L 603 4863 
z
" transform="scale(0.015625)"/>
       <path id="DejaVuSans-57" d="M 213 4666 
L 850 4666 
L 1831 722 
L 2809 4666 
L 3519 4666 
L 4500 722 
L 5478 4666 
L 6119 4666 
L 4947 0 
L 4153 0 
L 3169 4050 
L 2175 0 
L 1381 0 
L 213 4666 
z
" transform="scale(0.015625)"/>
      </defs>
      <use xlink:href="#DejaVuSans-54"/>
      <use xlink:href="#DejaVuSans-6f" x="44.083984"/>
      <use xlink:href="#DejaVuSans-74" x="105.265625"/>
      <use xlink:href="#DejaVuSans-61" x="144.474609"/>
      <use xlink:href="#DejaVuSans-6c" x="205.753906"/>
      <use xlink:href="#DejaVuSans-20" x="233.537109"/>
      <use xlink:href="#DejaVuSans-50" x="265.324219"/>
      <use xlink:href="#DejaVuSans-6f" x="322.001953"/>
      <use xlink:href="#DejaVuSans-77" x="383.183594"/>
      <use xlink:href="#DejaVuSans-65" x="464.970703"/>
      <use xlink:href="#DejaVuSans-72" x="526.494141"/>
      <use xlink:href="#DejaVuSans-20" x="567.607422"/>
      <use xlink:href="#DejaVuSans-43" x="599.394531"/>
      <use xlink:href="#DejaVuSans-6f" x="669.21875"/>
      <use xlink:href="#DejaVuSans-6e" x="730.400391"/>
      <use xlink:href="#DejaVuSans-73" x="793.779297"/>
      <use xlink:href="#DejaVuSans-75" x="845.878906"/>
      <use xlink:href="#DejaVuSans-6d" x="909.257812"/>
      <use xlink:href="#DejaVuSans-70" x="1006.669922"/>
      <use xlink:href="#DejaVuSans-74" x="1070.146484"/>
      <use xlink:href="#DejaVuSans-69" x="1109.355469"/>
      <use xlink:href="#DejaVuSans-6f" x="1137.138672"/>
      <use xlink:href="#DejaVuSans-6e" x="1198.320312"/>
      <use xlink:href="#DejaVuSans-5b" x="1261.699219"/>
      <use xlink:href="#DejaVuSans-6d" x="1300.712891"/>
      <use xlink:href="#DejaVuSans-57" x="1398.125"/>
      <use xlink:href="#DejaVuSans-5d" x="1497.001953"/>
     </g>
    </g>
   </g>
   <g id="line2d_14">
    <path d="M 115.363636 138.8845 
L 117.149808 140.109381 
L 118.93598 135.573283 
L 120.722151 146.99817 
L 124.294494 136.019084 
L 126.080666 135.717751 
L 127.866837 117.986124 
L 129.653009 163.184576 
L 131.439181 127.22662 
L 133.225352 139.82156 
L 135.011524 132.268638 
L 136.797695 123.913536 
L 138.583867 159.842366 
L 140.370038 122.003134 
L 142.15621 129.427431 
L 143.942382 125.58033 
L 145.728553 122.766924 
L 147.514725 116.648028 
L 149.300896 126.265813 
L 152.873239 117.086374 
L 154.659411 111.044858 
L 156.445583 101.546036 
L 158.231754 83.172466 
L 160.017926 88.590201 
L 161.804097 72.322594 
L 163.590269 87.885417 
L 165.37644 72.247926 
L 167.162612 73.22277 
L 168.948784 73.198377 
L 170.734955 71.999552 
L 172.521127 78.556055 
L 174.307298 71.402001 
L 176.09347 84.264593 
L 177.879641 66.665455 
L 179.665813 77.469317 
L 181.451985 82.767978 
L 183.238156 80.210189 
L 185.024328 81.425671 
L 186.810499 83.780098 
L 188.596671 105.141894 
L 190.382843 97.659551 
L 192.169014 105.735797 
L 193.955186 90.765595 
L 195.741357 103.637183 
L 197.527529 96.527974 
L 199.3137 113.387631 
L 201.099872 105.272375 
L 202.886044 101.96278 
L 204.672215 89.368965 
L 206.458387 104.32713 
L 208.244558 84.706365 
L 210.03073 112.431326 
L 211.816901 127.981483 
L 213.603073 135.750729 
L 215.389245 135.356987 
L 217.175416 139.19836 
L 218.961588 148.593646 
L 220.747759 161.454936 
L 224.320102 169.54247 
L 226.106274 166.447483 
L 227.892446 168.980312 
L 229.678617 186.452611 
L 231.464789 190.020853 
L 233.25096 202.083106 
L 235.037132 211.25478 
L 236.823303 216.412844 
L 238.609475 227.011075 
L 240.395647 244.370381 
L 242.181818 253.459501 
L 243.96799 246.402942 
L 245.754161 252.683399 
L 247.540333 255.010749 
L 249.326504 252.494741 
L 251.112676 270.66623 
L 252.898848 277.9333 
L 254.685019 269.225233 
L 256.471191 277.005214 
L 258.257362 277.006856 
L 260.043534 254.369724 
L 261.829706 261.03152 
L 263.615877 261.447704 
L 265.402049 263.465581 
L 267.18822 270.358755 
L 268.974392 261.739506 
L 270.760563 275.475149 
L 272.546735 270.704106 
L 274.332907 272.833328 
L 276.119078 283.436863 
L 277.90525 267.546182 
L 279.691421 286.675776 
L 281.477593 288.50287 
L 283.263764 288.909418 
L 285.049936 292.756458 
L 286.836108 281.963877 
L 288.622279 308.409169 
L 290.408451 314.766606 
L 292.194622 303.927316 
L 293.980794 301.45959 
L 295.766965 292.142389 
L 297.553137 298.405415 
L 299.339309 294.427226 
L 301.12548 293.870422 
L 302.911652 288.023676 
L 306.483995 301.203686 
L 308.270166 303.729509 
L 310.056338 311.304268 
L 311.84251 309.039123 
L 313.628681 309.346161 
L 315.414853 317.071907 
L 317.201024 322.37287 
L 318.987196 292.462536 
L 320.773367 310.32879 
L 322.559539 311.342941 
L 324.345711 322.14813 
L 326.131882 317.307908 
L 327.918054 320.468019 
L 329.704225 318.160566 
L 333.276569 302.784968 
L 335.06274 302.581499 
L 338.635083 310.112497 
L 340.421255 317.182524 
L 342.207426 315.166968 
L 343.993598 320.725276 
L 345.77977 311.147432 
L 347.565941 309.132689 
L 349.352113 315.705657 
L 351.138284 314.194285 
L 352.924456 313.18433 
L 354.710627 314.702062 
L 356.496799 313.750538 
L 358.282971 304.47314 
L 360.069142 312.020274 
L 361.855314 307.682321 
L 363.641485 308.192369 
L 365.427657 320.713037 
L 367.213828 314.665728 
L 369 300.263865 
L 370.786172 316.665488 
L 372.572343 298.641148 
L 374.358515 299.148617 
L 376.144686 308.870348 
L 377.930858 307.056682 
L 379.717029 314.938098 
L 381.503201 326.096938 
L 383.289373 326.353559 
L 385.075544 317.016414 
L 386.861716 320.121866 
L 388.647887 322.947562 
L 390.434059 327.800425 
L 392.22023 329.318205 
L 394.006402 329.320597 
L 395.792574 327.810456 
L 397.578745 330.345127 
L 399.364917 330.452456 
L 401.151088 317.642308 
L 402.93726 326.126107 
L 404.723431 321.389944 
L 406.509603 313.928102 
L 408.295775 309.695346 
L 410.081946 298.30647 
L 411.868118 301.236861 
L 413.654289 307.79894 
L 415.440461 316.683719 
L 417.226633 321.428778 
L 419.012804 327.218232 
L 422.585147 319.101438 
L 424.371319 319.2831 
L 426.15749 316.517995 
L 427.943662 311.280541 
L 429.729834 311.785795 
L 431.516005 311.944344 
L 433.302177 311.250172 
L 435.088348 306.011558 
L 436.87452 310.452321 
L 438.660691 303.48615 
L 440.446863 314.140028 
L 442.233035 314.849429 
L 444.019206 313.595839 
L 445.805378 315.819152 
L 447.591549 311.081988 
L 449.377721 321.380954 
L 451.163892 323.407927 
L 452.950064 323.414406 
L 454.736236 327.454464 
L 456.522407 320.949317 
L 458.308579 323.728582 
L 460.09475 327.465384 
L 461.880922 330.645613 
L 463.667093 329.485804 
L 465.453265 334.530955 
L 467.239437 344.123569 
L 469.025608 342.613035 
L 470.81178 342.614427 
L 472.597951 344.942686 
L 474.384123 337.584873 
L 476.170294 337.588496 
L 477.956466 335.17363 
L 479.742638 337.849837 
L 481.528809 337.705309 
L 483.314981 339.124232 
L 485.101152 335.560429 
L 486.887324 327.99286 
L 488.673496 335.560683 
L 490.459667 331.783496 
L 492.245839 327.001522 
L 494.03201 326.303505 
L 495.818182 327.016509 
L 497.604353 330.752186 
L 499.390525 328.235945 
L 501.176697 327.533455 
L 502.962868 334.123837 
L 504.74904 337.862056 
L 506.535211 334.131698 
L 508.321383 330.129311 
L 510.107554 334.171837 
L 511.893726 334.17546 
L 513.679898 332.96603 
L 515.466069 322.076658 
L 517.252241 324.399749 
L 519.038412 324.105028 
L 520.824584 327.642916 
L 522.610755 325.126158 
L 524.396927 317.052117 
L 526.183099 315.545171 
L 527.96927 325.338306 
L 529.755442 325.339466 
L 531.541613 320.104929 
L 533.327785 328.210992 
L 535.113956 331.948927 
L 536.900128 336.492392 
L 538.6863 340.375373 
L 540.472471 338.110659 
L 542.258643 337.707441 
L 544.044814 335.692612 
L 545.830986 327.12567 
L 547.617157 332.277378 
L 549.403329 334.04885 
L 551.189501 338.080325 
L 552.975672 339.093477 
L 554.761844 335.867275 
L 556.548015 336.122793 
L 558.334187 338.647968 
L 560.120359 341.881522 
L 561.90653 342.388749 
L 563.692702 342.389677 
L 565.478873 344.414737 
L 567.265045 342.903391 
L 569.051216 344.622217 
L 570.837388 345.939879 
L 572.62356 345.635369 
L 574.409731 349.701258 
L 576.195903 347.992756 
L 577.982074 351.224927 
L 579.768246 348.502632 
L 581.554417 354.105455 
L 583.340589 355.119051 
L 585.126761 360.20857 
L 586.912932 355.57114 
L 588.699104 350.421637 
L 590.485275 351.968035 
L 594.057618 351.97621 
L 595.84379 350.464026 
L 597.629962 350.467301 
L 599.416133 351.180118 
L 601.202305 348.458386 
L 602.988476 348.691007 
L 604.774648 352.299875 
L 606.560819 355.529907 
L 608.346991 350.792707 
L 610.133163 343.230464 
L 611.919334 345.956097 
L 613.705506 347.262896 
L 615.491677 354.382795 
L 617.277849 356.657212 
L 619.06402 355.856614 
L 620.850192 358.932278 
L 622.636364 363.174545 
L 622.636364 363.174545 
" clip-path="url(#pe7d2a794a3)" style="fill: none; stroke: #0000ff; stroke-width: 1.5; stroke-linecap: square"/>
   </g>
   <g id="patch_3">
    <path d="M 90 378 
L 90 51.84 
" style="fill: none; stroke: #000000; stroke-width: 0.8; stroke-linejoin: miter; stroke-linecap: square"/>
   </g>
   <g id="patch_4">
    <path d="M 648 378 
L 648 51.84 
" style="fill: none; stroke: #000000; stroke-width: 0.8; stroke-linejoin: miter; stroke-linecap: square"/>
   </g>
   <g id="patch_5">
    <path d="M 90 378 
L 648 378 
" style="fill: none; stroke: #000000; stroke-width: 0.8; stroke-linejoin: miter; stroke-linecap: square"/>
   </g>
   <g id="patch_6">
    <path d="M 90 51.84 
L 648 51.84 
" style="fill: none; stroke: #000000; stroke-width: 0.8; stroke-linejoin: miter; stroke-linecap: square"/>
   </g>
   <g id="text_16">
    <!-- Total Power Consumption - Voltage Trace2 -->
    <g transform="translate(180.262969 45.84) scale(0.18 -0.18)">
     <defs>
      <path id="DejaVuSans-2d" d="M 313 2009 
L 1997 2009 
L 1997 1497 
L 313 1497 
L 313 2009 
z
" transform="scale(0.015625)"/>
      <path id="DejaVuSans-67" d="M 2906 1791 
Q 2906 2416 2648 2759 
Q 2391 3103 1925 3103 
Q 1463 3103 1205 2759 
Q 947 2416 947 1791 
Q 947 1169 1205 825 
Q 1463 481 1925 481 
Q 2391 481 2648 825 
Q 2906 1169 2906 1791 
z
M 3481 434 
Q 3481 -459 3084 -895 
Q 2688 -1331 1869 -1331 
Q 1566 -1331 1297 -1286 
Q 1028 -1241 775 -1147 
L 775 -588 
Q 1028 -725 1275 -790 
Q 1522 -856 1778 -856 
Q 2344 -856 2625 -561 
Q 2906 -266 2906 331 
L 2906 616 
Q 2728 306 2450 153 
Q 2172 0 1784 0 
Q 1141 0 747 490 
Q 353 981 353 1791 
Q 353 2603 747 3093 
Q 1141 3584 1784 3584 
Q 2172 3584 2450 3431 
Q 2728 3278 2906 2969 
L 2906 3500 
L 3481 3500 
L 3481 434 
z
" transform="scale(0.015625)"/>
      <path id="DejaVuSans-63" d="M 3122 3366 
L 3122 2828 
Q 2878 2963 2633 3030 
Q 2388 3097 2138 3097 
Q 1578 3097 1268 2742 
Q 959 2388 959 1747 
Q 959 1106 1268 751 
Q 1578 397 2138 397 
Q 2388 397 2633 464 
Q 2878 531 3122 666 
L 3122 134 
Q 2881 22 2623 -34 
Q 2366 -91 2075 -91 
Q 1284 -91 818 406 
Q 353 903 353 1747 
Q 353 2603 823 3093 
Q 1294 3584 2113 3584 
Q 2378 3584 2631 3529 
Q 2884 3475 3122 3366 
z
" transform="scale(0.015625)"/>
     </defs>
     <use xlink:href="#DejaVuSans-54"/>
     <use xlink:href="#DejaVuSans-6f" x="44.083984"/>
     <use xlink:href="#DejaVuSans-74" x="105.265625"/>
     <use xlink:href="#DejaVuSans-61" x="144.474609"/>
     <use xlink:href="#DejaVuSans-6c" x="205.753906"/>
     <use xlink:href="#DejaVuSans-20" x="233.537109"/>
     <use xlink:href="#DejaVuSans-50" x="265.324219"/>
     <use xlink:href="#DejaVuSans-6f" x="322.001953"/>
     <use xlink:href="#DejaVuSans-77" x="383.183594"/>
     <use xlink:href="#DejaVuSans-65" x="464.970703"/>
     <use xlink:href="#DejaVuSans-72" x="526.494141"/>
     <use xlink:href="#DejaVuSans-20" x="567.607422"/>
     <use xlink:href="#DejaVuSans-43" x="599.394531"/>
     <use xlink:href="#DejaVuSans-6f" x="669.21875"/>
     <use xlink:href="#DejaVuSans-6e" x="730.400391"/>
     <use xlink:href="#DejaVuSans-73" x="793.779297"/>
     <use xlink:href="#DejaVuSans-75" x="845.878906"/>
     <use xlink:href="#DejaVuSans-6d" x="909.257812"/>
     <use xlink:href="#DejaVuSans-70" x="1006.669922"/>
     <use xlink:href="#DejaVuSans-74" x="1070.146484"/>
     <use xlink:href="#DejaVuSans-69" x="1109.355469"/>
     <use xlink:href="#DejaVuSans-6f" x="1137.138672"/>
     <use xlink:href="#DejaVuSans-6e" x="1198.320312"/>
     <use xlink:href="#DejaVuSans-20" x="1261.699219"/>
     <use xlink:href="#DejaVuSans-2d" x="1293.486328"/>
     <use xlink:href="#DejaVuSans-20" x="1329.570312"/>
     <use xlink:href="#DejaVuSans-56" x="1361.357422"/>
     <use xlink:href="#DejaVuSans-6f" x="1422.015625"/>
     <use xlink:href="#DejaVuSans-6c" x="1483.197266"/>
     <use xlink:href="#DejaVuSans-74" x="1510.980469"/>
     <use xlink:href="#DejaVuSans-61" x="1550.189453"/>
     <use xlink:href="#DejaVuSans-67" x="1611.46875"/>
     <use xlink:href="#DejaVuSans-65" x="1674.945312"/>
     <use xlink:href="#DejaVuSans-20" x="1736.46875"/>
     <use xlink:href="#DejaVuSans-54" x="1768.255859"/>
     <use xlink:href="#DejaVuSans-72" x="1814.589844"/>
     <use xlink:href="#DejaVuSans-61" x="1855.703125"/>
     <use xlink:href="#DejaVuSans-63" x="1916.982422"/>
     <use xlink:href="#DejaVuSans-65" x="1971.962891"/>
     <use xlink:href="#DejaVuSans-32" x="2033.486328"/>
    </g>
   </g>
  </g>
  <g id="axes_2">
   <g id="matplotlib.axis_3">
    <g id="ytick_7">
     <g id="line2d_15">
      <path d="M 90 358.938701 
L 648 358.938701 
" clip-path="url(#pe7d2a794a3)" style="fill: none; stroke: #b0b0b0; stroke-width: 0.8; stroke-linecap: square"/>
     </g>
     <g id="line2d_16">
      <defs>
       <path id="md165baa974" d="M 0 0 
L 3.5 0 
" style="stroke: #000000; stroke-width: 0.8"/>
      </defs>
      <g>
       <use xlink:href="#md165baa974" x="648" y="358.938701" style="stroke: #000000; stroke-width: 0.8"/>
      </g>
     </g>
     <g id="text_17">
      <!-- 20 -->
      <g transform="translate(655 364.257608) scale(0.14 -0.14)">
       <use xlink:href="#DejaVuSans-32"/>
       <use xlink:href="#DejaVuSans-30" x="63.623047"/>
      </g>
     </g>
    </g>
    <g id="ytick_8">
     <g id="line2d_17">
      <path d="M 90 316.58026 
L 648 316.58026 
" clip-path="url(#pe7d2a794a3)" style="fill: none; stroke: #b0b0b0; stroke-width: 0.8; stroke-linecap: square"/>
     </g>
     <g id="line2d_18">
      <g>
       <use xlink:href="#md165baa974" x="648" y="316.58026" style="stroke: #000000; stroke-width: 0.8"/>
      </g>
     </g>
     <g id="text_18">
      <!-- 30 -->
      <g transform="translate(655 321.899166) scale(0.14 -0.14)">
       <use xlink:href="#DejaVuSans-33"/>
       <use xlink:href="#DejaVuSans-30" x="63.623047"/>
      </g>
     </g>
    </g>
    <g id="ytick_9">
     <g id="line2d_19">
      <path d="M 90 274.221818 
L 648 274.221818 
" clip-path="url(#pe7d2a794a3)" style="fill: none; stroke: #b0b0b0; stroke-width: 0.8; stroke-linecap: square"/>
     </g>
     <g id="line2d_20">
      <g>
       <use xlink:href="#md165baa974" x="648" y="274.221818" style="stroke: #000000; stroke-width: 0.8"/>
      </g>
     </g>
     <g id="text_19">
      <!-- 40 -->
      <g transform="translate(655 279.540724) scale(0.14 -0.14)">
       <use xlink:href="#DejaVuSans-34"/>
       <use xlink:href="#DejaVuSans-30" x="63.623047"/>
      </g>
     </g>
    </g>
    <g id="ytick_10">
     <g id="line2d_21">
      <path d="M 90 231.863377 
L 648 231.863377 
" clip-path="url(#pe7d2a794a3)" style="fill: none; stroke: #b0b0b0; stroke-width: 0.8; stroke-linecap: square"/>
     </g>
     <g id="line2d_22">
      <g>
       <use xlink:href="#md165baa974" x="648" y="231.863377" style="stroke: #000000; stroke-width: 0.8"/>
      </g>
     </g>
     <g id="text_20">
      <!-- 50 -->
      <g transform="translate(655 237.182283) scale(0.14 -0.14)">
       <defs>
        <path id="DejaVuSans-35" d="M 691 4666 
L 3169 4666 
L 3169 4134 
L 1269 4134 
L 1269 2991 
Q 1406 3038 1543 3061 
Q 1681 3084 1819 3084 
Q 2600 3084 3056 2656 
Q 3513 2228 3513 1497 
Q 3513 744 3044 326 
Q 2575 -91 1722 -91 
Q 1428 -91 1123 -41 
Q 819 9 494 109 
L 494 744 
Q 775 591 1075 516 
Q 1375 441 1709 441 
Q 2250 441 2565 725 
Q 2881 1009 2881 1497 
Q 2881 1984 2565 2268 
Q 2250 2553 1709 2553 
Q 1456 2553 1204 2497 
Q 953 2441 691 2322 
L 691 4666 
z
" transform="scale(0.015625)"/>
       </defs>
       <use xlink:href="#DejaVuSans-35"/>
       <use xlink:href="#DejaVuSans-30" x="63.623047"/>
      </g>
     </g>
    </g>
    <g id="ytick_11">
     <g id="line2d_23">
      <path d="M 90 189.504935 
L 648 189.504935 
" clip-path="url(#pe7d2a794a3)" style="fill: none; stroke: #b0b0b0; stroke-width: 0.8; stroke-linecap: square"/>
     </g>
     <g id="line2d_24">
      <g>
       <use xlink:href="#md165baa974" x="648" y="189.504935" style="stroke: #000000; stroke-width: 0.8"/>
      </g>
     </g>
     <g id="text_21">
      <!-- 60 -->
      <g transform="translate(655 194.823841) scale(0.14 -0.14)">
       <use xlink:href="#DejaVuSans-36"/>
       <use xlink:href="#DejaVuSans-30" x="63.623047"/>
      </g>
     </g>
    </g>
    <g id="ytick_12">
     <g id="line2d_25">
      <path d="M 90 147.146494 
L 648 147.146494 
" clip-path="url(#pe7d2a794a3)" style="fill: none; stroke: #b0b0b0; stroke-width: 0.8; stroke-linecap: square"/>
     </g>
     <g id="line2d_26">
      <g>
       <use xlink:href="#md165baa974" x="648" y="147.146494" style="stroke: #000000; stroke-width: 0.8"/>
      </g>
     </g>
     <g id="text_22">
      <!-- 70 -->
      <g transform="translate(655 152.4654) scale(0.14 -0.14)">
       <defs>
        <path id="DejaVuSans-37" d="M 525 4666 
L 3525 4666 
L 3525 4397 
L 1831 0 
L 1172 0 
L 2766 4134 
L 525 4134 
L 525 4666 
z
" transform="scale(0.015625)"/>
       </defs>
       <use xlink:href="#DejaVuSans-37"/>
       <use xlink:href="#DejaVuSans-30" x="63.623047"/>
      </g>
     </g>
    </g>
    <g id="ytick_13">
     <g id="line2d_27">
      <path d="M 90 104.788052 
L 648 104.788052 
" clip-path="url(#pe7d2a794a3)" style="fill: none; stroke: #b0b0b0; stroke-width: 0.8; stroke-linecap: square"/>
     </g>
     <g id="line2d_28">
      <g>
       <use xlink:href="#md165baa974" x="648" y="104.788052" style="stroke: #000000; stroke-width: 0.8"/>
      </g>
     </g>
     <g id="text_23">
      <!-- 80 -->
      <g transform="translate(655 110.106958) scale(0.14 -0.14)">
       <use xlink:href="#DejaVuSans-38"/>
       <use xlink:href="#DejaVuSans-30" x="63.623047"/>
      </g>
     </g>
    </g>
    <g id="ytick_14">
     <g id="line2d_29">
      <path d="M 90 62.42961 
L 648 62.42961 
" clip-path="url(#pe7d2a794a3)" style="fill: none; stroke: #b0b0b0; stroke-width: 0.8; stroke-linecap: square"/>
     </g>
     <g id="line2d_30">
      <g>
       <use xlink:href="#md165baa974" x="648" y="62.42961" style="stroke: #000000; stroke-width: 0.8"/>
      </g>
     </g>
     <g id="text_24">
      <!-- 90 -->
      <g transform="translate(655 67.748517) scale(0.14 -0.14)">
       <defs>
        <path id="DejaVuSans-39" d="M 703 97 
L 703 672 
Q 941 559 1184 500 
Q 1428 441 1663 441 
Q 2288 441 2617 861 
Q 2947 1281 2994 2138 
Q 2813 1869 2534 1725 
Q 2256 1581 1919 1581 
Q 1219 1581 811 2004 
Q 403 2428 403 3163 
Q 403 3881 828 4315 
Q 1253 4750 1959 4750 
Q 2769 4750 3195 4129 
Q 3622 3509 3622 2328 
Q 3622 1225 3098 567 
Q 2575 -91 1691 -91 
Q 1453 -91 1209 -44 
Q 966 3 703 97 
z
M 1959 2075 
Q 2384 2075 2632 2365 
Q 2881 2656 2881 3163 
Q 2881 3666 2632 3958 
Q 2384 4250 1959 4250 
Q 1534 4250 1286 3958 
Q 1038 3666 1038 3163 
Q 1038 2656 1286 2365 
Q 1534 2075 1959 2075 
z
" transform="scale(0.015625)"/>
       </defs>
       <use xlink:href="#DejaVuSans-39"/>
       <use xlink:href="#DejaVuSans-30" x="63.623047"/>
      </g>
     </g>
    </g>
    <g id="text_25">
     <!-- Number of oscillations -->
     <g style="fill: #ff0000" transform="translate(688.9725 304.37625) rotate(-90) scale(0.16 -0.16)">
      <defs>
       <path id="DejaVuSans-4e" d="M 628 4666 
L 1478 4666 
L 3547 763 
L 3547 4666 
L 4159 4666 
L 4159 0 
L 3309 0 
L 1241 3903 
L 1241 0 
L 628 0 
L 628 4666 
z
" transform="scale(0.015625)"/>
       <path id="DejaVuSans-62" d="M 3116 1747 
Q 3116 2381 2855 2742 
Q 2594 3103 2138 3103 
Q 1681 3103 1420 2742 
Q 1159 2381 1159 1747 
Q 1159 1113 1420 752 
Q 1681 391 2138 391 
Q 2594 391 2855 752 
Q 3116 1113 3116 1747 
z
M 1159 2969 
Q 1341 3281 1617 3432 
Q 1894 3584 2278 3584 
Q 2916 3584 3314 3078 
Q 3713 2572 3713 1747 
Q 3713 922 3314 415 
Q 2916 -91 2278 -91 
Q 1894 -91 1617 61 
Q 1341 213 1159 525 
L 1159 0 
L 581 0 
L 581 4863 
L 1159 4863 
L 1159 2969 
z
" transform="scale(0.015625)"/>
       <path id="DejaVuSans-66" d="M 2375 4863 
L 2375 4384 
L 1825 4384 
Q 1516 4384 1395 4259 
Q 1275 4134 1275 3809 
L 1275 3500 
L 2222 3500 
L 2222 3053 
L 1275 3053 
L 1275 0 
L 697 0 
L 697 3053 
L 147 3053 
L 147 3500 
L 697 3500 
L 697 3744 
Q 697 4328 969 4595 
Q 1241 4863 1831 4863 
L 2375 4863 
z
" transform="scale(0.015625)"/>
      </defs>
      <use xlink:href="#DejaVuSans-4e"/>
      <use xlink:href="#DejaVuSans-75" x="74.804688"/>
      <use xlink:href="#DejaVuSans-6d" x="138.183594"/>
      <use xlink:href="#DejaVuSans-62" x="235.595703"/>
      <use xlink:href="#DejaVuSans-65" x="299.072266"/>
      <use xlink:href="#DejaVuSans-72" x="360.595703"/>
      <use xlink:href="#DejaVuSans-20" x="401.708984"/>
      <use xlink:href="#DejaVuSans-6f" x="433.496094"/>
      <use xlink:href="#DejaVuSans-66" x="494.677734"/>
      <use xlink:href="#DejaVuSans-20" x="529.882812"/>
      <use xlink:href="#DejaVuSans-6f" x="561.669922"/>
      <use xlink:href="#DejaVuSans-73" x="622.851562"/>
      <use xlink:href="#DejaVuSans-63" x="674.951172"/>
      <use xlink:href="#DejaVuSans-69" x="729.931641"/>
      <use xlink:href="#DejaVuSans-6c" x="757.714844"/>
      <use xlink:href="#DejaVuSans-6c" x="785.498047"/>
      <use xlink:href="#DejaVuSans-61" x="813.28125"/>
      <use xlink:href="#DejaVuSans-74" x="874.560547"/>
      <use xlink:href="#DejaVuSans-69" x="913.769531"/>
      <use xlink:href="#DejaVuSans-6f" x="941.552734"/>
      <use xlink:href="#DejaVuSans-6e" x="1002.734375"/>
      <use xlink:href="#DejaVuSans-73" x="1066.113281"/>
     </g>
    </g>
   </g>
   <g id="line2d_31">
    <path d="M 115.363636 172.561558 
L 117.149808 151.382338 
L 118.93598 142.910649 
L 120.722151 151.382338 
L 122.508323 147.146494 
L 124.294494 155.618182 
L 126.080666 130.203117 
L 127.866837 142.910649 
L 131.439181 142.910649 
L 133.225352 168.325714 
L 135.011524 159.854026 
L 136.797695 147.146494 
L 138.583867 155.618182 
L 142.15621 138.674805 
L 143.942382 125.967273 
L 145.728553 138.674805 
L 147.514725 147.146494 
L 149.300896 142.910649 
L 152.873239 142.910649 
L 154.659411 121.731429 
L 156.445583 96.316364 
L 160.017926 96.316364 
L 161.804097 92.080519 
L 163.590269 96.316364 
L 165.37644 83.608831 
L 167.162612 87.844675 
L 168.948784 96.316364 
L 170.734955 66.665455 
L 172.521127 113.25974 
L 174.307298 96.316364 
L 176.09347 83.608831 
L 177.879641 87.844675 
L 179.665813 70.901299 
L 181.451985 92.080519 
L 183.238156 66.665455 
L 185.024328 79.372987 
L 186.810499 83.608831 
L 188.596671 92.080519 
L 190.382843 117.495584 
L 192.169014 104.788052 
L 193.955186 113.25974 
L 195.741357 100.552208 
L 197.527529 104.788052 
L 199.3137 113.25974 
L 201.099872 109.023896 
L 202.886044 87.844675 
L 204.672215 100.552208 
L 206.458387 109.023896 
L 208.244558 87.844675 
L 210.03073 113.25974 
L 211.816901 104.788052 
L 213.603073 113.25974 
L 215.389245 142.910649 
L 217.175416 138.674805 
L 218.961588 147.146494 
L 220.747759 138.674805 
L 222.533931 147.146494 
L 224.320102 164.08987 
L 226.106274 164.08987 
L 229.678617 189.504935 
L 231.464789 189.504935 
L 233.25096 206.448312 
L 235.037132 206.448312 
L 236.823303 223.391688 
L 238.609475 214.92 
L 240.395647 257.278442 
L 242.181818 265.75013 
L 243.96799 261.514286 
L 245.754161 253.042597 
L 247.540333 253.042597 
L 249.326504 261.514286 
L 251.112676 257.278442 
L 252.898848 257.278442 
L 254.685019 261.514286 
L 256.471191 274.221818 
L 258.257362 261.514286 
L 260.043534 257.278442 
L 261.829706 248.806753 
L 263.615877 253.042597 
L 265.402049 269.985974 
L 267.18822 257.278442 
L 268.974392 278.457662 
L 270.760563 274.221818 
L 272.546735 282.693506 
L 274.332907 261.514286 
L 276.119078 248.806753 
L 277.90525 265.75013 
L 281.477593 274.221818 
L 283.263764 282.693506 
L 285.049936 286.929351 
L 288.622279 286.929351 
L 290.408451 291.165195 
L 292.194622 312.344416 
L 293.980794 291.165195 
L 295.766965 274.221818 
L 299.339309 265.75013 
L 301.12548 278.457662 
L 302.911652 261.514286 
L 306.483995 274.221818 
L 308.270166 278.457662 
L 311.84251 278.457662 
L 313.628681 286.929351 
L 315.414853 286.929351 
L 320.773367 274.221818 
L 322.559539 286.929351 
L 324.345711 286.929351 
L 326.131882 269.985974 
L 327.918054 274.221818 
L 329.704225 286.929351 
L 331.490397 269.985974 
L 333.276569 286.929351 
L 335.06274 265.75013 
L 336.848912 286.929351 
L 338.635083 274.221818 
L 340.421255 278.457662 
L 342.207426 295.401039 
L 343.993598 291.165195 
L 345.77977 282.693506 
L 347.565941 312.344416 
L 349.352113 278.457662 
L 351.138284 265.75013 
L 352.924456 295.401039 
L 354.710627 278.457662 
L 356.496799 303.872727 
L 360.069142 278.457662 
L 361.855314 286.929351 
L 363.641485 291.165195 
L 365.427657 282.693506 
L 367.213828 286.929351 
L 369 282.693506 
L 370.786172 282.693506 
L 374.358515 274.221818 
L 376.144686 286.929351 
L 377.930858 278.457662 
L 379.717029 274.221818 
L 381.503201 282.693506 
L 385.075544 282.693506 
L 386.861716 303.872727 
L 388.647887 295.401039 
L 390.434059 303.872727 
L 392.22023 308.108571 
L 394.006402 295.401039 
L 395.792574 303.872727 
L 397.578745 303.872727 
L 399.364917 291.165195 
L 401.151088 291.165195 
L 402.93726 308.108571 
L 404.723431 295.401039 
L 406.509603 295.401039 
L 408.295775 291.165195 
L 410.081946 261.514286 
L 411.868118 274.221818 
L 413.654289 274.221818 
L 417.226633 291.165195 
L 419.012804 295.401039 
L 420.798976 295.401039 
L 424.371319 312.344416 
L 426.15749 291.165195 
L 427.943662 291.165195 
L 429.729834 282.693506 
L 431.516005 291.165195 
L 433.302177 291.165195 
L 435.088348 286.929351 
L 438.660691 295.401039 
L 440.446863 291.165195 
L 442.233035 295.401039 
L 444.019206 316.58026 
L 445.805378 299.636883 
L 447.591549 312.344416 
L 449.377721 299.636883 
L 452.950064 282.693506 
L 454.736236 299.636883 
L 456.522407 295.401039 
L 458.308579 286.929351 
L 460.09475 299.636883 
L 461.880922 295.401039 
L 463.667093 303.872727 
L 465.453265 325.051948 
L 467.239437 320.816104 
L 469.025608 329.287792 
L 470.81178 325.051948 
L 472.597951 325.051948 
L 474.384123 329.287792 
L 476.170294 325.051948 
L 479.742638 325.051948 
L 481.528809 329.287792 
L 483.314981 320.816104 
L 485.101152 337.759481 
L 486.887324 320.816104 
L 488.673496 333.523636 
L 490.459667 312.344416 
L 492.245839 325.051948 
L 494.03201 329.287792 
L 495.818182 308.108571 
L 497.604353 312.344416 
L 499.390525 308.108571 
L 501.176697 320.816104 
L 502.962868 325.051948 
L 504.74904 320.816104 
L 506.535211 320.816104 
L 508.321383 312.344416 
L 511.893726 320.816104 
L 513.679898 308.108571 
L 515.466069 303.872727 
L 517.252241 308.108571 
L 519.038412 303.872727 
L 520.824584 316.58026 
L 522.610755 295.401039 
L 526.183099 303.872727 
L 527.96927 320.816104 
L 529.755442 316.58026 
L 531.541613 308.108571 
L 533.327785 333.523636 
L 535.113956 325.051948 
L 538.6863 316.58026 
L 540.472471 337.759481 
L 542.258643 325.051948 
L 544.044814 337.759481 
L 545.830986 325.051948 
L 547.617157 316.58026 
L 549.403329 316.58026 
L 551.189501 320.816104 
L 552.975672 329.287792 
L 558.334187 341.995325 
L 560.120359 329.287792 
L 561.90653 337.759481 
L 563.692702 333.523636 
L 565.478873 337.759481 
L 567.265045 333.523636 
L 569.051216 341.995325 
L 570.837388 341.995325 
L 572.62356 325.051948 
L 574.409731 329.287792 
L 576.195903 350.467013 
L 577.982074 329.287792 
L 579.768246 337.759481 
L 581.554417 333.523636 
L 583.340589 350.467013 
L 585.126761 337.759481 
L 586.912932 337.759481 
L 588.699104 333.523636 
L 590.485275 337.759481 
L 595.84379 337.759481 
L 597.629962 333.523636 
L 599.416133 333.523636 
L 602.988476 341.995325 
L 604.774648 350.467013 
L 606.560819 346.231169 
L 611.919334 346.231169 
L 613.705506 354.702857 
L 615.491677 346.231169 
L 617.277849 354.702857 
L 619.06402 350.467013 
L 620.850192 350.467013 
L 622.636364 363.174545 
L 622.636364 363.174545 
" clip-path="url(#pe7d2a794a3)" style="fill: none; stroke: #ff0000; stroke-width: 1.5; stroke-linecap: square"/>
   </g>
   <g id="patch_7">
    <path d="M 90 378 
L 90 51.84 
" style="fill: none; stroke: #000000; stroke-width: 0.8; stroke-linejoin: miter; stroke-linecap: square"/>
   </g>
   <g id="patch_8">
    <path d="M 648 378 
L 648 51.84 
" style="fill: none; stroke: #000000; stroke-width: 0.8; stroke-linejoin: miter; stroke-linecap: square"/>
   </g>
   <g id="patch_9">
    <path d="M 90 378 
L 648 378 
" style="fill: none; stroke: #000000; stroke-width: 0.8; stroke-linejoin: miter; stroke-linecap: square"/>
   </g>
   <g id="patch_10">
    <path d="M 90 51.84 
L 648 51.84 
" style="fill: none; stroke: #000000; stroke-width: 0.8; stroke-linejoin: miter; stroke-linecap: square"/>
   </g>
  </g>
 </g>
 <defs>
  <clipPath id="pe7d2a794a3">
   <rect x="90" y="51.84" width="558" height="326.16"/>
  </clipPath>
 </defs>
</svg>
